<svg width="89" height="63" viewBox="0 0 89 63" fill="none" xmlns="http://www.w3.org/2000/svg">
<path fill-rule="evenodd" clip-rule="evenodd" d="M57.7801 2.74717C57.9109 2.86131 58.0301 3.00099 58.1353 3.16943C59.2919 5.02303 57.5888 10.4845 56.5623 11.3224C56.2507 11.5767 56.312 11.4147 56.4771 10.9781C56.5864 10.6891 56.7412 10.2799 56.8635 9.7913C57.1653 8.58594 57.1312 7.22677 56.8635 5.92534C55.8854 4.35789 55.7239 4.29183 54.1188 3.98475C53.5 3.98409 52.8278 4.08449 52.1111 4.35603C46.656 6.42296 46.2543 5.88709 45.7189 4.04981C45.7189 1.8513 48.2959 -0.428539 52.1111 0.0690511C55.0879 0.780906 56.7298 1.19734 57.7801 2.74717Z" fill="#384999"/>
<path d="M48.9663 1.0147C50.1613 0.599249 50.7215 0.660506 51.6772 0.823318C50.5806 0.811696 50.286 0.956502 49.1672 1.55057C49.1672 1.55057 47.7173 2.25194 47.4603 3.15818C47.3832 3.91159 48.0381 3.53964 48.0293 4.03854C48.0204 4.53745 47.6808 4.81077 47.5607 4.84235C46.9674 4.93245 46.8276 4.79098 46.4897 4.30648C46.283 3.69521 46.3196 3.37094 46.5901 2.8137C47.0537 2.17454 47.6648 1.46209 48.9663 1.0147Z" fill="#8BADD3"/>
<path d="M31.5957 17.7986C30.8995 19.2938 31.1102 20.2667 31.9973 21.0521C32.5509 21.6067 33.0518 21.5698 34.9759 21.0521C40.5873 18.7922 41.1594 17.3338 44.7818 16.0761C47.8216 14.733 48.9884 14.3608 52.0442 13.6265C55.8144 12.9154 57.4079 13.4194 60.1098 13.9326C63.2647 15.3577 63.6718 16.3158 64.7617 18.0282C66.0047 20.6378 65.9516 22.0314 66 24.7266C66.0017 27.9597 65.8256 29.3631 64.9625 31.8844C64.37 33.8739 63.6585 35.294 62.2182 36.7072C61.6986 37.2672 58.833 39.1836 53.7175 39.1186L53.5942 39.1076C50.1885 38.8039 48.5199 38.6551 44.2463 37.2048L41.3681 36.401C38.387 35.547 37.0843 35.023 33.9719 33.3771C32.3619 32.776 31.8721 32.2525 30.0562 30.2767C29.1719 28.5907 28.4586 27.5974 28.1486 25.6836C27.9754 24.0293 27.8804 23.8844 26.8097 22.2511L26.7764 22.2004C25.6744 20.5192 21.4217 19.2531 21.4217 19.2531C21.4217 19.2531 18.349 17.6103 17.1713 14.6982C16.6032 12.9323 16.4318 12.4416 16 11.1385C18.9768 12.5272 22.7944 11.9181 23.8648 12.2102C24.9284 12.5005 26.7589 13.903 26.7763 13.9323C26.7756 13.8911 27.0606 10.9702 29.5877 9.18637C32.0569 7.58543 33.0193 6.45706 34.3066 4.21042C35.2393 6.99562 35.4763 8.56153 34.9759 11.3681C33.7464 14.0237 33.0095 15.4364 31.5957 17.7986Z" fill="#384999"/>
<path d="M39.5275 20.4475C38.1311 21.2534 37.4328 21.5711 36.2142 22.2847C38.0318 21.4359 39.0589 21.0216 40.8327 20.2561C42.7069 19.3374 43.8782 19.0695 45.9532 18.0743C48.3294 17.194 49.1995 16.8112 51.5757 16.237C53.5502 15.9691 53.8514 15.6246 55.9933 15.5098C57.3974 15.4345 57.4994 15.6629 58.7377 15.3567C57.7823 15.1262 57.5038 14.7965 55.9933 14.8591C53.9856 14.9149 53.4598 15.1027 52.2115 15.3567C50.2615 15.7326 49.5664 15.9688 48.3294 16.3902C46.2412 17.0814 44.8159 17.82 44.8153 17.8829C44.8147 17.9458 39.9273 20.2482 39.5275 20.4475Z" fill="white"/>
<path d="M35.913 29.7026C32.9327 29.5543 30.509 28.7921 29.6547 27.2529C30.0167 29.1037 31.1583 30.2022 35.3441 32.3054L41.4016 34.7934C45.5465 36.5235 47.9397 37.3096 52.6466 37.5493C55.374 37.7082 56.8156 37.671 58.8715 36.8603C58.8715 36.8603 63.1887 35.5207 63.4899 33.1858C63.7912 30.8509 62.6533 30.2385 61.3815 31.9992C60.1098 33.7599 57.6613 34.6194 53.7175 34.7934C49.8224 34.5488 47.6352 34.4398 43.9117 32.7648L35.913 29.7026Z" fill="#8BADD3"/>
<path d="M49.8688 27.803C49.7742 28.2609 49.5177 28.5912 48.7337 28.7075C47.8788 28.7075 47.3922 28.2132 47.3922 27.6002C47.4678 27.0333 47.9584 26.5357 48.7337 26.4874C49.559 26.5997 49.8488 27.2659 49.8688 27.803Z" fill="white"/>
<ellipse cx="48.5301" cy="28.1333" rx="0.736278" ry="0.727254" fill="#4F515E"/>
<path d="M43.4766 32.3436C41.5486 32.6127 37.2517 39.6927 35.9464 39.8458C35.2436 39.9283 34.8552 39.7981 34.8086 39.2717C34.7475 38.5827 34.7104 38.2322 34.8086 36.9751C35.2064 31.8782 35.9071 34.0022 35.5102 33.1713C37.7957 28.9962 33.0481 25.7264 35.5964 27.0281C38.1448 28.3298 50.3853 31.3794 43.4766 32.3436Z" fill="#384999"/>
<path d="M43.4766 32.3436C41.5486 32.6127 37.2517 39.6927 35.9464 39.8458C35.2436 39.9283 34.8552 39.7981 34.8086 39.2717C34.7475 38.5827 34.7104 38.2322 34.8086 36.9751C35.2064 31.8782 35.9071 34.0022 35.5102 33.1713C37.7957 28.9962 33.0481 25.7264 35.5964 27.0281C38.1448 28.3298 50.3853 31.3794 43.4766 32.3436Z" fill="#384999"/>
<path d="M39.5972 35.0786C37.7748 38.0183 36.1174 39.5451 35.5719 39.1027C35.3486 38.9217 35.3777 38.4519 35.6303 37.1605C36.0464 35.7325 35.5034 38.6758 36.4137 37.771C39.0165 35.6499 40.9151 32.9293 42.1072 31.7485C41.3375 32.9734 41.7056 32.2461 39.5972 35.0786Z" fill="#8BADD3"/>
<path d="M27.3974 21.5498C25.5567 18.2197 21.1056 17.99 20.0346 17.2628C18.9637 16.5355 17.5689 14.7149 17.8593 13.3969C18.2943 14.4303 19.131 15.6935 21.5406 16.5738C22.2966 16.85 23.8621 17.1441 24.8204 17.7987C26.4603 19.3297 27.1966 20.4397 27.3974 21.5498Z" fill="#8BADD3"/>
<path d="M30.2905 9.45434C28.8848 10.0668 28.3692 11.6016 27.5127 13.3203C28.3365 12.2008 28.8514 11.4447 29.6881 10.794C30.5247 10.1433 31.261 9.84754 31.6961 9.53089C32.1312 9.21424 33.0905 7.99692 33.5033 6.66016C32.3932 8.17566 31.6961 8.84192 30.2905 9.45434Z" fill="white"/>
<path d="M4.84719 47.344H7.31119L9.16719 55.008L11.0712 47.408L14.0632 47.184L16.0792 55.232L17.9512 47.344H20.2392L17.3592 58H14.5592L12.4952 49.568L10.3512 58H7.58319L4.84719 47.344ZM21.7666 46.32H24.0226V50.96C24.3532 50.4693 24.7319 50.112 25.1586 49.888C25.5852 49.6533 26.0759 49.536 26.6306 49.536C27.5159 49.536 28.2092 49.8027 28.7106 50.336C29.2119 50.8587 29.4626 51.5893 29.4626 52.528V58H27.2066V52.88C27.2066 52.4533 27.0999 52.1227 26.8866 51.888C26.6732 51.6427 26.3852 51.52 26.0226 51.52C25.6279 51.52 25.2492 51.6587 24.8866 51.936C24.5346 52.2027 24.2466 52.56 24.0226 53.008V58H21.7666V46.32ZM33.9318 58.24C33.0785 58.24 32.4011 57.8773 31.8998 57.152C31.3985 56.4267 31.1478 55.44 31.1478 54.192C31.1478 52.6773 31.5318 51.5253 32.2998 50.736C33.0678 49.936 34.1718 49.536 35.6118 49.536C36.4225 49.536 37.3718 49.664 38.4598 49.92V58H36.3158L36.3638 56.688H36.2998C36.0225 57.1893 35.6811 57.5733 35.2758 57.84C34.8811 58.1067 34.4331 58.24 33.9318 58.24ZM34.4118 56.272C34.7425 56.272 35.0678 56.096 35.3878 55.744C35.7078 55.392 36.0065 54.9227 36.2838 54.336V51.648C35.9425 51.552 35.6011 51.504 35.2598 51.504C34.6198 51.504 34.1345 51.7227 33.8038 52.16C33.4838 52.5973 33.3238 53.2427 33.3238 54.096C33.3238 54.768 33.4198 55.3013 33.6118 55.696C33.8038 56.08 34.0705 56.272 34.4118 56.272ZM40.0079 56.064H41.4639V48.24H40.0879V46.32H43.7199V56.064H45.1759V58H40.0079V56.064ZM50.3577 58.24C49.0244 58.24 47.9737 57.856 47.2057 57.088C46.4484 56.32 46.0697 55.2533 46.0697 53.888C46.0697 53.0027 46.235 52.2347 46.5657 51.584C46.8964 50.9227 47.3604 50.416 47.9577 50.064C48.5657 49.712 49.275 49.536 50.0857 49.536C51.2804 49.536 52.1977 49.92 52.8377 50.688C53.4777 51.456 53.7977 52.5653 53.7977 54.016C53.7977 54.2613 53.7924 54.4427 53.7817 54.56H48.3417C48.4484 55.1253 48.6937 55.5573 49.0777 55.856C49.4617 56.144 49.979 56.288 50.6297 56.288C51.0244 56.288 51.435 56.24 51.8617 56.144C52.2884 56.0373 52.6617 55.8987 52.9817 55.728L53.3497 57.536C52.923 57.76 52.4484 57.9307 51.9257 58.048C51.4137 58.176 50.891 58.24 50.3577 58.24ZM51.6377 52.864C51.6057 52.4053 51.4457 52.0427 51.1577 51.776C50.8697 51.4987 50.4857 51.36 50.0057 51.36C49.547 51.36 49.1684 51.4933 48.8697 51.76C48.5817 52.0267 48.4004 52.3947 48.3257 52.864H51.6377ZM58.7684 47.344H65.2484V49.36H61.0564V51.488H64.5284V53.44H61.0564V55.984H65.2484V58H58.7684V47.344ZM69.4363 58.24C68.5083 58.24 67.7776 57.888 67.2443 57.184C66.7216 56.4693 66.4603 55.4773 66.4603 54.208C66.4603 52.704 66.8496 51.552 67.6283 50.752C68.4176 49.9413 69.5376 49.536 70.9883 49.536C71.1696 49.536 71.4416 49.5467 71.8043 49.568V46.32H74.0283V58H71.8363L71.8843 56.928H71.8203C71.543 57.3547 71.2016 57.68 70.7963 57.904C70.4016 58.128 69.9483 58.24 69.4363 58.24ZM69.9483 56.272C70.2896 56.272 70.6203 56.128 70.9403 55.84C71.2603 55.5413 71.5483 55.12 71.8043 54.576V51.648C71.4416 51.552 71.095 51.504 70.7643 51.504C70.0923 51.504 69.5803 51.7227 69.2283 52.16C68.887 52.5973 68.7163 53.2373 68.7163 54.08C68.7163 54.7627 68.823 55.3013 69.0363 55.696C69.2603 56.08 69.5643 56.272 69.9483 56.272ZM78.8307 58.224C77.956 58.224 77.268 57.9573 76.7667 57.424C76.2654 56.8907 76.0147 56.16 76.0147 55.232V49.76H78.2707V54.864C78.2707 55.3013 78.3774 55.6427 78.5907 55.888C78.804 56.1227 79.092 56.24 79.4547 56.24C79.8174 56.24 80.164 56.1227 80.4947 55.888C80.836 55.6533 81.1187 55.3387 81.3427 54.944V49.76H83.5987V58H81.3427V56.912C81.0334 57.328 80.676 57.6533 80.2707 57.888C79.876 58.112 79.396 58.224 78.8307 58.224Z" fill="#384999"/>
</svg>
