<svg width="140" height="30" viewBox="0 0 140 30" fill="none" xmlns="http://www.w3.org/2000/svg">
<path fill-rule="evenodd" clip-rule="evenodd" d="M29.2461 1.923C29.3376 2.0029 29.4211 2.10068 29.4947 2.2186C30.3044 3.51611 29.1122 7.33913 28.3936 7.92564C28.1755 8.10365 28.2184 7.99029 28.334 7.68467C28.4105 7.48239 28.5189 7.19589 28.6045 6.8539C28.8157 6.01015 28.7919 5.05873 28.6045 4.14773C27.9198 3.05052 27.8067 3.00428 26.6832 2.78932C26.25 2.78886 25.7795 2.85914 25.2778 3.04922C21.4592 4.49607 21.1781 4.12096 20.8032 2.83486C20.8032 1.2959 22.6071 -0.299983 25.2778 0.0483298C27.3615 0.546626 28.5109 0.838127 29.2461 1.923Z" fill="#384999"/>
<path d="M23.0765 0.710254C23.913 0.419437 24.3051 0.462318 24.9741 0.576286C24.2065 0.568151 24.0002 0.669515 23.217 1.08536C23.217 1.08536 22.2021 1.57632 22.0222 2.21069C21.9683 2.73808 22.4267 2.47771 22.4205 2.82694C22.4143 3.17618 22.1766 3.3675 22.0925 3.38961C21.6772 3.45268 21.5794 3.35365 21.3428 3.0145C21.1981 2.58661 21.2237 2.35962 21.4131 1.96955C21.7376 1.52214 22.1653 1.02342 23.0765 0.710254Z" fill="#8BADD3"/>
<path d="M11.1981 14.7365C10.5771 14.1867 10.4297 13.5056 10.917 12.459C11.9066 10.8055 12.4225 9.81655 13.2831 7.95768C13.6334 5.99306 13.4675 4.89692 12.8146 2.94728C11.9135 4.51993 11.2398 5.30979 9.51138 6.43045C7.72628 7.69053 7.53946 9.76106 7.5435 9.75284C7.54755 9.74462 6.2546 8.7516 5.50535 8.54712C4.75611 8.34264 2.08377 8.76901 0 7.79692C0.302261 8.70909 0.422256 9.0526 0.819946 10.2887C1.64428 12.3272 3.79518 13.4772 3.79518 13.4772C3.79518 13.4772 6.7721 14.3634 7.5435 15.5403L7.56677 15.5758C8.31627 16.7191 8.38279 16.8205 8.50401 17.9785C8.72105 19.3182 9.22034 20.0135 9.83935 21.1937C11.1105 22.5767 11.4533 22.9432 12.5803 23.364C14.759 24.5161 15.6709 24.8829 17.7577 25.4807L19.7724 26.0433C22.7639 27.0585 23.932 27.1627 26.316 27.3753L26.4023 27.383C29.9831 27.4285 31.989 26.087 32.3527 25.695C33.3609 24.7058 33.859 23.7117 34.2738 22.319C34.8779 20.5542 35.0012 19.5718 35 17.3086C34.9661 15.422 35.0033 14.4464 34.1332 12.6198C33.3702 11.421 33.0853 10.7504 30.8768 9.75284C28.9855 9.39357 27.8701 9.04076 25.2309 9.53851C23.0919 10.0525 22.2751 10.3131 20.1473 11.2533C17.6116 12.1336 17.2111 13.1545 13.2831 14.7365C11.9362 15.0988 11.5857 15.1247 11.1981 14.7365Z" fill="#384999"/>
<path d="M16.4692 14.3132C15.4917 14.8773 15.0029 15.0997 14.1499 15.5993C15.4222 15.0051 16.1412 14.7151 17.3828 14.1792C18.6947 13.5362 19.5147 13.3486 20.9672 12.652C22.6305 12.0357 23.2396 11.7678 24.9029 11.3659C26.2851 11.1783 26.4959 10.9372 27.9953 10.8568C28.9781 10.8041 29.0495 10.964 29.9163 10.7496C29.2475 10.5883 29.0526 10.3575 27.9953 10.4013C26.5899 10.4404 26.2218 10.5719 25.348 10.7496C23.983 11.0128 23.4964 11.1781 22.6305 11.4731C21.1687 11.957 20.171 12.474 20.1707 12.518C20.1703 12.562 16.7491 14.1737 16.4692 14.3132Z" fill="white"/>
<path d="M13.9391 20.7918C11.8529 20.688 10.1563 20.1544 9.55823 19.077C9.81168 20.3725 10.6108 21.1415 13.5408 22.6138L17.7811 24.3554C20.6825 25.5664 22.3578 26.1167 25.6526 26.2845C27.5618 26.3957 28.5709 26.3696 30.01 25.8022C30.01 25.8022 33.0321 24.8644 33.2429 23.23C33.4538 21.5956 32.6572 21.1669 31.767 22.3994C30.8768 23.6319 29.1629 24.2335 26.4022 24.3554C23.6756 24.1841 22.1446 24.1078 19.5381 22.9353L13.9391 20.7918Z" fill="#8BADD3"/>
<path d="M23.7082 19.462C23.642 19.7826 23.4624 20.0138 22.9136 20.0952C22.3152 20.0952 21.9746 19.7492 21.9746 19.32C22.0275 18.9232 22.3709 18.575 22.9136 18.5411C23.4913 18.6197 23.6942 19.086 23.7082 19.462Z" fill="white"/>
<ellipse cx="22.771" cy="19.6933" rx="0.515394" ry="0.509078" fill="#4F515E"/>
<path d="M19.2336 22.6405C17.884 22.8289 14.8762 27.7849 13.9626 27.8921C13.4706 27.9498 13.1987 27.8587 13.166 27.4902C13.1233 27.0079 13.0973 26.7625 13.166 25.8826C13.4445 22.3147 13.935 23.8016 13.6572 23.2199C15.257 20.2974 11.9337 18.0085 13.7176 18.9197C15.5014 19.8309 24.0697 21.9656 19.2336 22.6405Z" fill="#384999"/>
<path d="M19.2336 22.6405C17.884 22.8289 14.8762 27.7849 13.9626 27.8921C13.4706 27.9498 13.1987 27.8587 13.166 27.4902C13.1233 27.0079 13.0973 26.7625 13.166 25.8826C13.4445 22.3147 13.935 23.8016 13.6572 23.2199C15.257 20.2974 11.9337 18.0085 13.7176 18.9197C15.5014 19.8309 24.0697 21.9656 19.2336 22.6405Z" fill="#384999"/>
<path d="M16.518 24.555C15.2423 26.6128 14.0822 27.6816 13.7003 27.3719C13.5439 27.2451 13.5643 26.9163 13.7411 26.0123C14.0324 25.0127 13.6523 27.073 14.2896 26.4397C16.1115 24.9549 17.4405 23.0504 18.275 22.2239C17.7362 23.0813 17.9939 22.5723 16.518 24.555Z" fill="#8BADD3"/>
<path d="M7.9781 15.0848C6.68961 12.7538 3.57381 12.593 2.82415 12.084C2.07448 11.5749 1.09813 10.3005 1.30139 9.37781C1.60594 10.1012 2.19162 10.9854 3.87837 11.6017C4.40752 11.795 5.5034 12.0009 6.17421 12.4591C7.32214 13.5308 7.83753 14.3078 7.9781 15.0848Z" fill="#8BADD3"/>
<path d="M10.0034 6.61804C9.01947 7.04673 8.65852 8.12114 8.05896 9.32419C8.63564 8.54058 8.99604 8.0113 9.58172 7.55581C10.1674 7.10032 10.6828 6.89328 10.9873 6.67162C11.2919 6.44997 11.9634 5.59784 12.2524 4.66211C11.4753 5.72296 10.9873 6.18934 10.0034 6.61804Z" fill="white"/>
<path d="M39.48 4.344H41.944L43.8 12.008L45.704 4.408L48.696 4.184L50.712 12.232L52.584 4.344H54.872L51.992 15H49.192L47.128 6.568L44.984 15H42.216L39.48 4.344ZM56.3994 3.32H58.6554V7.96C58.986 7.46933 59.3647 7.112 59.7914 6.888C60.218 6.65333 60.7087 6.536 61.2634 6.536C62.1487 6.536 62.842 6.80267 63.3434 7.336C63.8447 7.85867 64.0954 8.58933 64.0954 9.528V15H61.8394V9.88C61.8394 9.45333 61.7327 9.12267 61.5194 8.888C61.306 8.64267 61.018 8.52 60.6554 8.52C60.2607 8.52 59.882 8.65867 59.5194 8.936C59.1674 9.20267 58.8794 9.56 58.6554 10.008V15H56.3994V3.32ZM68.5646 15.24C67.7113 15.24 67.034 14.8773 66.5326 14.152C66.0313 13.4267 65.7806 12.44 65.7806 11.192C65.7806 9.67733 66.1646 8.52533 66.9326 7.736C67.7006 6.936 68.8046 6.536 70.2446 6.536C71.0553 6.536 72.0046 6.664 73.0926 6.92V15H70.9486L70.9966 13.688H70.9326C70.6553 14.1893 70.314 14.5733 69.9086 14.84C69.514 15.1067 69.066 15.24 68.5646 15.24ZM69.0446 13.272C69.3753 13.272 69.7006 13.096 70.0206 12.744C70.3406 12.392 70.6393 11.9227 70.9166 11.336V8.648C70.5753 8.552 70.234 8.504 69.8926 8.504C69.2526 8.504 68.7673 8.72267 68.4366 9.16C68.1166 9.59733 67.9566 10.2427 67.9566 11.096C67.9566 11.768 68.0526 12.3013 68.2446 12.696C68.4366 13.08 68.7033 13.272 69.0446 13.272ZM74.6408 13.064H76.0968V5.24H74.7208V3.32H78.3528V13.064H79.8088V15H74.6408V13.064ZM84.9905 15.24C83.6572 15.24 82.6065 14.856 81.8385 14.088C81.0812 13.32 80.7025 12.2533 80.7025 10.888C80.7025 10.0027 80.8678 9.23467 81.1985 8.584C81.5292 7.92267 81.9932 7.416 82.5905 7.064C83.1985 6.712 83.9078 6.536 84.7185 6.536C85.9132 6.536 86.8305 6.92 87.4705 7.688C88.1105 8.456 88.4305 9.56533 88.4305 11.016C88.4305 11.2613 88.4252 11.4427 88.4145 11.56H82.9745C83.0812 12.1253 83.3265 12.5573 83.7105 12.856C84.0945 13.144 84.6118 13.288 85.2625 13.288C85.6572 13.288 86.0678 13.24 86.4945 13.144C86.9212 13.0373 87.2945 12.8987 87.6145 12.728L87.9825 14.536C87.5558 14.76 87.0812 14.9307 86.5585 15.048C86.0465 15.176 85.5238 15.24 84.9905 15.24ZM86.2705 9.864C86.2385 9.40533 86.0785 9.04267 85.7905 8.776C85.5025 8.49867 85.1185 8.36 84.6385 8.36C84.1798 8.36 83.8012 8.49333 83.5025 8.76C83.2145 9.02667 83.0332 9.39467 82.9585 9.864H86.2705Z" fill="#384999"/>
<path d="M39.9492 28V19.4102H46.1602V20.4238H41.0859V23.0547H45.8379V24.0625H41.0859V26.9863H46.3594V28H39.9492ZM51.832 28V27.2148C51.4375 27.832 50.8574 28.1406 50.0918 28.1406C49.5957 28.1406 49.1387 28.0039 48.7207 27.7305C48.3066 27.457 47.9844 27.0762 47.7539 26.5879C47.5273 26.0957 47.4141 25.5312 47.4141 24.8945C47.4141 24.2734 47.5176 23.7109 47.7246 23.207C47.9316 22.6992 48.2422 22.3105 48.6562 22.041C49.0703 21.7715 49.5332 21.6367 50.0449 21.6367C50.4199 21.6367 50.7539 21.7168 51.0469 21.877C51.3398 22.0332 51.5781 22.2383 51.7617 22.4922V19.4102H52.8105V28H51.832ZM48.498 24.8945C48.498 25.6914 48.666 26.2871 49.002 26.6816C49.3379 27.0762 49.7344 27.2734 50.1914 27.2734C50.6523 27.2734 51.043 27.0859 51.3633 26.7109C51.6875 26.332 51.8496 25.7559 51.8496 24.9824C51.8496 24.1309 51.6855 23.5059 51.3574 23.1074C51.0293 22.709 50.625 22.5098 50.1445 22.5098C49.6758 22.5098 49.2832 22.7012 48.9668 23.084C48.6543 23.4668 48.498 24.0703 48.498 24.8945ZM58.5527 28V27.0859C58.0684 27.7891 57.4102 28.1406 56.5781 28.1406C56.2109 28.1406 55.8672 28.0703 55.5469 27.9297C55.2305 27.7891 54.9941 27.6133 54.8379 27.4023C54.6855 27.1875 54.5781 26.9258 54.5156 26.6172C54.4727 26.4102 54.4512 26.082 54.4512 25.6328V21.7773H55.5059V25.2285C55.5059 25.7793 55.5273 26.1504 55.5703 26.3418C55.6367 26.6191 55.7773 26.8379 55.9922 26.998C56.207 27.1543 56.4727 27.2324 56.7891 27.2324C57.1055 27.2324 57.4023 27.1523 57.6797 26.9922C57.957 26.8281 58.1523 26.6074 58.2656 26.3301C58.3828 26.0488 58.4414 25.6426 58.4414 25.1113V21.7773H59.4961V28H58.5527ZM65.2148 25.7207L66.252 25.8555C66.1387 26.5703 65.8477 27.1309 65.3789 27.5371C64.9141 27.9395 64.3418 28.1406 63.6621 28.1406C62.8105 28.1406 62.125 27.8633 61.6055 27.3086C61.0898 26.75 60.832 25.9512 60.832 24.9121C60.832 24.2402 60.9434 23.6523 61.166 23.1484C61.3887 22.6445 61.7266 22.2676 62.1797 22.0176C62.6367 21.7637 63.1328 21.6367 63.668 21.6367C64.3438 21.6367 64.8965 21.8086 65.3262 22.1523C65.7559 22.4922 66.0312 22.9766 66.1523 23.6055L65.127 23.7637C65.0293 23.3457 64.8555 23.0312 64.6055 22.8203C64.3594 22.6094 64.0605 22.5039 63.709 22.5039C63.1777 22.5039 62.7461 22.6953 62.4141 23.0781C62.082 23.457 61.916 24.0586 61.916 24.8828C61.916 25.7188 62.0762 26.3262 62.3965 26.7051C62.7168 27.084 63.1348 27.2734 63.6504 27.2734C64.0645 27.2734 64.4102 27.1465 64.6875 26.8926C64.9648 26.6387 65.1406 26.248 65.2148 25.7207ZM71.2148 27.2324C70.8242 27.5645 70.4473 27.7988 70.084 27.9355C69.7246 28.0723 69.3379 28.1406 68.9238 28.1406C68.2402 28.1406 67.7148 27.9746 67.3477 27.6426C66.9805 27.3066 66.7969 26.8789 66.7969 26.3594C66.7969 26.0547 66.8652 25.7773 67.002 25.5273C67.1426 25.2734 67.3242 25.0703 67.5469 24.918C67.7734 24.7656 68.0273 24.6504 68.3086 24.5723C68.5156 24.5176 68.8281 24.4648 69.2461 24.4141C70.0977 24.3125 70.7246 24.1914 71.127 24.0508C71.1309 23.9062 71.1328 23.8145 71.1328 23.7754C71.1328 23.3457 71.0332 23.043 70.834 22.8672C70.5645 22.6289 70.1641 22.5098 69.6328 22.5098C69.1367 22.5098 68.7695 22.5977 68.5312 22.7734C68.2969 22.9453 68.123 23.252 68.0098 23.6934L66.9785 23.5527C67.0723 23.1113 67.2266 22.7559 67.4414 22.4863C67.6562 22.2129 67.9668 22.0039 68.373 21.8594C68.7793 21.7109 69.25 21.6367 69.7852 21.6367C70.3164 21.6367 70.748 21.6992 71.0801 21.8242C71.4121 21.9492 71.6562 22.1074 71.8125 22.2988C71.9688 22.4863 72.0781 22.7246 72.1406 23.0137C72.1758 23.1934 72.1934 23.5176 72.1934 23.9863V25.3926C72.1934 26.373 72.2148 26.9941 72.2578 27.2559C72.3047 27.5137 72.3945 27.7617 72.5273 28H71.4258C71.3164 27.7812 71.2461 27.5254 71.2148 27.2324ZM71.127 24.877C70.7441 25.0332 70.1699 25.166 69.4043 25.2754C68.9707 25.3379 68.6641 25.4082 68.4844 25.4863C68.3047 25.5645 68.166 25.6797 68.0684 25.832C67.9707 25.9805 67.9219 26.1465 67.9219 26.3301C67.9219 26.6113 68.0273 26.8457 68.2383 27.0332C68.4531 27.2207 68.7656 27.3145 69.1758 27.3145C69.582 27.3145 69.9434 27.2266 70.2598 27.0508C70.5762 26.8711 70.8086 26.627 70.957 26.3184C71.0703 26.0801 71.127 25.7285 71.127 25.2637V24.877ZM76.1367 27.0566L76.2891 27.9883C75.9922 28.0508 75.7266 28.082 75.4922 28.082C75.1094 28.082 74.8125 28.0215 74.6016 27.9004C74.3906 27.7793 74.2422 27.6211 74.1562 27.4258C74.0703 27.2266 74.0273 26.8105 74.0273 26.1777V22.5977H73.2539V21.7773H74.0273V20.2363L75.0762 19.6035V21.7773H76.1367V22.5977H75.0762V26.2363C75.0762 26.5371 75.0938 26.7305 75.1289 26.8164C75.168 26.9023 75.2285 26.9707 75.3105 27.0215C75.3965 27.0723 75.5176 27.0977 75.6738 27.0977C75.791 27.0977 75.9453 27.084 76.1367 27.0566ZM77.1797 20.623V19.4102H78.2344V20.623H77.1797ZM77.1797 28V21.7773H78.2344V28H77.1797ZM79.4531 24.8887C79.4531 23.7363 79.7734 22.8828 80.4141 22.3281C80.9492 21.8672 81.6016 21.6367 82.3711 21.6367C83.2266 21.6367 83.9258 21.918 84.4688 22.4805C85.0117 23.0391 85.2832 23.8125 85.2832 24.8008C85.2832 25.6016 85.1621 26.2324 84.9199 26.6934C84.6816 27.1504 84.332 27.5059 83.8711 27.7598C83.4141 28.0137 82.9141 28.1406 82.3711 28.1406C81.5 28.1406 80.7949 27.8613 80.2559 27.3027C79.7207 26.7441 79.4531 25.9395 79.4531 24.8887ZM80.5371 24.8887C80.5371 25.6855 80.7109 26.2832 81.0586 26.6816C81.4062 27.0762 81.8438 27.2734 82.3711 27.2734C82.8945 27.2734 83.3301 27.0742 83.6777 26.6758C84.0254 26.2773 84.1992 25.6699 84.1992 24.8535C84.1992 24.084 84.0234 23.502 83.6719 23.1074C83.3242 22.709 82.8906 22.5098 82.3711 22.5098C81.8438 22.5098 81.4062 22.707 81.0586 23.1016C80.7109 23.4961 80.5371 24.0918 80.5371 24.8887ZM86.5254 28V21.7773H87.4746V22.6621C87.9316 21.9785 88.5918 21.6367 89.4551 21.6367C89.8301 21.6367 90.1738 21.7051 90.4863 21.8418C90.8027 21.9746 91.0391 22.1504 91.1953 22.3691C91.3516 22.5879 91.4609 22.8477 91.5234 23.1484C91.5625 23.3438 91.582 23.6855 91.582 24.1738V28H90.5273V24.2148C90.5273 23.7852 90.4863 23.4648 90.4043 23.2539C90.3223 23.0391 90.1758 22.8691 89.9648 22.7441C89.7578 22.6152 89.5137 22.5508 89.2324 22.5508C88.7832 22.5508 88.3945 22.6934 88.0664 22.9785C87.7422 23.2637 87.5801 23.8047 87.5801 24.6016V28H86.5254Z" fill="#8BADD3"/>
</svg>
