<svg width="104" height="70" viewBox="0 0 104 70" fill="none" xmlns="http://www.w3.org/2000/svg">
<circle cx="52" cy="35" r="35" fill="#8BADD3"/>
<path fill-rule="evenodd" clip-rule="evenodd" d="M60.2461 13.923C60.3376 14.0029 60.4211 14.1007 60.4947 14.2186C61.3044 15.5161 60.1122 19.3391 59.3936 19.9257C59.1755 20.1037 59.2184 19.9903 59.334 19.6847C59.4105 19.4824 59.5189 19.1959 59.6045 18.8539C59.8157 18.0102 59.7919 17.0588 59.6045 16.1478C58.9198 15.0505 58.8067 15.0043 57.6832 14.7893C57.25 14.7889 56.7795 14.8592 56.2778 15.0492C52.4592 16.4961 52.1781 16.121 51.8032 14.8349C51.8032 13.2959 53.6071 11.7 56.2778 12.0483C58.3615 12.5466 59.5109 12.8381 60.2461 13.923Z" fill="#384999"/>
<path d="M54.0765 12.7103C54.913 12.4194 55.3051 12.4623 55.9741 12.5763C55.2065 12.5682 55.0002 12.6695 54.217 13.0854C54.217 13.0854 53.2021 13.5763 53.0222 14.2107C52.9683 14.7381 53.4267 14.4777 53.4205 14.8269C53.4143 15.1762 53.1766 15.3675 53.0925 15.3896C52.6772 15.4527 52.5794 15.3537 52.3428 15.0145C52.1981 14.5866 52.2237 14.3596 52.4131 13.9696C52.7376 13.5221 53.1653 13.0234 54.0765 12.7103Z" fill="#8BADD3"/>
<path d="M42.1981 26.7365C41.5771 26.1867 41.4297 25.5056 41.917 24.459C42.9066 22.8055 43.4225 21.8166 44.2831 19.9577C44.6334 17.9931 44.4675 16.8969 43.8146 14.9473C42.9135 16.5199 42.2398 17.3098 40.5114 18.4305C38.7263 19.6905 38.5395 21.7611 38.5435 21.7528C38.5476 21.7446 37.2546 20.7516 36.5054 20.5471C35.7561 20.3426 33.0838 20.769 31 19.7969C31.3023 20.7091 31.4223 21.0526 31.8199 22.2887C32.6443 24.3272 34.7952 25.4772 34.7952 25.4772C34.7952 25.4772 37.7721 26.3634 38.5435 27.5403L38.5668 27.5758C39.3163 28.7191 39.3828 28.8205 39.504 29.9785C39.7211 31.3182 40.2203 32.0135 40.8394 33.1937C42.1105 34.5767 42.4533 34.9432 43.5803 35.364C45.759 36.5161 46.6709 36.8829 48.7577 37.4807L50.7724 38.0433C53.7639 39.0585 54.932 39.1627 57.316 39.3753L57.4023 39.383C60.9831 39.4285 62.989 38.087 63.3527 37.695C64.3609 36.7058 64.859 35.7117 65.2738 34.319C65.8779 32.5542 66.0012 31.5718 66 29.3086C65.9661 27.422 66.0033 26.4464 65.1332 24.6198C64.3702 23.421 64.0853 22.7504 61.8768 21.7528C59.9855 21.3936 58.8701 21.0408 56.2309 21.5385C54.0919 22.0525 53.2751 22.3131 51.1473 23.2533C48.6116 24.1336 48.2111 25.1545 44.2831 26.7365C42.9362 27.0988 42.5857 27.1247 42.1981 26.7365Z" fill="#384999"/>
<path d="M47.4692 26.3132C46.4917 26.8773 46.0029 27.0997 45.1499 27.5993C46.4222 27.0051 47.1412 26.7151 48.3828 26.1792C49.6947 25.5362 50.5147 25.3486 51.9672 24.652C53.6305 24.0357 54.2396 23.7678 55.9029 23.3659C57.2851 23.1783 57.4959 22.9372 58.9953 22.8568C59.9781 22.8041 60.0495 22.964 60.9163 22.7496C60.2475 22.5883 60.0526 22.3575 58.9953 22.4013C57.5899 22.4404 57.2218 22.5719 56.348 22.7496C54.983 23.0128 54.4964 23.1781 53.6305 23.4731C52.1687 23.957 51.171 24.474 51.1707 24.518C51.1703 24.562 47.7491 26.1737 47.4692 26.3132Z" fill="white"/>
<path d="M44.9391 32.7918C42.8529 32.688 41.1563 32.1544 40.5582 31.077C40.8117 32.3725 41.6108 33.1415 44.5408 34.6138L48.7811 36.3554C51.6825 37.5664 53.3578 38.1167 56.6526 38.2845C58.5618 38.3957 59.5709 38.3696 61.01 37.8022C61.01 37.8022 64.0321 36.8644 64.2429 35.23C64.4538 33.5956 63.6572 33.1669 62.767 34.3994C61.8768 35.6319 60.1629 36.2335 57.4022 36.3554C54.6756 36.1841 53.1446 36.1078 50.5381 34.9353L44.9391 32.7918Z" fill="#8BADD3"/>
<path d="M54.7082 31.462C54.642 31.7826 54.4624 32.0138 53.9136 32.0952C53.3152 32.0952 52.9746 31.7492 52.9746 31.32C53.0275 30.9232 53.3709 30.575 53.9136 30.5411C54.4913 30.6197 54.6942 31.086 54.7082 31.462Z" fill="white"/>
<ellipse cx="53.771" cy="31.6933" rx="0.515394" ry="0.509078" fill="#4F515E"/>
<path d="M50.2336 34.6405C48.884 34.8289 45.8762 39.7849 44.9626 39.8921C44.4706 39.9498 44.1987 39.8587 44.166 39.4902C44.1233 39.0079 44.0973 38.7625 44.166 37.8826C44.4445 34.3147 44.935 35.8016 44.6572 35.2199C46.257 32.2974 42.9337 30.0085 44.7176 30.9197C46.5014 31.8309 55.0697 33.9656 50.2336 34.6405Z" fill="#384999"/>
<path d="M50.2336 34.6405C48.884 34.8289 45.8762 39.7849 44.9626 39.8921C44.4706 39.9498 44.1987 39.8587 44.166 39.4902C44.1233 39.0079 44.0973 38.7625 44.166 37.8826C44.4445 34.3147 44.935 35.8016 44.6572 35.2199C46.257 32.2974 42.9337 30.0085 44.7176 30.9197C46.5014 31.8309 55.0697 33.9656 50.2336 34.6405Z" fill="#384999"/>
<path d="M47.518 36.555C46.2423 38.6128 45.0822 39.6816 44.7003 39.3719C44.5439 39.2451 44.5643 38.9163 44.7411 38.0123C45.0324 37.0127 44.6523 39.073 45.2896 38.4397C47.1115 36.9549 48.4405 35.0504 49.275 34.2239C48.7362 35.0813 48.9939 34.5723 47.518 36.555Z" fill="#8BADD3"/>
<path d="M38.9781 27.0848C37.6896 24.7538 34.5738 24.593 33.8241 24.084C33.0745 23.5749 32.0981 22.3005 32.3014 21.3778C32.6059 22.1012 33.1916 22.9854 34.8784 23.6017C35.4075 23.795 36.5034 24.0009 37.1742 24.4591C38.3221 25.5308 38.8375 26.3078 38.9781 27.0848Z" fill="#8BADD3"/>
<path d="M41.0034 18.618C40.0195 19.0467 39.6585 20.1211 39.059 21.3242C39.6356 20.5406 39.996 20.0113 40.5817 19.5558C41.1674 19.1003 41.6828 18.8933 41.9873 18.6716C42.2919 18.45 42.9634 17.5978 43.2524 16.6621C42.4753 17.723 41.9873 18.1893 41.0034 18.618Z" fill="white"/>
<path d="M24.3166 46.008H29.1766V47.52H26.0326V49.116H28.6366V50.58H26.0326V52.488H29.1766V54H24.3166V46.008ZM32.3175 54.18C31.6215 54.18 31.0735 53.916 30.6735 53.388C30.2815 52.852 30.0855 52.108 30.0855 51.156C30.0855 50.028 30.3775 49.164 30.9615 48.564C31.5535 47.956 32.3935 47.652 33.4815 47.652C33.6175 47.652 33.8215 47.66 34.0935 47.676V45.24H35.7615V54H34.1175L34.1535 53.196H34.1055C33.8975 53.516 33.6415 53.76 33.3375 53.928C33.0415 54.096 32.7015 54.18 32.3175 54.18ZM32.7015 52.704C32.9575 52.704 33.2055 52.596 33.4455 52.38C33.6855 52.156 33.9015 51.84 34.0935 51.432V49.236C33.8215 49.164 33.5615 49.128 33.3135 49.128C32.8095 49.128 32.4255 49.292 32.1615 49.62C31.9055 49.948 31.7775 50.428 31.7775 51.06C31.7775 51.572 31.8575 51.976 32.0175 52.272C32.1855 52.56 32.4135 52.704 32.7015 52.704ZM39.3633 54.168C38.7073 54.168 38.1913 53.968 37.8153 53.568C37.4393 53.168 37.2513 52.62 37.2513 51.924V47.82H38.9433V51.648C38.9433 51.976 39.0233 52.232 39.1833 52.416C39.3433 52.592 39.5593 52.68 39.8313 52.68C40.1033 52.68 40.3633 52.592 40.6113 52.416C40.8673 52.24 41.0793 52.004 41.2473 51.708V47.82H42.9393V54H41.2473V53.184C41.0153 53.496 40.7473 53.74 40.4433 53.916C40.1473 54.084 39.7873 54.168 39.3633 54.168ZM47.3748 54.18C46.3508 54.18 45.5548 53.908 44.9868 53.364C44.4268 52.82 44.1468 52.052 44.1468 51.06C44.1468 50.388 44.2788 49.796 44.5428 49.284C44.8068 48.764 45.1788 48.364 45.6588 48.084C46.1388 47.796 46.6948 47.652 47.3268 47.652C47.6228 47.652 47.9308 47.688 48.2508 47.76C48.5788 47.824 48.8308 47.9 49.0068 47.988L48.6828 49.416C48.4988 49.328 48.2948 49.26 48.0708 49.212C47.8548 49.156 47.6508 49.128 47.4588 49.128C46.9628 49.128 46.5628 49.296 46.2588 49.632C45.9628 49.968 45.8148 50.412 45.8148 50.964C45.8148 51.524 45.9668 51.956 46.2708 52.26C46.5828 52.564 47.0228 52.716 47.5908 52.716C47.9668 52.716 48.3708 52.644 48.8028 52.5L49.0548 53.868C48.5348 54.076 47.9748 54.18 47.3748 54.18ZM51.9899 54.18C51.3499 54.18 50.8419 53.908 50.4659 53.364C50.0899 52.82 49.9019 52.08 49.9019 51.144C49.9019 50.008 50.1899 49.144 50.7659 48.552C51.3419 47.952 52.1699 47.652 53.2499 47.652C53.8579 47.652 54.5699 47.748 55.3859 47.94V54H53.7779L53.8139 53.016H53.7659C53.5579 53.392 53.3019 53.68 52.9979 53.88C52.7019 54.08 52.3659 54.18 51.9899 54.18ZM52.3499 52.704C52.5979 52.704 52.8419 52.572 53.0819 52.308C53.3219 52.044 53.5459 51.692 53.7539 51.252V49.236C53.4979 49.164 53.2419 49.128 52.9859 49.128C52.5059 49.128 52.1419 49.292 51.8939 49.62C51.6539 49.948 51.5339 50.432 51.5339 51.072C51.5339 51.576 51.6059 51.976 51.7499 52.272C51.8939 52.56 52.0939 52.704 52.3499 52.704ZM59.2668 54.18C58.6908 54.18 58.2428 54.036 57.9228 53.748C57.6108 53.452 57.4548 53.036 57.4548 52.5V49.272H56.4948V47.82H57.4548V46.5C58.0228 46.404 58.5828 46.332 59.1348 46.284V47.82H60.6948V49.272H59.1348V52.188C59.1348 52.356 59.1828 52.484 59.2788 52.572C59.3828 52.66 59.5268 52.704 59.7108 52.704C59.9348 52.704 60.1908 52.652 60.4788 52.548L60.8508 53.82C60.3388 54.06 59.8108 54.18 59.2668 54.18ZM62.7695 45.24H64.7015V46.8H62.7695V45.24ZM61.8335 52.548H62.9855V49.272H61.8335V47.82H64.6775V52.548H65.7095V54H61.8335V52.548ZM69.5696 54.18C68.9456 54.18 68.3936 54.044 67.9136 53.772C67.4416 53.5 67.0736 53.12 66.8096 52.632C66.5456 52.136 66.4136 51.564 66.4136 50.916C66.4136 50.268 66.5416 49.7 66.7976 49.212C67.0616 48.716 67.4296 48.332 67.9016 48.06C68.3816 47.788 68.9336 47.652 69.5576 47.652C70.1816 47.652 70.7296 47.788 71.2016 48.06C71.6816 48.324 72.0496 48.7 72.3056 49.188C72.5696 49.676 72.7016 50.24 72.7016 50.88C72.7016 51.528 72.5696 52.104 72.3056 52.608C72.0496 53.104 71.6816 53.492 71.2016 53.772C70.7296 54.044 70.1856 54.18 69.5696 54.18ZM69.5576 52.716C69.9896 52.716 70.3336 52.552 70.5896 52.224C70.8536 51.888 70.9856 51.448 70.9856 50.904C70.9856 50.36 70.8536 49.928 70.5896 49.608C70.3336 49.28 69.9896 49.116 69.5576 49.116C69.1256 49.116 68.7776 49.28 68.5136 49.608C68.2576 49.928 68.1296 50.36 68.1296 50.904C68.1296 51.448 68.2576 51.888 68.5136 52.224C68.7776 52.552 69.1256 52.716 69.5576 52.716ZM73.9558 47.82H75.6118V48.888C75.8678 48.464 76.1638 48.152 76.4998 47.952C76.8358 47.752 77.2278 47.652 77.6758 47.652C78.3398 47.652 78.8598 47.852 79.2358 48.252C79.6118 48.644 79.7998 49.192 79.7998 49.896V54H78.1078V50.16C78.1078 49.84 78.0278 49.592 77.8678 49.416C77.7078 49.232 77.4918 49.14 77.2198 49.14C76.8998 49.14 76.5958 49.26 76.3078 49.5C76.0198 49.74 75.7998 50.044 75.6478 50.412V54H73.9558V47.82Z" fill="white" fill-opacity="0.89"/>
</svg>
