<svg width="144" height="24" viewBox="0 0 144 24" fill="none" xmlns="http://www.w3.org/2000/svg">
<path d="M5.63672 23.293C4.99219 23.293 4.4209 23.1367 3.92285 22.8242C3.4248 23.1367 2.96094 23.293 2.53125 23.293C2.11133 23.293 1.76465 23.2539 1.49121 23.1758C1.21777 23.1074 0.978516 23.0098 0.773438 22.8828C0.353516 22.6289 0.143555 22.3115 0.143555 21.9307C0.143555 21.7354 0.197266 21.5645 0.304688 21.418C0.519531 21.584 0.792969 21.667 1.125 21.667C1.99414 21.667 2.59473 21.2959 2.92676 20.5537V13.3906C2.92676 12.9512 2.83398 12.6143 2.64844 12.3799C2.35547 11.999 1.85254 11.6377 1.13965 11.2959C1.79395 10.9932 2.22363 10.7295 2.42871 10.5049C2.76074 10.124 2.92676 9.69922 2.92676 9.23047V3.04883C2.59473 2.29688 1.99414 1.9209 1.125 1.9209C0.792969 1.9209 0.519531 2.00391 0.304688 2.16992C0.197266 2.02344 0.143555 1.85742 0.143555 1.67188C0.143555 1.47656 0.197266 1.2959 0.304688 1.12988C0.421875 0.963867 0.578125 0.822266 0.773438 0.705078C1.22266 0.431641 1.73535 0.294922 2.31152 0.294922C2.89746 0.294922 3.43457 0.456055 3.92285 0.77832C4.43066 0.456055 4.99707 0.294922 5.62207 0.294922C6.30566 0.294922 6.90137 0.475586 7.40918 0.836914C8.49316 0.37793 9.57227 0.148438 10.6465 0.148438C11.7207 0.148438 12.6973 0.255859 13.5762 0.470703C14.4648 0.675781 15.2656 0.96875 15.9785 1.34961C17.5312 2.16992 18.498 3.23438 18.8789 4.54297C19.0938 5.26562 19.5576 5.80273 20.2705 6.1543C19.4795 6.70117 18.9912 7.32617 18.8057 8.0293C18.3955 9.57227 17.5654 10.5781 16.3154 11.0469C18.1514 11.5547 19.3477 12.7559 19.9043 14.6504C20.0996 15.3242 20.5635 15.876 21.2959 16.3057C20.5439 16.7256 20.041 17.3604 19.7871 18.21C19.5332 19.0596 19.084 19.8262 18.4395 20.5098C17.8047 21.1836 17.0625 21.7402 16.2129 22.1797C14.5723 23.0195 12.7217 23.4395 10.6611 23.4395C9.43066 23.4395 8.33203 23.2197 7.36523 22.7803C6.85742 23.1221 6.28125 23.293 5.63672 23.293ZM11.0566 10.3438C11.916 10.3438 12.5264 10.1387 12.8877 9.72852C13.2686 9.30859 13.459 8.58594 13.459 7.56055V4.17676C13.459 3.58105 13.1465 3.07812 12.5215 2.66797C11.9746 2.30664 11.4668 2.12598 10.998 2.12598C10.5391 2.12598 10.1582 2.18457 9.85547 2.30176C9.5625 2.40918 9.29883 2.56055 9.06445 2.75586C8.56641 3.16602 8.31738 3.65918 8.31738 4.23535V10.3438H11.0566ZM14.2939 2.46289C14.626 3.20508 14.792 4.28906 14.792 5.71484C14.792 7.81445 14.6553 9.17676 14.3818 9.80176C14.792 9.72363 15.1387 9.32812 15.4219 8.61523C15.5293 8.35156 15.6074 8.07324 15.6562 7.78027C15.7148 7.4873 15.7588 7.2627 15.7881 7.10645C15.8271 6.94043 15.8809 6.79883 15.9492 6.68164C16.0957 6.4375 16.3594 6.25195 16.7402 6.125C16.3496 5.99805 16.1055 5.86133 16.0078 5.71484C15.8809 5.54883 15.7783 5.24609 15.7002 4.80664C15.6221 4.36719 15.5293 4.01074 15.4219 3.7373C15.3145 3.4541 15.1973 3.22461 15.0703 3.04883C14.8262 2.69727 14.5674 2.50195 14.2939 2.46289ZM4.33301 19.1182C4.82129 18.9326 5.08984 18.293 5.13867 17.1992C5.19727 16.1055 5.22656 14.5918 5.22656 12.6582C5.22656 10.7246 5.22168 9.44043 5.21191 8.80566C5.21191 8.16113 5.20703 7.64355 5.19727 7.25293C5.16797 6.10059 5.05566 5.40723 4.86035 5.17285C4.6748 4.92871 4.49902 4.76758 4.33301 4.68945C4.33301 8.08789 4.27441 10.0215 4.15723 10.4902C4.02051 10.8809 3.68848 11.1592 3.16113 11.3252C3.74707 11.5303 4.0791 11.7793 4.15723 12.0723C4.27441 12.541 4.33301 14.2549 4.33301 17.2139V19.1182ZM8.31738 19.1768C8.31738 19.8604 8.57617 20.4219 9.09375 20.8613C9.5918 21.2715 10.1875 21.4766 10.8809 21.4766C11.5547 21.4766 12.1211 21.3301 12.5801 21.0371C13.459 20.4609 13.8984 19.8018 13.8984 19.0596V14.7676C13.8984 13.8789 13.6104 13.21 13.0342 12.7607C12.5459 12.3799 11.9062 12.1895 11.1152 12.1895H8.31738V19.1768ZM14.8799 12.6436C15.1143 13.1709 15.2314 14.3916 15.2314 16.3057C15.2314 18.7275 15.1436 20.1484 14.9678 20.5684C15.1729 20.5293 15.3828 20.2803 15.5977 19.8213C15.8125 19.3623 15.9639 18.8887 16.0518 18.4004C16.1396 17.9121 16.1982 17.5801 16.2275 17.4043C16.2666 17.2285 16.3203 17.0723 16.3887 16.9355C16.5449 16.6426 16.8086 16.4326 17.1797 16.3057C16.5938 16.1201 16.2471 15.749 16.1396 15.1924C16.042 14.6357 15.9443 14.2061 15.8467 13.9033C15.749 13.6006 15.6465 13.3613 15.5391 13.1855C15.3535 12.873 15.1338 12.6924 14.8799 12.6436ZM29.6162 22.8242C29.1182 23.1367 28.5518 23.293 27.917 23.293C27.2822 23.293 26.7158 23.1367 26.2178 22.8242C25.7197 23.1367 25.2559 23.293 24.8262 23.293C24.4062 23.293 24.0596 23.2539 23.7861 23.1758C23.5127 23.1074 23.2734 23.0098 23.0684 22.8828C22.6484 22.6289 22.4385 22.3115 22.4385 21.9307C22.4385 21.7354 22.4922 21.5645 22.5996 21.418C22.8145 21.584 23.0879 21.667 23.4199 21.667C24.2891 21.667 24.8896 21.2959 25.2217 20.5537V13.3906C25.2217 12.9414 25.1289 12.6094 24.9434 12.3945C24.6504 12.0332 24.1475 11.6768 23.4346 11.3252C24.0986 11.0225 24.5283 10.7539 24.7236 10.5195C25.0557 10.1387 25.2217 9.70898 25.2217 9.23047V3.04883C24.8896 2.29688 24.2891 1.9209 23.4199 1.9209C23.0879 1.9209 22.8145 2.00391 22.5996 2.16992C22.4922 2.02344 22.4385 1.85742 22.4385 1.67188C22.4385 1.47656 22.4922 1.2959 22.5996 1.12988C22.7168 0.963867 22.873 0.822266 23.0684 0.705078C23.5176 0.431641 24.0303 0.294922 24.6064 0.294922C25.1924 0.294922 25.7295 0.456055 26.2178 0.77832C26.7256 0.456055 27.292 0.294922 27.917 0.294922C28.542 0.294922 29.1084 0.456055 29.6162 0.77832C30.1045 0.456055 30.5635 0.294922 30.9932 0.294922C31.4229 0.294922 31.7744 0.333984 32.0479 0.412109C32.3213 0.480469 32.5605 0.578125 32.7656 0.705078C33.1855 0.958984 33.3955 1.27637 33.3955 1.65723C33.3955 1.85254 33.3418 2.02344 33.2344 2.16992C33.0195 2.00391 32.7461 1.9209 32.4141 1.9209C31.5449 1.9209 30.9443 2.29688 30.6123 3.04883V9.23047C30.6123 9.70898 30.7148 10.0654 30.9199 10.2998C31.2422 10.6807 31.7354 11.0225 32.3994 11.3252C31.6865 11.6768 31.2324 11.9648 31.0371 12.1895C30.7539 12.541 30.6123 12.9414 30.6123 13.3906V20.5537C30.9443 21.2959 31.5449 21.667 32.4141 21.667C32.7461 21.667 33.0195 21.584 33.2344 21.418C33.3418 21.5645 33.3955 21.7354 33.3955 21.9307C33.3955 22.1162 33.3369 22.292 33.2197 22.458C33.1123 22.624 32.9609 22.7656 32.7656 22.8828C32.3164 23.1562 31.8037 23.293 31.2275 23.293C30.6514 23.293 30.1143 23.1367 29.6162 22.8242ZM26.6279 19.1182C27.1162 18.9326 27.3848 18.293 27.4336 17.1992C27.4922 16.1055 27.5215 14.5918 27.5215 12.6582C27.5215 10.7246 27.5166 9.44043 27.5068 8.80566C27.5068 8.16113 27.502 7.64355 27.4922 7.25293C27.4629 6.10059 27.3506 5.40723 27.1553 5.17285C26.9697 4.92871 26.7939 4.76758 26.6279 4.68945C26.6279 8.08789 26.5693 10.0215 26.4521 10.4902C26.3154 10.8809 25.9834 11.1592 25.4561 11.3252C26.042 11.5303 26.374 11.7793 26.4521 12.0723C26.5693 12.541 26.6279 14.2549 26.6279 17.2139V19.1182ZM39.6211 20.832C38.8105 19.9922 38.1514 18.9814 37.6436 17.7998C37.1455 16.6182 36.8379 15.5 36.7207 14.4453C36.6035 13.3906 36.4229 12.6631 36.1787 12.2627C35.9443 11.8525 35.6074 11.54 35.168 11.3252C36.0176 10.9248 36.5156 10.1045 36.6621 8.86426C36.8184 7.61426 37.165 6.44727 37.7021 5.36328C38.2393 4.2793 38.9229 3.35156 39.7529 2.58008C41.501 0.958984 43.6055 0.148438 46.0664 0.148438C48.5957 0.148438 50.6904 0.900391 52.3506 2.4043C54.0791 3.9668 55.0947 6.1543 55.3975 8.9668C55.5244 10.1387 56.0225 10.9248 56.8916 11.3252C56.042 11.7451 55.5391 12.6338 55.3828 13.9912C55.2266 15.3486 54.9189 16.6182 54.46 17.7998C54.001 18.9814 53.3857 19.9922 52.6143 20.832C51.0029 22.5703 48.8252 23.4395 46.0811 23.4395C43.4541 23.4395 41.3008 22.5703 39.6211 20.832ZM44.4111 11.3252C43.3369 11.8428 42.7998 12.6875 42.7998 13.8594V18.21C42.7998 19.8018 43.459 20.8223 44.7773 21.2715C45.168 21.4082 45.5928 21.4766 46.0518 21.4766C46.5107 21.4766 46.9307 21.4082 47.3115 21.2715C47.7021 21.1348 48.0391 20.9297 48.3223 20.6562C48.9082 20.0898 49.2012 19.2744 49.2012 18.21V13.8594C49.2012 12.6875 48.6738 11.8428 47.6191 11.3252C48.6738 10.8369 49.2012 10.0508 49.2012 8.9668V5.46582C49.2012 4.38184 48.8838 3.53711 48.249 2.93164C47.6533 2.375 46.916 2.09668 46.0371 2.09668C44.543 2.09668 43.5469 2.72168 43.0488 3.97168C42.8828 4.3916 42.7998 4.88965 42.7998 5.46582V8.9668C42.7998 10.0703 43.3369 10.8564 44.4111 11.3252ZM50.5488 4.68945C50.8223 5.50977 50.959 6.9209 50.959 8.92285C50.959 10.0557 50.9102 10.6758 50.8125 10.7832C50.7148 10.8906 50.6172 10.9785 50.5195 11.0469C50.3438 11.1641 50.1533 11.2568 49.9482 11.3252C50.5342 11.5889 50.8418 11.8428 50.8711 12.0869C50.9688 13.0439 51.0176 13.874 51.0176 14.5771C51.0176 15.2705 51.0078 15.832 50.9883 16.2617C50.9688 16.6816 50.9395 17.0723 50.9004 17.4336C50.8223 18.2051 50.7246 18.7666 50.6074 19.1182C51.3691 18.8838 51.7939 17.7559 51.8818 15.7344C51.9307 14.6016 51.9551 13.3418 51.9551 11.9551C51.9551 10.5586 51.9404 9.51367 51.9111 8.82031C51.8818 8.11719 51.8379 7.54102 51.7793 7.0918C51.6621 6.05664 51.418 5.33887 51.0469 4.93848C50.9395 4.82129 50.7734 4.73828 50.5488 4.68945ZM39.9873 19.1182C40.1338 19.0596 40.207 18.957 40.207 18.8105C40.207 18.5957 40.1045 18.2588 39.8994 17.7998C39.3818 16.6182 39.123 14.46 39.123 11.3252C39.123 9.04004 39.3965 7.09668 39.9434 5.49512C40.0117 5.25098 40.0459 5.06543 40.0459 4.93848C40.0459 4.81152 39.9824 4.72852 39.8555 4.68945C39.3965 5.26562 39.0693 5.83691 38.874 6.40332C38.5127 7.43848 38.2246 8.83984 38.0098 10.6074C37.9805 10.8613 37.6924 11.1006 37.1455 11.3252C37.6924 11.5693 37.9805 11.8184 38.0098 12.0723C38.3613 15.0996 38.8105 17.1211 39.3574 18.1367C39.543 18.498 39.7529 18.8252 39.9873 19.1182ZM64.1719 23.293C63.5273 23.293 62.9561 23.1367 62.458 22.8242C61.96 23.1367 61.4961 23.293 61.0664 23.293C60.6465 23.293 60.2998 23.2539 60.0264 23.1758C59.7529 23.1074 59.5137 23.0098 59.3086 22.8828C58.8887 22.6289 58.6787 22.3115 58.6787 21.9307C58.6787 21.7354 58.7324 21.5645 58.8398 21.418C59.0547 21.584 59.3281 21.667 59.6602 21.667C60.5293 21.667 61.1299 21.2959 61.4619 20.5537V13.3906C61.4619 12.9414 61.3691 12.6094 61.1836 12.3945C60.8906 12.0332 60.3877 11.6768 59.6748 11.3252C60.3389 11.0225 60.7686 10.7539 60.9639 10.5195C61.2959 10.1387 61.4619 9.70898 61.4619 9.23047V3.04883C61.1299 2.29688 60.5293 1.9209 59.6602 1.9209C59.3281 1.9209 59.0547 2.00391 58.8398 2.16992C58.7324 2.02344 58.6787 1.85742 58.6787 1.67188C58.6787 1.47656 58.7324 1.2959 58.8398 1.12988C58.957 0.963867 59.1133 0.822266 59.3086 0.705078C59.7578 0.431641 60.2705 0.294922 60.8467 0.294922C61.4326 0.294922 61.9697 0.456055 62.458 0.77832C62.9658 0.456055 63.5322 0.294922 64.1572 0.294922C64.7822 0.294922 65.3486 0.456055 65.8564 0.77832C66.4033 0.456055 66.9014 0.294922 67.3506 0.294922C67.7998 0.294922 68.1611 0.333984 68.4346 0.412109C68.708 0.480469 68.9473 0.578125 69.1523 0.705078C69.5723 0.958984 69.7822 1.27637 69.7822 1.65723C69.7822 1.85254 69.7285 2.02344 69.6211 2.16992C69.4062 2.00391 69.1182 1.9209 68.7568 1.9209C68.3955 1.9209 68.0293 2.01855 67.6582 2.21387C67.2969 2.39941 67.0283 2.68262 66.8525 3.06348V9.23047C66.8525 9.70898 66.9551 10.0654 67.1602 10.2998C67.4824 10.6807 67.9756 11.0225 68.6396 11.3252C67.9268 11.6768 67.4727 11.9648 67.2773 12.1895C66.9941 12.541 66.8525 12.9414 66.8525 13.3906V19.792C67.4971 20.8174 68.3027 21.3301 69.2695 21.3301C71.6621 21.3301 73.2002 20.3145 73.8838 18.2832C74.1865 17.3848 74.3379 16.5645 74.3379 15.8223C74.3379 15.0703 74.2354 14.5674 74.0303 14.3135C74.2549 14.1279 74.4844 14.0352 74.7188 14.0352C74.9629 14.0352 75.1875 14.084 75.3926 14.1816C75.5977 14.2793 75.7832 14.4258 75.9492 14.6211C76.291 15.0215 76.4619 15.4951 76.4619 16.042C76.4619 16.5889 76.418 17.0088 76.3301 17.3018C76.7793 17.6729 77.0039 18.1953 77.0039 18.8691C77.0039 19.543 76.8135 20.0898 76.4326 20.5098C76.7549 20.9199 76.916 21.291 76.916 21.623C76.916 21.9551 76.8672 22.2432 76.7695 22.4873C76.6816 22.7217 76.5547 22.9316 76.3887 23.1172C76.0176 23.498 75.5732 23.6885 75.0557 23.6885C74.8018 23.6885 74.5674 23.6348 74.3525 23.5273C74.3916 23.3125 74.4111 23.0977 74.4111 22.8828C74.4111 22.4336 74.2061 22.209 73.7959 22.209C73.4932 22.209 73.0732 22.3311 72.5361 22.5752C71.501 23.0537 70.3193 23.293 68.9912 23.293C67.6729 23.293 66.6426 23.1221 65.9004 22.7803C65.3926 23.1221 64.8164 23.293 64.1719 23.293ZM62.8682 19.1182C63.3564 18.9326 63.625 18.293 63.6738 17.1992C63.7324 16.1055 63.7617 14.5918 63.7617 12.6582C63.7617 10.7246 63.7568 9.44043 63.7471 8.80566C63.7471 8.16113 63.7422 7.64355 63.7324 7.25293C63.7031 6.10059 63.5908 5.40723 63.3955 5.17285C63.21 4.92871 63.0342 4.76758 62.8682 4.68945C62.8682 8.08789 62.8096 10.0215 62.6924 10.4902C62.5557 10.8809 62.2236 11.1592 61.6963 11.3252C62.2822 11.5303 62.6143 11.7793 62.6924 12.0723C62.8096 12.541 62.8682 14.2549 62.8682 17.2139V19.1182ZM82.5117 20.832C81.7012 19.9922 81.042 18.9814 80.5342 17.7998C80.0361 16.6182 79.7285 15.5 79.6113 14.4453C79.4941 13.3906 79.3135 12.6631 79.0693 12.2627C78.835 11.8525 78.498 11.54 78.0586 11.3252C78.9082 10.9248 79.4062 10.1045 79.5527 8.86426C79.709 7.61426 80.0557 6.44727 80.5928 5.36328C81.1299 4.2793 81.8135 3.35156 82.6436 2.58008C84.3916 0.958984 86.4961 0.148438 88.957 0.148438C91.4863 0.148438 93.5811 0.900391 95.2412 2.4043C96.9697 3.9668 97.9854 6.1543 98.2881 8.9668C98.415 10.1387 98.9131 10.9248 99.7822 11.3252C98.9326 11.7451 98.4297 12.6338 98.2734 13.9912C98.1172 15.3486 97.8096 16.6182 97.3506 17.7998C96.8916 18.9814 96.2764 19.9922 95.5049 20.832C93.8936 22.5703 91.7158 23.4395 88.9717 23.4395C86.3447 23.4395 84.1914 22.5703 82.5117 20.832ZM87.3018 11.3252C86.2275 11.8428 85.6904 12.6875 85.6904 13.8594V18.21C85.6904 19.8018 86.3496 20.8223 87.668 21.2715C88.0586 21.4082 88.4834 21.4766 88.9424 21.4766C89.4014 21.4766 89.8213 21.4082 90.2021 21.2715C90.5928 21.1348 90.9297 20.9297 91.2129 20.6562C91.7988 20.0898 92.0918 19.2744 92.0918 18.21V13.8594C92.0918 12.6875 91.5645 11.8428 90.5098 11.3252C91.5645 10.8369 92.0918 10.0508 92.0918 8.9668V5.46582C92.0918 4.38184 91.7744 3.53711 91.1396 2.93164C90.5439 2.375 89.8066 2.09668 88.9277 2.09668C87.4336 2.09668 86.4375 2.72168 85.9395 3.97168C85.7734 4.3916 85.6904 4.88965 85.6904 5.46582V8.9668C85.6904 10.0703 86.2275 10.8564 87.3018 11.3252ZM93.4395 4.68945C93.7129 5.50977 93.8496 6.9209 93.8496 8.92285C93.8496 10.0557 93.8008 10.6758 93.7031 10.7832C93.6055 10.8906 93.5078 10.9785 93.4102 11.0469C93.2344 11.1641 93.0439 11.2568 92.8389 11.3252C93.4248 11.5889 93.7324 11.8428 93.7617 12.0869C93.8594 13.0439 93.9082 13.874 93.9082 14.5771C93.9082 15.2705 93.8984 15.832 93.8789 16.2617C93.8594 16.6816 93.8301 17.0723 93.791 17.4336C93.7129 18.2051 93.6152 18.7666 93.498 19.1182C94.2598 18.8838 94.6846 17.7559 94.7725 15.7344C94.8213 14.6016 94.8457 13.3418 94.8457 11.9551C94.8457 10.5586 94.8311 9.51367 94.8018 8.82031C94.7725 8.11719 94.7285 7.54102 94.6699 7.0918C94.5527 6.05664 94.3086 5.33887 93.9375 4.93848C93.8301 4.82129 93.6641 4.73828 93.4395 4.68945ZM82.8779 19.1182C83.0244 19.0596 83.0977 18.957 83.0977 18.8105C83.0977 18.5957 82.9951 18.2588 82.79 17.7998C82.2725 16.6182 82.0137 14.46 82.0137 11.3252C82.0137 9.04004 82.2871 7.09668 82.834 5.49512C82.9023 5.25098 82.9365 5.06543 82.9365 4.93848C82.9365 4.81152 82.873 4.72852 82.7461 4.68945C82.2871 5.26562 81.96 5.83691 81.7646 6.40332C81.4033 7.43848 81.1152 8.83984 80.9004 10.6074C80.8711 10.8613 80.583 11.1006 80.0361 11.3252C80.583 11.5693 80.8711 11.8184 80.9004 12.0723C81.252 15.0996 81.7012 17.1211 82.248 18.1367C82.4336 18.498 82.6436 18.8252 82.8779 19.1182ZM116.965 22.6484C115.461 23.1758 113.972 23.4395 112.497 23.4395C111.032 23.4395 109.748 23.2295 108.645 22.8096C107.551 22.3799 106.584 21.7598 105.744 20.9492C103.957 19.2402 102.893 16.8721 102.551 13.8447C102.404 12.5752 101.906 11.7354 101.057 11.3252C101.906 10.9248 102.409 10.085 102.565 8.80566C102.722 7.5166 103.093 6.33008 103.679 5.24609C104.265 4.15234 105.017 3.22461 105.935 2.46289C107.81 0.919922 110.158 0.148438 112.98 0.148438C114.924 0.148438 116.555 0.592773 117.873 1.48145C119.094 2.30176 119.851 3.37109 120.144 4.68945C120.3 5.43164 120.5 5.89062 120.744 6.06641C120.842 6.14453 120.964 6.21777 121.11 6.28613C120.534 7.14551 119.948 7.50195 119.353 7.35547C119.206 7.32617 119.069 7.28711 118.942 7.23828C118.728 7.66797 118.449 8.02441 118.107 8.30762C117.766 8.59082 117.385 8.75684 116.965 8.80566C116.555 8.84473 116.296 8.81543 116.188 8.71777C116.433 8.35645 116.555 7.89746 116.555 7.34082C116.555 7.27246 116.54 7.18457 116.511 7.07715C116.462 7.09668 116.418 7.10645 116.379 7.10645C116.34 7.10645 116.267 7.11133 116.159 7.12109C116.052 7.12109 115.9 7.08203 115.705 7.00391C115.51 6.92578 115.329 6.81836 115.163 6.68164C114.792 6.38867 114.597 6.06641 114.577 5.71484C114.577 5.63672 114.592 5.55859 114.621 5.48047C115.227 5.66602 115.803 5.5293 116.35 5.07031C116.721 4.74805 116.896 4.40625 116.877 4.04492C116.857 3.68359 116.755 3.38574 116.569 3.15137C116.394 2.90723 116.14 2.69727 115.808 2.52148C115.065 2.13086 114.113 1.93555 112.951 1.93555C110.305 1.93555 108.981 3.46875 108.981 6.53516V8.9668C108.981 10.0703 109.519 10.8564 110.593 11.3252C109.519 11.8428 108.981 12.6875 108.981 13.8594V17.7852C108.981 19.0254 109.216 19.9482 109.685 20.5537C110.153 21.1494 110.896 21.4473 111.911 21.4473C113.112 21.4473 113.908 20.9102 114.299 19.8359C114.426 19.4844 114.489 19.0791 114.489 18.6201V15.2363C114.304 15.0508 114.045 14.958 113.713 14.958C113.381 14.958 113.107 15.041 112.893 15.207C112.785 15.0996 112.731 14.8945 112.731 14.5918C112.731 14.2891 112.858 14.0059 113.112 13.7422C113.366 13.4688 113.752 13.332 114.27 13.332C114.797 13.332 115.231 13.4736 115.573 13.7568C116.042 13.4736 116.545 13.332 117.082 13.332C117.619 13.332 118.107 13.4785 118.547 13.7715C118.957 13.4785 119.343 13.332 119.704 13.332C120.065 13.332 120.349 13.3662 120.554 13.4346C120.759 13.5029 120.939 13.5957 121.096 13.7129C121.447 13.9766 121.623 14.3037 121.623 14.6943C121.623 14.9287 121.569 15.0996 121.462 15.207C121.237 15.041 120.949 14.958 120.598 14.958C120.246 14.958 119.904 15.29 119.572 15.9541V20.7588C119.758 21.3643 120.163 21.667 120.788 21.667C121.022 21.667 121.247 21.584 121.462 21.418C121.569 21.5645 121.623 21.7354 121.623 21.9307C121.623 22.3311 121.403 22.6582 120.964 22.9121C120.524 23.166 119.895 23.293 119.074 23.293C118.264 23.293 117.561 23.0781 116.965 22.6484ZM105.861 19.1182C106.008 19.0596 106.081 18.957 106.081 18.8105C106.081 18.5957 105.979 18.2588 105.773 17.7998C105.568 17.3311 105.378 16.5449 105.202 15.4414C105.036 14.3281 104.953 13.0391 104.953 11.5742C104.953 9.20117 105.241 7.1748 105.817 5.49512C105.886 5.25098 105.92 5.06543 105.92 4.93848C105.92 4.81152 105.856 4.72852 105.729 4.68945C105.271 5.26562 104.943 5.83691 104.748 6.40332C104.387 7.43848 104.099 8.83984 103.884 10.6074C103.854 10.8613 103.566 11.1006 103.02 11.3252C103.566 11.5693 103.854 11.8184 103.884 12.0723C104.235 15.0996 104.68 17.1211 105.217 18.1367C105.412 18.498 105.627 18.8252 105.861 19.1182ZM115.998 19.9971C116.564 19.6455 116.848 19.0254 116.848 18.1367V17.3018C116.848 16.4717 116.564 15.9297 115.998 15.6758V19.9971ZM119.455 20.2607L119.411 19.9678L119.455 20.2607ZM134.074 22.8242C133.576 23.1367 133.01 23.293 132.375 23.293C131.74 23.293 131.174 23.1367 130.676 22.8242C130.178 23.1367 129.714 23.293 129.284 23.293C128.864 23.293 128.508 23.2539 128.215 23.1758C127.932 23.1074 127.678 23.0098 127.453 22.8828C126.984 22.6289 126.75 22.3115 126.75 21.9307C126.75 21.7354 126.804 21.5645 126.911 21.418C127.126 21.584 127.409 21.667 127.761 21.667C128.122 21.667 128.483 21.5742 128.845 21.3887C129.216 21.2031 129.494 20.915 129.68 20.5244V17.6387C129.68 17.1895 129.592 16.8574 129.416 16.6426C129.104 16.2617 128.596 15.9004 127.893 15.5586C128.547 15.2559 128.977 14.9922 129.182 14.7676C129.514 14.3867 129.68 13.957 129.68 13.4785V12.9512L123.791 2.75586C123.225 2.24805 122.722 1.99414 122.282 1.99414C121.843 1.99414 121.496 2.07715 121.242 2.24316C121.135 2.16504 121.081 2.01855 121.081 1.80371C121.081 1.58887 121.115 1.39355 121.184 1.21777C121.252 1.03223 121.359 0.871094 121.506 0.734375C121.818 0.441406 122.272 0.294922 122.868 0.294922C123.464 0.294922 123.991 0.46582 124.45 0.807617C124.938 0.46582 125.515 0.294922 126.179 0.294922C126.853 0.294922 127.404 0.460938 127.834 0.792969C128.352 0.460938 128.835 0.294922 129.284 0.294922C129.733 0.294922 130.095 0.329102 130.368 0.397461C130.642 0.456055 130.881 0.548828 131.086 0.675781C131.525 0.929688 131.755 1.28125 131.774 1.73047C131.774 2.00391 131.721 2.1748 131.613 2.24316C131.35 2.07715 131.086 1.99414 130.822 1.99414C130.256 1.99414 129.797 2.09668 129.445 2.30176L133.825 10.71L137.985 2.28711C137.585 2.04297 137.121 1.9209 136.594 1.9209C136.076 1.9209 135.676 2.00391 135.393 2.16992C135.295 2.02344 135.246 1.79395 135.246 1.48145C135.246 1.16895 135.378 0.895508 135.642 0.661133C135.905 0.416992 136.281 0.294922 136.77 0.294922C137.258 0.294922 137.678 0.421875 138.029 0.675781C138.342 0.421875 138.723 0.294922 139.172 0.294922C139.621 0.294922 139.997 0.402344 140.3 0.617188C140.729 0.402344 141.159 0.294922 141.589 0.294922C142.019 0.294922 142.36 0.436523 142.614 0.719727C142.878 0.993164 143.01 1.34961 143.01 1.78906C143.01 2.01367 142.956 2.16504 142.849 2.24316C142.595 2.07715 142.282 1.99414 141.911 1.99414C141.267 1.99414 140.695 2.16992 140.197 2.52148L135.07 12.6729V13.4785C135.07 13.957 135.173 14.3135 135.378 14.5479C135.71 14.9189 136.203 15.2559 136.857 15.5586C136.154 15.9004 135.705 16.1885 135.51 16.4229C135.217 16.7842 135.07 17.1895 135.07 17.6387V20.5244C135.246 20.915 135.515 21.2031 135.876 21.3887C136.247 21.5742 136.613 21.667 136.975 21.667C137.336 21.667 137.624 21.584 137.839 21.418C137.946 21.5645 138 21.7354 138 21.9307C138 22.1162 137.937 22.292 137.81 22.458C137.683 22.624 137.512 22.7656 137.297 22.8828C136.809 23.1562 136.271 23.293 135.686 23.293C135.109 23.293 134.572 23.1367 134.074 22.8242ZM131.086 19.1182C131.604 18.9229 131.887 18.1562 131.936 16.8184C131.945 16.4082 131.95 15.9883 131.95 15.5586V13.1123C131.95 12.6436 131.862 12.2578 131.687 11.9551L128.684 6.52051C128.264 5.78809 127.961 5.33398 127.775 5.1582C127.482 4.88477 127.131 4.72852 126.721 4.68945L131.115 12.834V13.5518C131.115 14.1279 131.076 14.5234 130.998 14.7383C130.881 15.1094 130.52 15.3877 129.914 15.5732C130.568 15.8174 130.939 16.1152 131.027 16.4668C131.096 16.7402 131.13 17.0625 131.13 17.4336C131.13 17.7949 131.12 18.1123 131.101 18.3857C131.091 18.6592 131.086 18.9033 131.086 19.1182Z" fill="#523030"/>
</svg>
