<svg width="194" height="25" viewBox="0 0 194 25" fill="none" xmlns="http://www.w3.org/2000/svg">
<path d="M15.3037 21.4658C15.6943 21.1338 16.002 20.7041 16.2266 20.1768C16.4609 19.6494 16.5781 19.0977 16.5781 18.5215C16.5781 17.9355 16.4658 17.4814 16.2412 17.1592C16.3975 16.8857 16.7246 16.749 17.2227 16.749C17.7207 16.749 18.1016 16.9102 18.3652 17.2324C18.6387 17.5547 18.7754 18.0527 18.7754 18.7266C18.7754 19.3906 18.5947 20.084 18.2334 20.8066C17.8818 21.5195 17.3838 22.1445 16.7393 22.6816C15.3135 23.8535 13.5312 24.4395 11.3926 24.4395C8.84375 24.4395 6.74902 23.6387 5.1084 22.0371C3.43848 20.3965 2.43262 18.0576 2.09082 15.0205C1.9248 13.6338 1.42676 12.7354 0.59668 12.3252C1.05566 12.1104 1.37305 11.8857 1.54883 11.6514C1.83203 11.251 2.0127 10.709 2.09082 10.0254C2.17871 9.33203 2.33984 8.61426 2.57422 7.87207C2.80859 7.12988 3.11621 6.42676 3.49707 5.7627C3.8877 5.08887 4.35156 4.47363 4.88867 3.91699C5.42578 3.35059 6.04102 2.8623 6.73438 2.45215C8.19922 1.58301 9.9082 1.14844 11.8613 1.14844C13.7656 1.14844 15.3428 1.62695 16.5928 2.58398C17.7158 3.45312 18.4434 4.63477 18.7754 6.12891C18.9316 6.87109 19.1318 7.33008 19.376 7.50586C19.4736 7.58398 19.5957 7.65723 19.7422 7.72559C19.4492 8.21387 19.0049 8.48242 18.4092 8.53125C18.1455 8.57031 17.8623 8.5166 17.5596 8.37012C17.0225 9.28809 16.2656 9.77637 15.2891 9.83496C15.084 9.85449 14.9277 9.81543 14.8203 9.71777C15.084 9.36621 15.2061 8.95605 15.1865 8.4873C15.1865 8.39941 15.1719 8.31152 15.1426 8.22363C14.6934 8.31152 14.3125 8.27246 14 8.10645C13.4922 7.81348 13.2285 7.49609 13.209 7.1543C13.209 7.07617 13.2236 6.99805 13.2529 6.91992C13.8584 7.0957 14.4346 6.95898 14.9814 6.50977C15.3525 6.20703 15.5283 5.86523 15.5088 5.48438C15.4893 5.10352 15.4014 4.77148 15.2451 4.48828C15.0889 4.20508 14.8643 3.95117 14.5713 3.72656C13.9072 3.19922 13.0771 2.93555 12.0811 2.93555C10.3818 2.93555 9.27832 3.69727 8.77051 5.2207C8.60449 5.72852 8.52148 6.32422 8.52148 7.00781V9.9668C8.52148 11.0703 9.05859 11.8564 10.1328 12.3252C9.05859 12.8428 8.52148 13.6875 8.52148 14.8594V18.4775C8.52148 20.333 9.25879 21.5586 10.7334 22.1543C11.2119 22.3398 11.7393 22.4326 12.3154 22.4326C12.8916 22.4326 13.4336 22.3545 13.9414 22.1982C14.459 22.042 14.9131 21.7979 15.3037 21.4658ZM5.41602 20.1182C5.5625 20.0596 5.63574 19.957 5.63574 19.8105C5.63574 19.5957 5.5332 19.2588 5.32812 18.7998C4.81055 17.6182 4.55176 15.46 4.55176 12.3252C4.55176 10.04 4.8252 8.09668 5.37207 6.49512C5.44043 6.25098 5.47461 6.06543 5.47461 5.93848C5.47461 5.81152 5.41113 5.72852 5.28418 5.68945C4.8252 6.26562 4.49805 6.83691 4.30273 7.40332C3.94141 8.43848 3.65332 9.83984 3.43848 11.6074C3.40918 11.8613 3.12109 12.1006 2.57422 12.3252C3.12109 12.5693 3.40918 12.8184 3.43848 13.0723C3.79004 16.0996 4.23926 18.1211 4.78613 19.1367C4.97168 19.498 5.18164 19.8252 5.41602 20.1182ZM27.6377 23.8389C27.1494 24.1416 26.5977 24.293 25.9824 24.293C25.3672 24.293 24.8398 24.1367 24.4004 23.8242C23.9023 24.1367 23.4434 24.293 23.0234 24.293C22.6035 24.293 22.2568 24.2539 21.9834 24.1758C21.71 24.1074 21.4756 24.0098 21.2803 23.8828C20.8506 23.6289 20.6357 23.3115 20.6357 22.9307C20.6357 22.7354 20.6895 22.5645 20.7969 22.418C21.0117 22.584 21.2852 22.667 21.6172 22.667C22.4863 22.667 23.0869 22.2959 23.4189 21.5537V14.3906C23.4189 13.6289 23.0381 13.0527 22.2764 12.6621L21.6318 12.3252C22.501 11.9248 23.0479 11.4902 23.2725 11.0215C23.3701 10.8066 23.4189 10.543 23.4189 10.2305V4.04883C23.0869 3.29688 22.4863 2.9209 21.6172 2.9209C21.2852 2.9209 21.0117 3.00391 20.7969 3.16992C20.6895 3.02344 20.6357 2.85742 20.6357 2.67188C20.6357 2.47656 20.6895 2.2959 20.7969 2.12988C20.9141 1.96387 21.0752 1.82227 21.2803 1.70508C21.7197 1.43164 22.2227 1.29492 22.7891 1.29492C23.3652 1.29492 23.9023 1.45117 24.4004 1.76367C24.8398 1.45117 25.3672 1.29492 25.9824 1.29492C26.6074 1.29492 27.1592 1.45117 27.6377 1.76367C28.0967 1.45117 28.6094 1.29492 29.1758 1.29492C30.0059 1.29492 30.5967 1.57324 30.9482 2.12988C31.0654 2.30566 31.124 2.49121 31.124 2.68652C31.124 2.88184 31.0654 3.04297 30.9482 3.16992C30.7334 3.00391 30.4648 2.9209 30.1426 2.9209C29.3906 2.9209 28.8877 3.28711 28.6338 4.01953V11.7539H35.5625V4.01953C35.3086 3.28711 34.8057 2.9209 34.0537 2.9209C33.7314 2.9209 33.4629 3.00391 33.248 3.16992C33.1309 3.04297 33.0723 2.88184 33.0723 2.68652C33.0723 2.49121 33.126 2.30566 33.2334 2.12988C33.3506 1.9541 33.4971 1.80273 33.6729 1.67578C34.0439 1.42188 34.4932 1.29492 35.0205 1.29492C35.5869 1.29492 36.0996 1.45117 36.5586 1.76367C37.0566 1.45117 37.6084 1.29492 38.2139 1.29492C38.8291 1.29492 39.3564 1.45117 39.7959 1.76367C40.2744 1.45117 40.7285 1.29492 41.1582 1.29492C41.5879 1.29492 41.9395 1.33398 42.2129 1.41211C42.4863 1.48047 42.7256 1.57812 42.9307 1.70508C43.3506 1.95898 43.5605 2.27637 43.5605 2.65723C43.5605 2.85254 43.5068 3.02344 43.3994 3.16992C43.1846 3.00391 42.9111 2.9209 42.5791 2.9209C41.71 2.9209 41.1094 3.29688 40.7773 4.04883V10.2305C40.7773 10.9922 41.1533 11.583 41.9053 12.0029C42.1201 12.1201 42.3398 12.2275 42.5645 12.3252C41.9785 12.6084 41.583 12.8379 41.3779 13.0137C40.9775 13.3848 40.7773 13.8438 40.7773 14.3906V21.5537C41.1094 22.2959 41.71 22.667 42.5791 22.667C42.9111 22.667 43.1846 22.584 43.3994 22.418C43.5068 22.5645 43.5605 22.7354 43.5605 22.9307C43.5605 23.1162 43.502 23.292 43.3848 23.458C43.2773 23.624 43.126 23.7656 42.9307 23.8828C42.4814 24.1562 41.9639 24.293 41.3779 24.293C40.8018 24.293 40.2744 24.1367 39.7959 23.8242C39.3564 24.1367 38.8291 24.293 38.2139 24.293C37.6084 24.293 37.0566 24.1367 36.5586 23.8242C36.0996 24.1367 35.5869 24.293 35.0205 24.293C34.1904 24.293 33.5947 24.0146 33.2334 23.458C33.126 23.2822 33.0723 23.0967 33.0723 22.9014C33.0723 22.7061 33.1309 22.5449 33.248 22.418C33.4629 22.584 33.7314 22.667 34.0537 22.667C34.8057 22.667 35.3086 22.3008 35.5625 21.5684V13.8486H28.6338V21.5684C28.8877 22.3008 29.3906 22.667 30.1426 22.667C30.4648 22.667 30.7334 22.584 30.9482 22.418C31.0654 22.5449 31.124 22.7061 31.124 22.9014C31.124 23.0967 31.0654 23.2822 30.9482 23.458C30.8408 23.6338 30.6943 23.7852 30.5088 23.9121C30.1572 24.166 29.7129 24.293 29.1758 24.293C28.6191 24.293 28.1064 24.1416 27.6377 23.8389ZM36.7783 9.19043C36.7686 10.2354 36.7637 11.9688 36.7637 14.3906C36.7637 16.8125 36.7979 18.2383 36.8662 18.668C36.9932 19.4883 37.2471 19.9717 37.6279 20.1182V18.2139C37.6279 15.6162 37.6475 14.1514 37.6865 13.8193C37.7256 13.4775 37.7646 13.2383 37.8037 13.1016C37.8916 12.7598 38.1895 12.501 38.6973 12.3252C38.248 12.1885 37.9502 11.9102 37.8037 11.4902C37.6865 11.0215 37.6279 9.08789 37.6279 5.68945C37.2471 5.86523 37.0127 6.2168 36.9248 6.74414C36.8369 7.32031 36.7881 8.13574 36.7783 9.19043ZM24.8252 20.1182C25.2939 19.9326 25.5576 19.293 25.6162 18.1992C25.665 17.1055 25.6895 15.5918 25.6895 13.6582C25.6895 11.7246 25.6846 10.4404 25.6748 9.80566C25.6748 9.16113 25.6699 8.64355 25.6602 8.25293C25.6309 7.11035 25.5234 6.41699 25.3379 6.17285C25.1621 5.92871 24.9912 5.76758 24.8252 5.68945C24.8252 9.08789 24.7666 11.0215 24.6494 11.4902C24.5127 11.8809 24.1807 12.1592 23.6533 12.3252C24.2393 12.5303 24.5713 12.7793 24.6494 13.0723C24.7666 13.541 24.8252 15.2549 24.8252 18.2139V20.1182ZM51.3096 24.293C50.665 24.293 50.0938 24.1367 49.5957 23.8242C49.0977 24.1367 48.6338 24.293 48.2041 24.293C47.7842 24.293 47.4375 24.2539 47.1641 24.1758C46.8906 24.1074 46.6514 24.0098 46.4463 23.8828C46.0264 23.6289 45.8164 23.3115 45.8164 22.9307C45.8164 22.7354 45.8701 22.5645 45.9775 22.418C46.1924 22.584 46.4658 22.667 46.7979 22.667C47.667 22.667 48.2676 22.2959 48.5996 21.5537V14.3906C48.5996 13.9414 48.5068 13.6094 48.3213 13.3945C48.0283 13.0332 47.5254 12.6768 46.8125 12.3252C47.4766 12.0225 47.9062 11.7539 48.1016 11.5195C48.4336 11.1387 48.5996 10.709 48.5996 10.2305V4.04883C48.2676 3.29688 47.667 2.9209 46.7979 2.9209C46.4658 2.9209 46.1924 3.00391 45.9775 3.16992C45.8701 3.02344 45.8164 2.85742 45.8164 2.67188C45.8164 2.47656 45.8701 2.2959 45.9775 2.12988C46.0947 1.96387 46.251 1.82227 46.4463 1.70508C46.8955 1.43164 47.4082 1.29492 47.9844 1.29492C48.5703 1.29492 49.1074 1.45605 49.5957 1.77832C50.1035 1.45605 50.6846 1.29492 51.3389 1.29492C51.9932 1.29492 52.5889 1.48535 53.126 1.86621C54.1611 1.48535 55.3574 1.29492 56.7148 1.29492C57.7207 1.29492 58.5801 1.39258 59.293 1.58789L60.5967 1.93945C60.7529 1.97852 60.9043 1.99805 61.0508 1.99805C61.3242 1.99805 61.4609 1.80273 61.4609 1.41211C61.4609 1.31445 61.4268 1.14844 61.3584 0.914062C61.6318 0.865234 61.9785 0.84082 62.3984 0.84082C62.8184 0.84082 63.1748 0.982422 63.4678 1.26562C63.7607 1.53906 63.9072 1.93945 63.9072 2.4668C63.9072 2.98438 63.8145 3.36523 63.6289 3.60938C63.8926 4 64.0244 4.47852 64.0244 5.04492C64.0244 5.60156 63.834 6.07031 63.4531 6.45117C63.5703 6.74414 63.6289 7.03223 63.6289 7.31543C63.6289 7.58887 63.5801 7.84277 63.4824 8.07715C63.3945 8.30176 63.2822 8.49219 63.1455 8.64844C62.8721 8.93164 62.5938 9.07324 62.3105 9.07324C61.9004 9.07324 61.5293 8.98535 61.1973 8.80957C61.3145 8.5752 61.373 8.22852 61.373 7.76953C61.373 6.69531 61.1045 5.75293 60.5674 4.94238C59.835 3.8291 58.7363 3.27246 57.2715 3.27246C56.5293 3.27246 55.8555 3.45312 55.25 3.81445C54.6543 4.17578 54.2344 4.69336 53.9902 5.36719V11.0361C54.332 11.251 54.6494 11.3584 54.9424 11.3584C55.2451 11.3584 55.4697 11.3535 55.6162 11.3438C55.7725 11.334 55.9287 11.3145 56.085 11.2852C56.4854 11.2266 56.793 11.1484 57.0078 11.0508C57.418 10.8555 57.623 10.377 57.623 9.61523C57.623 9.18555 57.5205 8.85352 57.3154 8.61914C57.5107 8.48242 57.7549 8.41406 58.0479 8.41406C58.7021 8.41406 59.1758 8.67773 59.4688 9.20508C59.5762 9.39062 59.6299 9.5957 59.6299 9.82031C59.6299 10.0449 59.5713 10.3232 59.4541 10.6553C59.8545 11.1143 60.0547 11.6611 60.0547 12.2959C60.0547 12.9209 59.8545 13.4629 59.4541 13.9219C59.5713 14.2539 59.6299 14.5566 59.6299 14.8301C59.6299 15.0938 59.5762 15.3477 59.4688 15.5918C59.3613 15.8359 59.2295 16.0312 59.0732 16.1777C58.7705 16.4512 58.4287 16.5879 58.0479 16.5879C57.7744 16.5879 57.5303 16.5098 57.3154 16.3535C57.5205 16.0117 57.623 15.6113 57.623 15.1523C57.623 14.2441 57.374 13.6826 56.876 13.4678C56.4365 13.292 55.9336 13.2041 55.3672 13.2041C54.8008 13.2041 54.3418 13.3066 53.9902 13.5117V20.8359C54.5566 21.832 55.6504 22.3301 57.2715 22.3301C59.1074 22.3301 60.3574 21.7637 61.0215 20.6309C61.793 19.332 62.1787 17.9404 62.1787 16.4561C62.1787 16.0264 62.1396 15.6943 62.0615 15.46C62.3057 15.2158 62.5596 15.0938 62.8232 15.0938C63.0869 15.0938 63.2871 15.1328 63.4238 15.2109C63.5605 15.2793 63.6826 15.3672 63.79 15.4746C64.0244 15.7383 64.1416 16.0068 64.1416 16.2803L64.0537 16.998C64.0537 17.1836 64.1025 17.335 64.2002 17.4521C64.3955 17.6572 64.4932 17.8525 64.4932 18.0381C64.4932 18.2139 64.4346 18.4287 64.3174 18.6826C64.542 18.8096 64.7422 19 64.918 19.2539C65.1035 19.498 65.1963 19.752 65.1963 20.0156C65.1963 20.5723 64.9619 21.0703 64.4932 21.5098C64.6982 21.8027 64.8008 22.2275 64.8008 22.7842C64.8008 23.3311 64.6396 23.7949 64.3174 24.1758C64.0049 24.5664 63.5947 24.7617 63.0869 24.7617C62.8135 24.7617 62.5303 24.7324 62.2373 24.6738C62.2764 24.459 62.2959 24.2441 62.2959 24.0293C62.2959 23.5801 62.0908 23.3555 61.6807 23.3555C61.2217 23.3555 60.7627 23.4482 60.3037 23.6338C59.2197 24.0732 57.9844 24.293 56.5977 24.293C55.2207 24.293 54.0488 24.1123 53.082 23.751C52.5742 24.1123 51.9834 24.293 51.3096 24.293ZM50.0059 20.1182C50.4941 19.9326 50.7627 19.293 50.8115 18.1992C50.8701 17.1055 50.8994 15.5918 50.8994 13.6582C50.8994 11.7246 50.8945 10.4404 50.8848 9.80566C50.8848 9.16113 50.8799 8.64355 50.8701 8.25293C50.8408 7.10059 50.7285 6.40723 50.5332 6.17285C50.3477 5.92871 50.1719 5.76758 50.0059 5.68945C50.0059 9.08789 49.9473 11.0215 49.8301 11.4902C49.6934 11.8809 49.3613 12.1592 48.834 12.3252C49.4199 12.5303 49.752 12.7793 49.8301 13.0723C49.9473 13.541 50.0059 15.2549 50.0059 18.2139V20.1182ZM53.6973 19.9717C53.6973 20.001 53.7021 20.0254 53.7119 20.0449L53.6973 19.9717ZM69.5762 23.8975C69.2148 24.1611 68.7998 24.293 68.3311 24.293C67.8721 24.293 67.501 24.1758 67.2178 23.9414C66.9443 23.6973 66.8076 23.4189 66.8076 23.1064C66.8076 22.7939 66.8564 22.5645 66.9541 22.418C67.2373 22.584 67.6865 22.667 68.3018 22.667C68.5459 22.667 68.8145 22.5449 69.1074 22.3008C69.4004 22.0469 69.6348 21.7002 69.8105 21.2607V14.3906C69.8105 13.9316 69.7129 13.5898 69.5176 13.3652C69.2246 13.0137 68.7266 12.667 68.0234 12.3252C68.7363 11.9834 69.1855 11.7002 69.3711 11.4756C69.6641 11.1045 69.8105 10.6895 69.8105 10.2305L69.8252 3.84375C69.5908 3.22852 69.0732 2.9209 68.2725 2.9209C67.8623 2.9209 67.5596 3.00391 67.3643 3.16992C67.2666 3.04297 67.2178 2.87695 67.2178 2.67188C67.2178 2.4668 67.2617 2.28125 67.3496 2.11523C67.4375 1.94922 67.5596 1.80273 67.7158 1.67578C68.0479 1.42188 68.4922 1.29492 69.0488 1.29492C69.6055 1.29492 70.0645 1.45605 70.4258 1.77832C70.748 1.45605 71.124 1.29492 71.5537 1.29492C71.9834 1.29492 72.3496 1.47559 72.6523 1.83691C73.0332 1.47559 73.3701 1.29492 73.6631 1.29492C73.9561 1.29492 74.1807 1.31934 74.3369 1.36816C74.4932 1.41699 74.6494 1.50977 74.8057 1.64648C75.1182 1.89062 75.4453 2.38379 75.7871 3.12598L81.3975 14.7715L86.0264 3.36035L86.4365 2.4082C86.6807 1.87109 86.9102 1.55371 87.125 1.45605C87.3398 1.34863 87.5889 1.29492 87.8721 1.29492C88.165 1.29492 88.4629 1.40234 88.7656 1.61719C89.1367 1.40234 89.6201 1.29492 90.2158 1.29492C90.8213 1.29492 91.3438 1.45605 91.7832 1.77832C92.1738 1.45605 92.5791 1.29492 92.999 1.29492C93.4287 1.29492 93.7607 1.3291 93.9951 1.39746C94.2393 1.46582 94.4492 1.55859 94.625 1.67578C94.9961 1.93945 95.1816 2.2666 95.1816 2.65723C95.1816 2.85254 95.1279 3.02344 95.0205 3.16992C94.8057 3.00391 94.5322 2.9209 94.2002 2.9209C93.458 2.9209 92.9551 3.26758 92.6914 3.96094V10.2305C92.6914 10.709 92.7939 11.0654 92.999 11.2998C93.3213 11.6807 93.8145 12.0225 94.4785 12.3252C93.7656 12.6768 93.3115 12.9648 93.1162 13.1895C92.833 13.541 92.6914 13.9414 92.6914 14.3906V21.5537C93.0234 22.2959 93.624 22.667 94.4932 22.667C94.8252 22.667 95.0986 22.584 95.3135 22.418C95.4209 22.5645 95.4746 22.7354 95.4746 22.9307C95.4746 23.1162 95.416 23.292 95.2988 23.458C95.1914 23.624 95.04 23.7656 94.8447 23.8828C94.3955 24.1562 93.8828 24.293 93.3066 24.293C92.7305 24.293 92.1934 24.1367 91.6953 23.8242C91.2363 24.1367 90.7139 24.293 90.1279 24.293C89.5029 24.293 88.9512 24.1367 88.4727 23.8242C87.9746 24.1367 87.5107 24.293 87.0811 24.293C86.6611 24.293 86.3145 24.2539 86.041 24.1758C85.7676 24.1074 85.5283 24.0098 85.3232 23.8828C84.9033 23.6289 84.6934 23.3115 84.6934 22.9307C84.6934 22.7354 84.7471 22.5645 84.8545 22.418C85.0693 22.584 85.3428 22.667 85.6748 22.667C86.5439 22.667 87.1445 22.2959 87.4766 21.5537V5.54297L81.7637 19.6934L81.1338 21.1289C80.8311 21.8125 80.6162 22.1982 80.4893 22.2861C80.3721 22.374 80.2744 22.418 80.1963 22.418C79.9521 22.418 79.7812 22.3936 79.6836 22.3447L71.8613 6.91992V21.2461C72.0469 21.6953 72.3008 22.0469 72.623 22.3008C72.9453 22.5449 73.3066 22.667 73.707 22.667C74.1074 22.667 74.4492 22.584 74.7324 22.418C74.8398 22.5938 74.8936 22.8379 74.8936 23.1504C74.8936 23.4531 74.7422 23.7217 74.4395 23.9561C74.1367 24.1807 73.7461 24.293 73.2676 24.293C72.7891 24.293 72.3496 24.1709 71.9492 23.9268C71.5977 24.1709 71.1924 24.293 70.7334 24.293C70.2842 24.293 69.8984 24.1611 69.5762 23.8975ZM73.9268 5.6748C73.8291 5.82129 73.7803 6.03125 73.7803 6.30469C73.7803 7.0957 74.1123 8.14551 74.7764 9.4541L80.1084 20.1035C80.1768 20.0156 80.2109 19.8301 80.2109 19.5469C80.2109 18.6973 79.8057 17.4521 78.9951 15.8115L73.9268 5.6748ZM88.8828 20.1182C89.3711 19.9326 89.6396 19.293 89.6885 18.1992C89.7471 17.1055 89.7764 15.5918 89.7764 13.6582C89.7764 11.7246 89.7715 10.4404 89.7617 9.80566C89.7617 9.16113 89.7568 8.64355 89.7471 8.25293C89.7178 7.10059 89.6055 6.40723 89.4102 6.17285C89.2246 5.92871 89.0488 5.76758 88.8828 5.68945V20.1182ZM71.6562 20.3086C71.6562 20.3867 71.6611 20.4453 71.6709 20.4844L71.6562 20.3086ZM70.0156 20.3086C70.0059 20.3477 70.001 20.4062 70.001 20.4844L70.0156 20.3086ZM104.791 23.8242C104.293 24.1367 103.727 24.293 103.092 24.293C102.457 24.293 101.891 24.1367 101.393 23.8242C100.895 24.1367 100.431 24.293 100.001 24.293C99.5811 24.293 99.2344 24.2539 98.9609 24.1758C98.6875 24.1074 98.4482 24.0098 98.2432 23.8828C97.8232 23.6289 97.6133 23.3115 97.6133 22.9307C97.6133 22.7354 97.667 22.5645 97.7744 22.418C97.9893 22.584 98.2627 22.667 98.5947 22.667C99.4639 22.667 100.064 22.2959 100.396 21.5537V14.3906C100.396 13.9414 100.304 13.6094 100.118 13.3945C99.8252 13.0332 99.3223 12.6768 98.6094 12.3252C99.2734 12.0225 99.7031 11.7539 99.8984 11.5195C100.23 11.1387 100.396 10.709 100.396 10.2305V4.04883C100.064 3.29688 99.4639 2.9209 98.5947 2.9209C98.2627 2.9209 97.9893 3.00391 97.7744 3.16992C97.667 3.02344 97.6133 2.85742 97.6133 2.67188C97.6133 2.47656 97.667 2.2959 97.7744 2.12988C97.8916 1.96387 98.0479 1.82227 98.2432 1.70508C98.6924 1.43164 99.2051 1.29492 99.7812 1.29492C100.367 1.29492 100.904 1.45605 101.393 1.77832C101.9 1.45605 102.467 1.29492 103.092 1.29492C103.717 1.29492 104.283 1.45605 104.791 1.77832C105.279 1.45605 105.738 1.29492 106.168 1.29492C106.598 1.29492 106.949 1.33398 107.223 1.41211C107.496 1.48047 107.735 1.57812 107.94 1.70508C108.36 1.95898 108.57 2.27637 108.57 2.65723C108.57 2.85254 108.517 3.02344 108.409 3.16992C108.194 3.00391 107.921 2.9209 107.589 2.9209C106.72 2.9209 106.119 3.29688 105.787 4.04883V10.2305C105.787 10.709 105.89 11.0654 106.095 11.2998C106.417 11.6807 106.91 12.0225 107.574 12.3252C106.861 12.6768 106.407 12.9648 106.212 13.1895C105.929 13.541 105.787 13.9414 105.787 14.3906V21.5537C106.119 22.2959 106.72 22.667 107.589 22.667C107.921 22.667 108.194 22.584 108.409 22.418C108.517 22.5645 108.57 22.7354 108.57 22.9307C108.57 23.1162 108.512 23.292 108.395 23.458C108.287 23.624 108.136 23.7656 107.94 23.8828C107.491 24.1562 106.979 24.293 106.402 24.293C105.826 24.293 105.289 24.1367 104.791 23.8242ZM101.803 20.1182C102.291 19.9326 102.56 19.293 102.608 18.1992C102.667 17.1055 102.696 15.5918 102.696 13.6582C102.696 11.7246 102.691 10.4404 102.682 9.80566C102.682 9.16113 102.677 8.64355 102.667 8.25293C102.638 7.10059 102.525 6.40723 102.33 6.17285C102.145 5.92871 101.969 5.76758 101.803 5.68945C101.803 9.08789 101.744 11.0215 101.627 11.4902C101.49 11.8809 101.158 12.1592 100.631 12.3252C101.217 12.5303 101.549 12.7793 101.627 13.0723C101.744 13.541 101.803 15.2549 101.803 18.2139V20.1182ZM114.825 23.4287C114.044 24.21 113.302 24.6006 112.599 24.6006C112.149 24.6006 111.847 24.4346 111.69 24.1025C111.915 23.8291 112.027 23.4189 112.027 22.8721V22.6523C112.027 22.5938 112.022 22.54 112.013 22.4912C111.524 22.0518 111.28 21.5342 111.28 20.9385C111.28 20.333 111.563 19.7178 112.13 19.0928C111.964 18.7607 111.881 18.4092 111.881 18.0381C111.881 17.6572 111.935 17.3057 112.042 16.9834C112.159 16.6514 112.315 16.3633 112.511 16.1191C112.921 15.582 113.321 15.3135 113.712 15.3135C114.112 15.3135 114.396 15.4697 114.562 15.7822C114.21 16.1533 114.034 16.7344 114.034 17.5254C114.034 18.3164 114.146 19.0049 114.371 19.5908C114.605 20.1768 114.933 20.6797 115.353 21.0996C116.251 22.0176 117.398 22.4766 118.795 22.4766C119.732 22.4766 120.528 22.208 121.183 21.6709C121.886 21.0947 122.237 20.3086 122.237 19.3125C122.237 18.6094 122.071 18.0381 121.739 17.5986C121.222 16.915 120.411 16.1924 119.308 15.4307C118.458 14.835 117.779 14.5371 117.271 14.5371C116.754 14.5371 116.183 14.7471 115.558 15.167C115.724 14.6689 115.807 14.2051 115.807 13.7754C115.807 13.6777 115.714 13.5508 115.528 13.3945L114.986 12.9111C113.277 11.3389 112.267 9.87891 111.954 8.53125C111.847 8.0625 111.793 7.47656 111.793 6.77344C111.793 6.06055 111.964 5.34277 112.306 4.62012C112.657 3.8877 113.136 3.26758 113.741 2.75977C115.001 1.68555 116.603 1.14844 118.546 1.14844C119.728 1.14844 120.812 1.33887 121.798 1.71973C122.218 1.88574 122.696 1.96875 123.233 1.96875C123.458 1.96875 123.658 1.95898 123.834 1.93945C124.02 1.91016 124.181 1.80762 124.317 1.63184C124.444 1.44629 124.508 1.28027 124.508 1.13379C124.508 0.987305 124.488 0.865234 124.449 0.767578C124.518 0.738281 124.61 0.723633 124.728 0.723633C124.854 0.723633 124.991 0.767578 125.138 0.855469C125.284 0.933594 125.416 1.0459 125.533 1.19238C125.797 1.52441 125.929 1.90039 125.929 2.32031C125.929 2.73047 125.812 3.04297 125.577 3.25781C125.909 3.55078 126.075 4.00488 126.075 4.62012C126.075 5.22559 125.87 5.7334 125.46 6.14355C125.538 6.40723 125.577 6.64648 125.577 6.86133C125.577 7.06641 125.538 7.2666 125.46 7.46191C125.392 7.64746 125.294 7.80859 125.167 7.94531C124.884 8.24805 124.615 8.39941 124.361 8.39941C123.961 8.39941 123.624 8.33105 123.351 8.19434C123.517 7.80371 123.6 7.38379 123.6 6.93457C123.6 6.48535 123.497 6.02637 123.292 5.55762C123.097 5.0791 122.818 4.66406 122.457 4.3125C121.695 3.58984 120.699 3.22852 119.469 3.22852C118.688 3.22852 118.048 3.46777 117.55 3.94629C117.081 4.39551 116.847 4.9375 116.847 5.57227C116.847 6.05078 116.964 6.45117 117.198 6.77344C117.608 7.33008 118.258 7.90625 119.146 8.50195L119.85 8.9707C120.24 9.21484 120.504 9.33691 120.641 9.33691C120.777 9.33691 120.914 9.32227 121.051 9.29297C121.188 9.26367 121.339 9.22461 121.505 9.17578C121.856 9.05859 122.198 8.89258 122.53 8.67773L122.34 9.49805C122.281 9.77148 122.252 9.97168 122.252 10.0986C122.252 10.3037 122.354 10.4893 122.56 10.6553C124.386 12.2373 125.606 13.5605 126.222 14.625C126.759 15.5527 127.027 16.5537 127.027 17.6279C127.027 18.7021 126.852 19.625 126.5 20.3965C126.148 21.168 125.636 21.8516 124.962 22.4473C123.478 23.7754 121.549 24.4395 119.176 24.4395C117.506 24.4395 116.056 24.1025 114.825 23.4287ZM113.829 5.68945C113.458 5.8457 113.272 6.25098 113.272 6.90527C113.272 8.24316 114.166 9.71289 115.953 11.3145L116.832 12.1055C117.135 12.3789 117.267 12.5889 117.228 12.7354C117.198 12.8818 117.169 12.999 117.14 13.0869C117.12 13.1748 117.096 13.2578 117.066 13.3359C117.037 13.4141 117.018 13.4727 117.008 13.5117C117.35 13.3066 117.628 13.2041 117.843 13.2041C118.272 13.2041 118.678 13.3213 119.059 13.5557C120.943 14.7275 122.223 15.7725 122.896 16.6904C123.385 17.3643 123.639 18.2041 123.658 19.21C123.658 19.5713 123.634 19.874 123.585 20.1182C124.103 19.7861 124.361 19.2588 124.361 18.5361C124.361 17.833 124.264 17.291 124.068 16.9102C123.883 16.5293 123.663 16.1924 123.409 15.8994C123.155 15.5967 122.823 15.2695 122.413 14.918C122.013 14.5664 121.515 14.1855 120.919 13.7754L118.839 12.3545C117.13 11.2314 115.831 10.0449 114.942 8.79492C114.161 7.69141 113.79 6.65625 113.829 5.68945ZM140.826 23.8096C140.318 24.1318 139.752 24.293 139.127 24.293C138.512 24.293 137.94 24.1318 137.413 23.8096C136.876 24.1318 136.383 24.293 135.934 24.293C135.484 24.293 135.123 24.2539 134.85 24.1758C134.576 24.1074 134.337 24.0098 134.132 23.8828C133.712 23.6289 133.502 23.3115 133.502 22.9307C133.502 22.7354 133.556 22.5645 133.663 22.418C133.878 22.584 134.161 22.667 134.513 22.667C134.874 22.667 135.235 22.5742 135.597 22.3887C135.968 22.2031 136.246 21.915 136.432 21.5244V14.3906C136.432 13.9414 136.339 13.6094 136.153 13.3945C135.86 13.0332 135.357 12.6768 134.645 12.3252C135.309 12.0225 135.738 11.7539 135.934 11.5195C136.266 11.1387 136.432 10.709 136.432 10.2305V3.43359C136.109 3.31641 135.724 3.25781 135.274 3.25781C134.835 3.25781 134.371 3.375 133.883 3.60938C133.395 3.84375 132.955 4.18555 132.564 4.63477C131.695 5.65039 131.261 6.97852 131.261 8.61914C131.261 9.56641 131.417 10.2646 131.729 10.7139C131.612 10.958 131.393 11.0801 131.07 11.0801C130.748 11.0801 130.46 11.0068 130.206 10.8604C129.952 10.7139 129.732 10.5137 129.547 10.2598C129.166 9.75195 128.976 9.20508 128.976 8.61914C128.976 8.0332 129.083 7.53516 129.298 7.125C128.937 6.69531 128.756 6.21191 128.756 5.6748C128.756 5.12793 128.902 4.67871 129.195 4.32715C128.785 3.8877 128.58 3.29688 128.58 2.55469C128.58 1.69531 128.976 1.11914 129.767 0.826172C130.001 0.738281 130.206 0.694336 130.382 0.694336C130.714 0.694336 130.963 0.767578 131.129 0.914062C131.061 1.14844 131.026 1.31445 131.026 1.41211C131.026 1.80273 131.163 1.99805 131.437 1.99805C131.583 1.99805 131.734 1.97852 131.891 1.93945L132.55 1.74902C133.692 1.44629 134.645 1.29492 135.406 1.29492C136.168 1.29492 136.837 1.46094 137.413 1.79297C137.911 1.46094 138.478 1.29492 139.112 1.29492C139.747 1.29492 140.323 1.46094 140.841 1.79297C141.397 1.46094 141.974 1.29492 142.569 1.29492C143.517 1.29492 144.347 1.39258 145.06 1.58789L146.363 1.93945C146.52 1.97852 146.671 1.99805 146.817 1.99805C147.091 1.99805 147.228 1.80273 147.228 1.41211C147.228 1.31445 147.193 1.14844 147.125 0.914062C147.291 0.767578 147.501 0.694336 147.755 0.694336C148.009 0.694336 148.253 0.738281 148.487 0.826172C148.722 0.914062 148.927 1.04102 149.103 1.20703C149.483 1.54883 149.674 2.04199 149.674 2.68652C149.674 3.32129 149.469 3.86816 149.059 4.32715C149.352 4.67871 149.498 5.12305 149.498 5.66016C149.498 6.19727 149.312 6.68555 148.941 7.125C149.166 7.52539 149.278 7.92578 149.278 8.32617C149.278 8.72656 149.229 9.08789 149.132 9.41016C149.034 9.73242 148.893 10.0156 148.707 10.2598C148.307 10.8066 147.804 11.0801 147.198 11.0801C146.866 11.0801 146.642 10.958 146.524 10.7139C146.837 10.2646 146.993 9.59082 146.993 8.69238C146.993 7.78418 146.871 6.99805 146.627 6.33398C146.393 5.66016 146.08 5.09375 145.689 4.63477C144.898 3.7168 143.966 3.25781 142.892 3.25781C142.481 3.25781 142.125 3.31641 141.822 3.43359V10.2305C141.822 10.709 141.925 11.0654 142.13 11.2998C142.452 11.6807 142.945 12.0225 143.609 12.3252C142.896 12.6768 142.442 12.9648 142.247 13.1895C141.964 13.541 141.822 13.9414 141.822 14.3906V21.5244C141.998 21.915 142.267 22.2031 142.628 22.3887C142.999 22.5742 143.365 22.667 143.727 22.667C144.088 22.667 144.376 22.584 144.591 22.418C144.698 22.5645 144.752 22.7354 144.752 22.9307C144.752 23.1162 144.693 23.292 144.576 23.458C144.469 23.624 144.317 23.7656 144.122 23.8828C143.673 24.1562 143.146 24.293 142.54 24.293C141.944 24.293 141.373 24.1318 140.826 23.8096ZM137.838 20.1182C138.326 19.9326 138.595 19.293 138.644 18.1992C138.702 17.1055 138.731 15.5918 138.731 13.6582C138.731 11.7246 138.727 10.4404 138.717 9.80566C138.717 9.16113 138.712 8.64355 138.702 8.25293C138.673 7.10059 138.561 6.40723 138.365 6.17285C138.18 5.92871 138.004 5.76758 137.838 5.68945C137.838 9.08789 137.779 11.0215 137.662 11.4902C137.525 11.8809 137.193 12.1592 136.666 12.3252C137.252 12.5303 137.584 12.7793 137.662 13.0723C137.779 13.541 137.838 15.2549 137.838 18.2139V20.1182ZM158.463 23.8242C157.965 24.1367 157.398 24.293 156.764 24.293C156.129 24.293 155.562 24.1367 155.064 23.8242C154.566 24.1367 154.103 24.293 153.673 24.293C153.253 24.293 152.906 24.2539 152.633 24.1758C152.359 24.1074 152.12 24.0098 151.915 23.8828C151.495 23.6289 151.285 23.3115 151.285 22.9307C151.285 22.7354 151.339 22.5645 151.446 22.418C151.661 22.584 151.935 22.667 152.267 22.667C153.136 22.667 153.736 22.2959 154.068 21.5537V14.3906C154.068 13.9414 153.976 13.6094 153.79 13.3945C153.497 13.0332 152.994 12.6768 152.281 12.3252C152.945 12.0225 153.375 11.7539 153.57 11.5195C153.902 11.1387 154.068 10.709 154.068 10.2305V4.04883C153.736 3.29688 153.136 2.9209 152.267 2.9209C151.935 2.9209 151.661 3.00391 151.446 3.16992C151.339 3.02344 151.285 2.85742 151.285 2.67188C151.285 2.47656 151.339 2.2959 151.446 2.12988C151.563 1.96387 151.72 1.82227 151.915 1.70508C152.364 1.43164 152.877 1.29492 153.453 1.29492C154.039 1.29492 154.576 1.45605 155.064 1.77832C155.572 1.45605 156.139 1.29492 156.764 1.29492C157.389 1.29492 157.955 1.45605 158.463 1.77832C159.566 1.3584 160.787 1.14844 162.125 1.14844C163.473 1.14844 164.601 1.27051 165.509 1.51465C166.417 1.75879 167.198 2.10547 167.853 2.55469C169.171 3.46289 169.991 4.72754 170.313 6.34863C170.44 7.07129 170.904 7.61816 171.705 7.98926C170.943 8.41895 170.445 9.10254 170.211 10.04C169.732 11.9736 168.536 13.1797 166.622 13.6582C167.608 13.9219 168.414 14.4639 169.039 15.2842C169.684 16.1338 170.006 17.1348 170.006 18.2871V19.752C170.006 21.1582 170.46 22.0664 171.368 22.4766C171.642 22.6035 171.939 22.667 172.262 22.667C172.584 22.667 172.853 22.584 173.067 22.418C173.175 22.5645 173.229 22.7354 173.229 22.9307C173.229 23.1162 173.18 23.292 173.082 23.458C172.984 23.624 172.853 23.7656 172.687 23.8828C172.335 24.1562 171.925 24.293 171.456 24.293C170.987 24.293 170.528 24.166 170.079 23.9121C169.259 24.3613 168.492 24.4053 167.779 24.0439C167.506 24.21 167.218 24.293 166.915 24.293C166.612 24.293 166.319 24.2246 166.036 24.0879C165.763 23.9512 165.519 23.7266 165.304 23.4141C164.845 22.7402 164.615 21.7051 164.615 20.3086V19.2246C164.615 16.9688 163.971 15.5039 162.682 14.8301C162.252 14.6055 161.749 14.4932 161.173 14.4932H159.459V21.627C159.723 22.3203 160.226 22.667 160.968 22.667C161.3 22.667 161.573 22.584 161.788 22.418C161.896 22.5645 161.949 22.7793 161.949 23.0625C161.949 23.3457 161.793 23.624 161.48 23.8975C161.178 24.1611 160.719 24.293 160.104 24.293C159.488 24.293 158.941 24.1367 158.463 23.8242ZM162.271 3.09668C160.396 3.09668 159.459 3.82422 159.459 5.2793V11.2705C159.459 11.7783 159.659 12.1201 160.06 12.2959C160.44 12.4619 161.002 12.5449 161.744 12.5449C162.496 12.5449 163.019 12.5059 163.312 12.4277C163.614 12.3398 163.873 12.1934 164.088 11.9883C164.527 11.5684 164.747 10.8652 164.747 9.87891V5.60156C164.747 4.38086 164.239 3.59961 163.224 3.25781C162.921 3.15039 162.604 3.09668 162.271 3.09668ZM165.729 4.03418C166.031 4.71777 166.183 5.81152 166.183 7.31543C166.183 9.90332 166.061 11.4512 165.816 11.959C166.354 11.8516 166.739 11.1338 166.974 9.80566L167.091 9.20508C167.198 8.57031 167.511 8.16504 168.028 7.98926C167.647 7.8623 167.403 7.71094 167.296 7.53516C167.179 7.33008 167.071 6.9834 166.974 6.49512C166.886 5.99707 166.793 5.59668 166.695 5.29395C166.598 4.99121 166.495 4.75195 166.388 4.57617C166.202 4.26367 165.982 4.08301 165.729 4.03418ZM155.475 20.1182C155.963 19.9326 156.231 19.293 156.28 18.1992C156.339 17.1055 156.368 15.5918 156.368 13.6582C156.368 11.7246 156.363 10.4404 156.354 9.80566C156.354 9.16113 156.349 8.64355 156.339 8.25293C156.31 7.10059 156.197 6.40723 156.002 6.17285C155.816 5.92871 155.641 5.76758 155.475 5.68945C155.475 9.08789 155.416 11.0215 155.299 11.4902C155.162 11.8809 154.83 12.1592 154.303 12.3252C154.889 12.5303 155.221 12.7793 155.299 13.0723C155.416 13.541 155.475 15.2549 155.475 18.2139V20.1182ZM165.582 16.1045C165.973 16.5439 166.168 17.0811 166.168 17.7158V19.6494C166.168 21.2705 166.49 22.1348 167.135 22.2422C167.311 22.2715 167.481 22.2666 167.647 22.2275C167.296 21.6807 167.12 21.1045 167.12 20.499V18.4482C167.12 17.6768 167.013 17.1299 166.798 16.8076C166.427 16.2607 166.021 16.0264 165.582 16.1045ZM184.962 23.8242C184.464 24.1367 183.897 24.293 183.263 24.293C182.628 24.293 182.062 24.1367 181.563 23.8242C181.065 24.1367 180.602 24.293 180.172 24.293C179.752 24.293 179.396 24.2539 179.103 24.1758C178.819 24.1074 178.565 24.0098 178.341 23.8828C177.872 23.6289 177.638 23.3115 177.638 22.9307C177.638 22.7354 177.691 22.5645 177.799 22.418C178.014 22.584 178.297 22.667 178.648 22.667C179.01 22.667 179.371 22.5742 179.732 22.3887C180.104 22.2031 180.382 21.915 180.567 21.5244V18.6387C180.567 18.1895 180.479 17.8574 180.304 17.6426C179.991 17.2617 179.483 16.9004 178.78 16.5586C179.435 16.2559 179.864 15.9922 180.069 15.7676C180.401 15.3867 180.567 14.957 180.567 14.4785V13.9512L174.679 3.75586C174.112 3.24805 173.609 2.99414 173.17 2.99414C172.73 2.99414 172.384 3.07715 172.13 3.24316C172.022 3.16504 171.969 3.01855 171.969 2.80371C171.969 2.58887 172.003 2.39355 172.071 2.21777C172.14 2.03223 172.247 1.87109 172.394 1.73438C172.706 1.44141 173.16 1.29492 173.756 1.29492C174.352 1.29492 174.879 1.46582 175.338 1.80762C175.826 1.46582 176.402 1.29492 177.066 1.29492C177.74 1.29492 178.292 1.46094 178.722 1.79297C179.239 1.46094 179.723 1.29492 180.172 1.29492C180.621 1.29492 180.982 1.3291 181.256 1.39746C181.529 1.45605 181.769 1.54883 181.974 1.67578C182.413 1.92969 182.643 2.28125 182.662 2.73047C182.662 3.00391 182.608 3.1748 182.501 3.24316C182.237 3.07715 181.974 2.99414 181.71 2.99414C181.144 2.99414 180.685 3.09668 180.333 3.30176L184.713 11.71L188.873 3.28711C188.473 3.04297 188.009 2.9209 187.481 2.9209C186.964 2.9209 186.563 3.00391 186.28 3.16992C186.183 3.02344 186.134 2.79395 186.134 2.48145C186.134 2.16895 186.266 1.89551 186.529 1.66113C186.793 1.41699 187.169 1.29492 187.657 1.29492C188.146 1.29492 188.565 1.42188 188.917 1.67578C189.229 1.42188 189.61 1.29492 190.06 1.29492C190.509 1.29492 190.885 1.40234 191.188 1.61719C191.617 1.40234 192.047 1.29492 192.477 1.29492C192.906 1.29492 193.248 1.43652 193.502 1.71973C193.766 1.99316 193.897 2.34961 193.897 2.78906C193.897 3.01367 193.844 3.16504 193.736 3.24316C193.482 3.07715 193.17 2.99414 192.799 2.99414C192.154 2.99414 191.583 3.16992 191.085 3.52148L185.958 13.6729V14.4785C185.958 14.957 186.061 15.3135 186.266 15.5479C186.598 15.9189 187.091 16.2559 187.745 16.5586C187.042 16.9004 186.593 17.1885 186.397 17.4229C186.104 17.7842 185.958 18.1895 185.958 18.6387V21.5244C186.134 21.915 186.402 22.2031 186.764 22.3887C187.135 22.5742 187.501 22.667 187.862 22.667C188.224 22.667 188.512 22.584 188.727 22.418C188.834 22.5645 188.888 22.7354 188.888 22.9307C188.888 23.1162 188.824 23.292 188.697 23.458C188.57 23.624 188.399 23.7656 188.185 23.8828C187.696 24.1562 187.159 24.293 186.573 24.293C185.997 24.293 185.46 24.1367 184.962 23.8242ZM181.974 20.1182C182.491 19.9229 182.774 19.1562 182.823 17.8184C182.833 17.4082 182.838 16.9883 182.838 16.5586V14.1123C182.838 13.6436 182.75 13.2578 182.574 12.9551L179.571 7.52051C179.151 6.78809 178.849 6.33398 178.663 6.1582C178.37 5.88477 178.019 5.72852 177.608 5.68945L182.003 13.834V14.5518C182.003 15.1279 181.964 15.5234 181.886 15.7383C181.769 16.1094 181.407 16.3877 180.802 16.5732C181.456 16.8174 181.827 17.1152 181.915 17.4668C181.983 17.7402 182.018 18.0625 182.018 18.4336C182.018 18.7949 182.008 19.1123 181.988 19.3857C181.979 19.6592 181.974 19.9033 181.974 20.1182Z" fill="#CD7543"/>
</svg>
