<svg width="143" height="25" viewBox="0 0 143 25" fill="none" xmlns="http://www.w3.org/2000/svg">
<path d="M6.2998 24.293C5.65527 24.293 5.08398 24.1367 4.58594 23.8242C4.08789 24.1367 3.62402 24.293 3.19434 24.293C2.77441 24.293 2.42773 24.2539 2.1543 24.1758C1.88086 24.1074 1.6416 24.0098 1.43652 23.8828C1.0166 23.6289 0.806641 23.3115 0.806641 22.9307C0.806641 22.7354 0.860352 22.5645 0.967773 22.418C1.18262 22.584 1.45605 22.667 1.78809 22.667C2.65723 22.667 3.25781 22.2959 3.58984 21.5537V14.3906C3.58984 13.9414 3.49707 13.6094 3.31152 13.3945C3.01855 13.0332 2.51562 12.6768 1.80273 12.3252C2.4668 12.0225 2.89648 11.7539 3.0918 11.5195C3.42383 11.1387 3.58984 10.709 3.58984 10.2305V4.04883C3.25781 3.29688 2.65723 2.9209 1.78809 2.9209C1.45605 2.9209 1.18262 3.00391 0.967773 3.16992C0.860352 3.02344 0.806641 2.85742 0.806641 2.67188C0.806641 2.47656 0.860352 2.2959 0.967773 2.12988C1.08496 1.96387 1.24121 1.82227 1.43652 1.70508C1.88574 1.43164 2.39844 1.29492 2.97461 1.29492C3.56055 1.29492 4.09766 1.45605 4.58594 1.77832C5.09375 1.45605 5.6748 1.29492 6.3291 1.29492C6.9834 1.29492 7.5791 1.48535 8.11621 1.86621C9.15137 1.48535 10.3477 1.29492 11.7051 1.29492C12.7109 1.29492 13.5703 1.39258 14.2832 1.58789L15.5869 1.93945C15.7432 1.97852 15.8945 1.99805 16.041 1.99805C16.3145 1.99805 16.4512 1.80273 16.4512 1.41211C16.4512 1.31445 16.417 1.14844 16.3486 0.914062C16.6221 0.865234 16.9688 0.84082 17.3887 0.84082C17.8086 0.84082 18.165 0.982422 18.458 1.26562C18.751 1.53906 18.8975 1.93945 18.8975 2.4668C18.8975 2.98438 18.8047 3.36523 18.6191 3.60938C18.8828 4 19.0146 4.47852 19.0146 5.04492C19.0146 5.60156 18.8242 6.07031 18.4434 6.45117C18.5605 6.74414 18.6191 7.03223 18.6191 7.31543C18.6191 7.58887 18.5703 7.84277 18.4727 8.07715C18.3848 8.30176 18.2725 8.49219 18.1357 8.64844C17.8623 8.93164 17.584 9.07324 17.3008 9.07324C16.8906 9.07324 16.5195 8.98535 16.1875 8.80957C16.3047 8.5752 16.3633 8.22852 16.3633 7.76953C16.3633 6.69531 16.0947 5.75293 15.5576 4.94238C14.8252 3.8291 13.7266 3.27246 12.2617 3.27246C11.5195 3.27246 10.8457 3.45312 10.2402 3.81445C9.64453 4.17578 9.22461 4.69336 8.98047 5.36719V11.0361C9.32227 11.251 9.63965 11.3584 9.93262 11.3584C10.2354 11.3584 10.46 11.3535 10.6064 11.3438C10.7627 11.334 10.9189 11.3145 11.0752 11.2852C11.4756 11.2266 11.7832 11.1484 11.998 11.0508C12.4082 10.8555 12.6133 10.377 12.6133 9.61523C12.6133 9.18555 12.5107 8.85352 12.3057 8.61914C12.501 8.48242 12.7451 8.41406 13.0381 8.41406C13.6924 8.41406 14.166 8.67773 14.459 9.20508C14.5664 9.39062 14.6201 9.5957 14.6201 9.82031C14.6201 10.0449 14.5615 10.3232 14.4443 10.6553C14.8447 11.1143 15.0449 11.6611 15.0449 12.2959C15.0449 12.9209 14.8447 13.4629 14.4443 13.9219C14.5615 14.2539 14.6201 14.5566 14.6201 14.8301C14.6201 15.0938 14.5664 15.3477 14.459 15.5918C14.3516 15.8359 14.2197 16.0312 14.0635 16.1777C13.7607 16.4512 13.4189 16.5879 13.0381 16.5879C12.7646 16.5879 12.5205 16.5098 12.3057 16.3535C12.5107 16.0117 12.6133 15.6113 12.6133 15.1523C12.6133 14.2441 12.3643 13.6826 11.8662 13.4678C11.4268 13.292 10.9238 13.2041 10.3574 13.2041C9.79102 13.2041 9.33203 13.3066 8.98047 13.5117V20.8359C9.54688 21.832 10.6406 22.3301 12.2617 22.3301C14.0977 22.3301 15.3477 21.7637 16.0117 20.6309C16.7832 19.332 17.1689 17.9404 17.1689 16.4561C17.1689 16.0264 17.1299 15.6943 17.0518 15.46C17.2959 15.2158 17.5498 15.0938 17.8135 15.0938C18.0771 15.0938 18.2773 15.1328 18.4141 15.2109C18.5508 15.2793 18.6729 15.3672 18.7803 15.4746C19.0146 15.7383 19.1318 16.0068 19.1318 16.2803L19.0439 16.998C19.0439 17.1836 19.0928 17.335 19.1904 17.4521C19.3857 17.6572 19.4834 17.8525 19.4834 18.0381C19.4834 18.2139 19.4248 18.4287 19.3076 18.6826C19.5322 18.8096 19.7324 19 19.9082 19.2539C20.0938 19.498 20.1865 19.752 20.1865 20.0156C20.1865 20.5723 19.9521 21.0703 19.4834 21.5098C19.6885 21.8027 19.791 22.2275 19.791 22.7842C19.791 23.3311 19.6299 23.7949 19.3076 24.1758C18.9951 24.5664 18.585 24.7617 18.0771 24.7617C17.8037 24.7617 17.5205 24.7324 17.2275 24.6738C17.2666 24.459 17.2861 24.2441 17.2861 24.0293C17.2861 23.5801 17.0811 23.3555 16.6709 23.3555C16.2119 23.3555 15.7529 23.4482 15.2939 23.6338C14.21 24.0732 12.9746 24.293 11.5879 24.293C10.2109 24.293 9.03906 24.1123 8.07227 23.751C7.56445 24.1123 6.97363 24.293 6.2998 24.293ZM4.99609 20.1182C5.48438 19.9326 5.75293 19.293 5.80176 18.1992C5.86035 17.1055 5.88965 15.5918 5.88965 13.6582C5.88965 11.7246 5.88477 10.4404 5.875 9.80566C5.875 9.16113 5.87012 8.64355 5.86035 8.25293C5.83105 7.10059 5.71875 6.40723 5.52344 6.17285C5.33789 5.92871 5.16211 5.76758 4.99609 5.68945C4.99609 9.08789 4.9375 11.0215 4.82031 11.4902C4.68359 11.8809 4.35156 12.1592 3.82422 12.3252C4.41016 12.5303 4.74219 12.7793 4.82031 13.0723C4.9375 13.541 4.99609 15.2549 4.99609 18.2139V20.1182ZM8.6875 19.9717C8.6875 20.001 8.69238 20.0254 8.70215 20.0449L8.6875 19.9717ZM24.5518 23.8975C24.1904 24.1611 23.7754 24.293 23.3066 24.293C22.8477 24.293 22.4766 24.1758 22.1934 23.9414C21.9199 23.6973 21.7832 23.4189 21.7832 23.1064C21.7832 22.7939 21.832 22.5645 21.9297 22.418C22.2129 22.584 22.6572 22.667 23.2627 22.667C23.8779 22.667 24.3857 22.252 24.7861 21.4219V14.3906C24.7861 13.9316 24.6885 13.5898 24.4932 13.3652C24.2002 13.0137 23.7021 12.667 22.999 12.3252C23.7119 11.9834 24.1611 11.7002 24.3467 11.4756C24.6396 11.1045 24.7861 10.6895 24.7861 10.2305V4.04883C24.4541 3.29688 23.8535 2.9209 22.9844 2.9209C22.6523 2.9209 22.3789 3.00391 22.1641 3.16992C22.0566 3.02344 22.0029 2.85254 22.0029 2.65723C22.0029 2.46191 22.0518 2.28125 22.1494 2.11523C22.2471 1.94922 22.374 1.80273 22.5303 1.67578C22.8721 1.42188 23.3311 1.29492 23.9072 1.29492C24.4932 1.29492 24.9912 1.45605 25.4014 1.77832C25.6748 1.45605 26.0508 1.29492 26.5293 1.29492C27.0078 1.29492 27.3936 1.46094 27.6865 1.79297C27.9697 1.46094 28.2578 1.29492 28.5508 1.29492C28.8535 1.29492 29.0781 1.32422 29.2246 1.38281C29.3809 1.44141 29.5127 1.51953 29.6201 1.61719C29.7764 1.74414 29.9521 1.99316 30.1475 2.36426L39.2295 18.7266V14.2588C39.2295 13.8291 39.1367 13.5117 38.9512 13.3066C38.668 13.0039 38.165 12.6768 37.4424 12.3252C38.1162 11.9932 38.5508 11.7246 38.7461 11.5195C39.0684 11.1777 39.2295 10.7969 39.2295 10.377V4.23926C39.0049 3.8291 38.7266 3.50684 38.3945 3.27246C38.0723 3.03809 37.7012 2.9209 37.2812 2.9209C36.8711 2.9209 36.5244 3.00391 36.2412 3.16992C36.1338 2.99414 36.0801 2.75488 36.0801 2.45215C36.0801 2.13965 36.2314 1.87109 36.5342 1.64648C36.8369 1.41211 37.2324 1.29492 37.7207 1.29492C38.209 1.29492 38.6436 1.42188 39.0244 1.67578C39.3662 1.42188 39.7568 1.29492 40.1963 1.29492C40.6455 1.29492 41.041 1.42676 41.3828 1.69043C41.7637 1.42676 42.1836 1.29492 42.6426 1.29492C43.1016 1.29492 43.4678 1.41699 43.7412 1.66113C44.0244 1.89551 44.166 2.16895 44.166 2.48145C44.166 2.79395 44.1172 3.02344 44.0195 3.16992C43.7363 3.00391 43.2822 2.9209 42.6572 2.9209C42.0322 2.9209 41.5342 3.34082 41.1631 4.18066V10.377C41.1631 10.7969 41.251 11.1045 41.4268 11.2998C41.7197 11.6221 42.2275 11.9639 42.9502 12.3252C42.1592 12.7549 41.6855 13.0527 41.5293 13.2188C41.2852 13.4824 41.1631 13.8291 41.1631 14.2588L41.4268 21.7002C41.7783 22.3447 42.3301 22.667 43.082 22.667C43.4141 22.667 43.6875 22.584 43.9023 22.418C44.0098 22.5645 44.0635 22.7354 44.0635 22.9307C44.0635 23.126 44.0146 23.3066 43.917 23.4727C43.8193 23.6387 43.6924 23.7852 43.5361 23.9121C43.1943 24.166 42.7793 24.293 42.291 24.293C41.8027 24.293 41.3633 24.1953 40.9727 24C40.2012 24.4395 39.415 24.4053 38.6143 23.8975C38.3018 24.1611 38.0039 24.293 37.7207 24.293C37.4375 24.293 37.2275 24.2686 37.0908 24.2197C36.9541 24.1709 36.8271 24.083 36.71 23.9561C36.5244 23.7705 36.2363 23.3066 35.8457 22.5645L26.8369 7.03711V21.4219C27.2373 22.252 27.7451 22.667 28.3604 22.667C28.9756 22.667 29.4248 22.584 29.708 22.418C29.8154 22.5938 29.8691 22.8379 29.8691 23.1504C29.8691 23.4531 29.7178 23.7217 29.415 23.9561C29.1123 24.1807 28.7217 24.293 28.2432 24.293C27.7646 24.293 27.3252 24.1709 26.9248 23.9268C26.5732 24.1709 26.168 24.293 25.709 24.293C25.2598 24.293 24.874 24.1611 24.5518 23.8975ZM36.0068 20.1182C36.0752 20.0303 36.1094 19.8936 36.1094 19.708C36.1094 19.5127 36.0801 19.2979 36.0215 19.0635C35.9727 18.8193 35.8994 18.5605 35.8018 18.2871C35.5967 17.7402 35.3281 17.1543 34.9961 16.5293L28.7852 5.68945C28.7168 5.79688 28.6826 5.99219 28.6826 6.27539C28.6826 6.88086 29.0977 7.94043 29.9277 9.4541L36.0068 20.1182ZM61.6123 23.6484C60.1084 24.1758 58.6191 24.4395 57.1445 24.4395C55.6797 24.4395 54.3955 24.2295 53.292 23.8096C52.1982 23.3799 51.2314 22.7598 50.3916 21.9492C48.6045 20.2402 47.54 17.8721 47.1982 14.8447C47.0518 13.5752 46.5537 12.7354 45.7041 12.3252C46.5537 11.9248 47.0566 11.085 47.2129 9.80566C47.3691 8.5166 47.7402 7.33008 48.3262 6.24609C48.9121 5.15234 49.6641 4.22461 50.582 3.46289C52.457 1.91992 54.8057 1.14844 57.6279 1.14844C59.5713 1.14844 61.2021 1.59277 62.5205 2.48145C63.7412 3.30176 64.498 4.37109 64.791 5.68945C64.9473 6.43164 65.1475 6.89062 65.3916 7.06641C65.4893 7.14453 65.6113 7.21777 65.7578 7.28613C65.1816 8.14551 64.5957 8.50195 64 8.35547C63.8535 8.32617 63.7168 8.28711 63.5898 8.23828C63.375 8.66797 63.0967 9.02441 62.7549 9.30762C62.4131 9.59082 62.0322 9.75684 61.6123 9.80566C61.2021 9.84473 60.9434 9.81543 60.8359 9.71777C61.0801 9.35645 61.2021 8.89746 61.2021 8.34082C61.2021 8.27246 61.1875 8.18457 61.1582 8.07715C61.1094 8.09668 61.0654 8.10645 61.0264 8.10645C60.9873 8.10645 60.9141 8.11133 60.8066 8.12109C60.6992 8.12109 60.5479 8.08203 60.3525 8.00391C60.1572 7.92578 59.9766 7.81836 59.8105 7.68164C59.4395 7.38867 59.2441 7.06641 59.2246 6.71484C59.2246 6.63672 59.2393 6.55859 59.2686 6.48047C59.874 6.66602 60.4502 6.5293 60.9971 6.07031C61.3682 5.74805 61.5439 5.40625 61.5244 5.04492C61.5049 4.68359 61.4023 4.38574 61.2168 4.15137C61.041 3.90723 60.7871 3.69727 60.4551 3.52148C59.7129 3.13086 58.7607 2.93555 57.5986 2.93555C54.9521 2.93555 53.6289 4.46875 53.6289 7.53516V9.9668C53.6289 11.0703 54.166 11.8564 55.2402 12.3252C54.166 12.8428 53.6289 13.6875 53.6289 14.8594V18.7852C53.6289 20.0254 53.8633 20.9482 54.332 21.5537C54.8008 22.1494 55.543 22.4473 56.5586 22.4473C57.7598 22.4473 58.5557 21.9102 58.9463 20.8359C59.0732 20.4844 59.1367 20.0791 59.1367 19.6201V16.2363C58.9512 16.0508 58.6924 15.958 58.3604 15.958C58.0283 15.958 57.7549 16.041 57.54 16.207C57.4326 16.0996 57.3789 15.8945 57.3789 15.5918C57.3789 15.2891 57.5059 15.0059 57.7598 14.7422C58.0137 14.4688 58.3994 14.332 58.917 14.332C59.4443 14.332 59.8789 14.4736 60.2207 14.7568C60.6895 14.4736 61.1924 14.332 61.7295 14.332C62.2666 14.332 62.7549 14.4785 63.1943 14.7715C63.6045 14.4785 63.9902 14.332 64.3516 14.332C64.7129 14.332 64.9961 14.3662 65.2012 14.4346C65.4062 14.5029 65.5869 14.5957 65.7432 14.7129C66.0947 14.9766 66.2705 15.3037 66.2705 15.6943C66.2705 15.9287 66.2168 16.0996 66.1094 16.207C65.8848 16.041 65.5967 15.958 65.2451 15.958C64.8936 15.958 64.5518 16.29 64.2197 16.9541V21.7588C64.4053 22.3643 64.8105 22.667 65.4355 22.667C65.6699 22.667 65.8945 22.584 66.1094 22.418C66.2168 22.5645 66.2705 22.7354 66.2705 22.9307C66.2705 23.3311 66.0508 23.6582 65.6113 23.9121C65.1719 24.166 64.542 24.293 63.7217 24.293C62.9111 24.293 62.208 24.0781 61.6123 23.6484ZM50.5088 20.1182C50.6553 20.0596 50.7285 19.957 50.7285 19.8105C50.7285 19.5957 50.626 19.2588 50.4209 18.7998C50.2158 18.3311 50.0254 17.5449 49.8496 16.4414C49.6836 15.3281 49.6006 14.0391 49.6006 12.5742C49.6006 10.2012 49.8887 8.1748 50.4648 6.49512C50.5332 6.25098 50.5674 6.06543 50.5674 5.93848C50.5674 5.81152 50.5039 5.72852 50.377 5.68945C49.918 6.26562 49.5908 6.83691 49.3955 7.40332C49.0342 8.43848 48.7461 9.83984 48.5312 11.6074C48.502 11.8613 48.2139 12.1006 47.667 12.3252C48.2139 12.5693 48.502 12.8184 48.5312 13.0723C48.8828 16.0996 49.3271 18.1211 49.8643 19.1367C50.0596 19.498 50.2744 19.8252 50.5088 20.1182ZM60.6455 20.9971C61.2119 20.6455 61.4951 20.0254 61.4951 19.1367V18.3018C61.4951 17.4717 61.2119 16.9297 60.6455 16.6758V20.9971ZM64.1025 21.2607L64.0586 20.9678L64.1025 21.2607ZM73.3018 24.293C72.6572 24.293 72.0859 24.1367 71.5879 23.8242C71.0898 24.1367 70.626 24.293 70.1963 24.293C69.7764 24.293 69.4297 24.2539 69.1562 24.1758C68.8828 24.1074 68.6436 24.0098 68.4385 23.8828C68.0186 23.6289 67.8086 23.3115 67.8086 22.9307C67.8086 22.7354 67.8623 22.5645 67.9697 22.418C68.1846 22.584 68.458 22.667 68.79 22.667C69.6592 22.667 70.2598 22.2959 70.5918 21.5537V14.3906C70.5918 13.9414 70.499 13.6094 70.3135 13.3945C70.0205 13.0332 69.5176 12.6768 68.8047 12.3252C69.4688 12.0225 69.8984 11.7539 70.0938 11.5195C70.4258 11.1387 70.5918 10.709 70.5918 10.2305V4.04883C70.2598 3.29688 69.6592 2.9209 68.79 2.9209C68.458 2.9209 68.1846 3.00391 67.9697 3.16992C67.8623 3.02344 67.8086 2.85742 67.8086 2.67188C67.8086 2.47656 67.8623 2.2959 67.9697 2.12988C68.0869 1.96387 68.2432 1.82227 68.4385 1.70508C68.8877 1.43164 69.4004 1.29492 69.9766 1.29492C70.5625 1.29492 71.0996 1.45605 71.5879 1.77832C72.0957 1.45605 72.6621 1.29492 73.2871 1.29492C73.9121 1.29492 74.4785 1.45605 74.9863 1.77832C75.5332 1.45605 76.0312 1.29492 76.4805 1.29492C76.9297 1.29492 77.291 1.33398 77.5645 1.41211C77.8379 1.48047 78.0771 1.57812 78.2822 1.70508C78.7021 1.95898 78.9121 2.27637 78.9121 2.65723C78.9121 2.85254 78.8584 3.02344 78.751 3.16992C78.5361 3.00391 78.248 2.9209 77.8867 2.9209C77.5254 2.9209 77.1592 3.01855 76.7881 3.21387C76.4268 3.39941 76.1582 3.68262 75.9824 4.06348V10.2305C75.9824 10.709 76.085 11.0654 76.29 11.2998C76.6123 11.6807 77.1055 12.0225 77.7695 12.3252C77.0566 12.6768 76.6025 12.9648 76.4072 13.1895C76.124 13.541 75.9824 13.9414 75.9824 14.3906V20.792C76.627 21.8174 77.4326 22.3301 78.3994 22.3301C80.792 22.3301 82.3301 21.3145 83.0137 19.2832C83.3164 18.3848 83.4678 17.5645 83.4678 16.8223C83.4678 16.0703 83.3652 15.5674 83.1602 15.3135C83.3848 15.1279 83.6143 15.0352 83.8486 15.0352C84.0928 15.0352 84.3174 15.084 84.5225 15.1816C84.7275 15.2793 84.9131 15.4258 85.0791 15.6211C85.4209 16.0215 85.5918 16.4951 85.5918 17.042C85.5918 17.5889 85.5479 18.0088 85.46 18.3018C85.9092 18.6729 86.1338 19.1953 86.1338 19.8691C86.1338 20.543 85.9434 21.0898 85.5625 21.5098C85.8848 21.9199 86.0459 22.291 86.0459 22.623C86.0459 22.9551 85.9971 23.2432 85.8994 23.4873C85.8115 23.7217 85.6846 23.9316 85.5186 24.1172C85.1475 24.498 84.7031 24.6885 84.1855 24.6885C83.9316 24.6885 83.6973 24.6348 83.4824 24.5273C83.5215 24.3125 83.541 24.0977 83.541 23.8828C83.541 23.4336 83.3359 23.209 82.9258 23.209C82.623 23.209 82.2031 23.3311 81.666 23.5752C80.6309 24.0537 79.4492 24.293 78.1211 24.293C76.8027 24.293 75.7725 24.1221 75.0303 23.7803C74.5225 24.1221 73.9463 24.293 73.3018 24.293ZM71.998 20.1182C72.4863 19.9326 72.7549 19.293 72.8037 18.1992C72.8623 17.1055 72.8916 15.5918 72.8916 13.6582C72.8916 11.7246 72.8867 10.4404 72.877 9.80566C72.877 9.16113 72.8721 8.64355 72.8623 8.25293C72.833 7.10059 72.7207 6.40723 72.5254 6.17285C72.3398 5.92871 72.1641 5.76758 71.998 5.68945C71.998 9.08789 71.9395 11.0215 71.8223 11.4902C71.6855 11.8809 71.3535 12.1592 70.8262 12.3252C71.4121 12.5303 71.7441 12.7793 71.8223 13.0723C71.9395 13.541 71.998 15.2549 71.998 18.2139V20.1182ZM94.791 23.8242C94.293 24.1367 93.7266 24.293 93.0918 24.293C92.457 24.293 91.8906 24.1367 91.3926 23.8242C90.8945 24.1367 90.4307 24.293 90.001 24.293C89.5811 24.293 89.2344 24.2539 88.9609 24.1758C88.6875 24.1074 88.4482 24.0098 88.2432 23.8828C87.8232 23.6289 87.6133 23.3115 87.6133 22.9307C87.6133 22.7354 87.667 22.5645 87.7744 22.418C87.9893 22.584 88.2627 22.667 88.5947 22.667C89.4639 22.667 90.0645 22.2959 90.3965 21.5537V14.3906C90.3965 13.9414 90.3037 13.6094 90.1182 13.3945C89.8252 13.0332 89.3223 12.6768 88.6094 12.3252C89.2734 12.0225 89.7031 11.7539 89.8984 11.5195C90.2305 11.1387 90.3965 10.709 90.3965 10.2305V4.04883C90.0645 3.29688 89.4639 2.9209 88.5947 2.9209C88.2627 2.9209 87.9893 3.00391 87.7744 3.16992C87.667 3.02344 87.6133 2.85742 87.6133 2.67188C87.6133 2.47656 87.667 2.2959 87.7744 2.12988C87.8916 1.96387 88.0479 1.82227 88.2432 1.70508C88.6924 1.43164 89.2051 1.29492 89.7812 1.29492C90.3672 1.29492 90.9043 1.45605 91.3926 1.77832C91.9004 1.45605 92.4668 1.29492 93.0918 1.29492C93.7168 1.29492 94.2832 1.45605 94.791 1.77832C95.2793 1.45605 95.7383 1.29492 96.168 1.29492C96.5977 1.29492 96.9492 1.33398 97.2227 1.41211C97.4961 1.48047 97.7354 1.57812 97.9404 1.70508C98.3604 1.95898 98.5703 2.27637 98.5703 2.65723C98.5703 2.85254 98.5166 3.02344 98.4092 3.16992C98.1943 3.00391 97.9209 2.9209 97.5889 2.9209C96.7197 2.9209 96.1191 3.29688 95.7871 4.04883V10.2305C95.7871 10.709 95.8896 11.0654 96.0947 11.2998C96.417 11.6807 96.9102 12.0225 97.5742 12.3252C96.8613 12.6768 96.4072 12.9648 96.2119 13.1895C95.9287 13.541 95.7871 13.9414 95.7871 14.3906V21.5537C96.1191 22.2959 96.7197 22.667 97.5889 22.667C97.9209 22.667 98.1943 22.584 98.4092 22.418C98.5166 22.5645 98.5703 22.7354 98.5703 22.9307C98.5703 23.1162 98.5117 23.292 98.3945 23.458C98.2871 23.624 98.1357 23.7656 97.9404 23.8828C97.4912 24.1562 96.9785 24.293 96.4023 24.293C95.8262 24.293 95.2891 24.1367 94.791 23.8242ZM91.8027 20.1182C92.291 19.9326 92.5596 19.293 92.6084 18.1992C92.667 17.1055 92.6963 15.5918 92.6963 13.6582C92.6963 11.7246 92.6914 10.4404 92.6816 9.80566C92.6816 9.16113 92.6768 8.64355 92.667 8.25293C92.6377 7.10059 92.5254 6.40723 92.3301 6.17285C92.1445 5.92871 91.9688 5.76758 91.8027 5.68945C91.8027 9.08789 91.7441 11.0215 91.627 11.4902C91.4902 11.8809 91.1582 12.1592 90.6309 12.3252C91.2168 12.5303 91.5488 12.7793 91.627 13.0723C91.7441 13.541 91.8027 15.2549 91.8027 18.2139V20.1182ZM104.825 23.4287C104.044 24.21 103.302 24.6006 102.599 24.6006C102.149 24.6006 101.847 24.4346 101.69 24.1025C101.915 23.8291 102.027 23.4189 102.027 22.8721V22.6523C102.027 22.5938 102.022 22.54 102.013 22.4912C101.524 22.0518 101.28 21.5342 101.28 20.9385C101.28 20.333 101.563 19.7178 102.13 19.0928C101.964 18.7607 101.881 18.4092 101.881 18.0381C101.881 17.6572 101.935 17.3057 102.042 16.9834C102.159 16.6514 102.315 16.3633 102.511 16.1191C102.921 15.582 103.321 15.3135 103.712 15.3135C104.112 15.3135 104.396 15.4697 104.562 15.7822C104.21 16.1533 104.034 16.7344 104.034 17.5254C104.034 18.3164 104.146 19.0049 104.371 19.5908C104.605 20.1768 104.933 20.6797 105.353 21.0996C106.251 22.0176 107.398 22.4766 108.795 22.4766C109.732 22.4766 110.528 22.208 111.183 21.6709C111.886 21.0947 112.237 20.3086 112.237 19.3125C112.237 18.6094 112.071 18.0381 111.739 17.5986C111.222 16.915 110.411 16.1924 109.308 15.4307C108.458 14.835 107.779 14.5371 107.271 14.5371C106.754 14.5371 106.183 14.7471 105.558 15.167C105.724 14.6689 105.807 14.2051 105.807 13.7754C105.807 13.6777 105.714 13.5508 105.528 13.3945L104.986 12.9111C103.277 11.3389 102.267 9.87891 101.954 8.53125C101.847 8.0625 101.793 7.47656 101.793 6.77344C101.793 6.06055 101.964 5.34277 102.306 4.62012C102.657 3.8877 103.136 3.26758 103.741 2.75977C105.001 1.68555 106.603 1.14844 108.546 1.14844C109.728 1.14844 110.812 1.33887 111.798 1.71973C112.218 1.88574 112.696 1.96875 113.233 1.96875C113.458 1.96875 113.658 1.95898 113.834 1.93945C114.02 1.91016 114.181 1.80762 114.317 1.63184C114.444 1.44629 114.508 1.28027 114.508 1.13379C114.508 0.987305 114.488 0.865234 114.449 0.767578C114.518 0.738281 114.61 0.723633 114.728 0.723633C114.854 0.723633 114.991 0.767578 115.138 0.855469C115.284 0.933594 115.416 1.0459 115.533 1.19238C115.797 1.52441 115.929 1.90039 115.929 2.32031C115.929 2.73047 115.812 3.04297 115.577 3.25781C115.909 3.55078 116.075 4.00488 116.075 4.62012C116.075 5.22559 115.87 5.7334 115.46 6.14355C115.538 6.40723 115.577 6.64648 115.577 6.86133C115.577 7.06641 115.538 7.2666 115.46 7.46191C115.392 7.64746 115.294 7.80859 115.167 7.94531C114.884 8.24805 114.615 8.39941 114.361 8.39941C113.961 8.39941 113.624 8.33105 113.351 8.19434C113.517 7.80371 113.6 7.38379 113.6 6.93457C113.6 6.48535 113.497 6.02637 113.292 5.55762C113.097 5.0791 112.818 4.66406 112.457 4.3125C111.695 3.58984 110.699 3.22852 109.469 3.22852C108.688 3.22852 108.048 3.46777 107.55 3.94629C107.081 4.39551 106.847 4.9375 106.847 5.57227C106.847 6.05078 106.964 6.45117 107.198 6.77344C107.608 7.33008 108.258 7.90625 109.146 8.50195L109.85 8.9707C110.24 9.21484 110.504 9.33691 110.641 9.33691C110.777 9.33691 110.914 9.32227 111.051 9.29297C111.188 9.26367 111.339 9.22461 111.505 9.17578C111.856 9.05859 112.198 8.89258 112.53 8.67773L112.34 9.49805C112.281 9.77148 112.252 9.97168 112.252 10.0986C112.252 10.3037 112.354 10.4893 112.56 10.6553C114.386 12.2373 115.606 13.5605 116.222 14.625C116.759 15.5527 117.027 16.5537 117.027 17.6279C117.027 18.7021 116.852 19.625 116.5 20.3965C116.148 21.168 115.636 21.8516 114.962 22.4473C113.478 23.7754 111.549 24.4395 109.176 24.4395C107.506 24.4395 106.056 24.1025 104.825 23.4287ZM103.829 5.68945C103.458 5.8457 103.272 6.25098 103.272 6.90527C103.272 8.24316 104.166 9.71289 105.953 11.3145L106.832 12.1055C107.135 12.3789 107.267 12.5889 107.228 12.7354C107.198 12.8818 107.169 12.999 107.14 13.0869C107.12 13.1748 107.096 13.2578 107.066 13.3359C107.037 13.4141 107.018 13.4727 107.008 13.5117C107.35 13.3066 107.628 13.2041 107.843 13.2041C108.272 13.2041 108.678 13.3213 109.059 13.5557C110.943 14.7275 112.223 15.7725 112.896 16.6904C113.385 17.3643 113.639 18.2041 113.658 19.21C113.658 19.5713 113.634 19.874 113.585 20.1182C114.103 19.7861 114.361 19.2588 114.361 18.5361C114.361 17.833 114.264 17.291 114.068 16.9102C113.883 16.5293 113.663 16.1924 113.409 15.8994C113.155 15.5967 112.823 15.2695 112.413 14.918C112.013 14.5664 111.515 14.1855 110.919 13.7754L108.839 12.3545C107.13 11.2314 105.831 10.0449 104.942 8.79492C104.161 7.69141 103.79 6.65625 103.829 5.68945ZM126.212 23.8389C125.724 24.1416 125.172 24.293 124.557 24.293C123.941 24.293 123.414 24.1367 122.975 23.8242C122.477 24.1367 122.018 24.293 121.598 24.293C121.178 24.293 120.831 24.2539 120.558 24.1758C120.284 24.1074 120.05 24.0098 119.854 23.8828C119.425 23.6289 119.21 23.3115 119.21 22.9307C119.21 22.7354 119.264 22.5645 119.371 22.418C119.586 22.584 119.859 22.667 120.191 22.667C121.061 22.667 121.661 22.2959 121.993 21.5537V14.3906C121.993 13.6289 121.612 13.0527 120.851 12.6621L120.206 12.3252C121.075 11.9248 121.622 11.4902 121.847 11.0215C121.944 10.8066 121.993 10.543 121.993 10.2305V4.04883C121.661 3.29688 121.061 2.9209 120.191 2.9209C119.859 2.9209 119.586 3.00391 119.371 3.16992C119.264 3.02344 119.21 2.85742 119.21 2.67188C119.21 2.47656 119.264 2.2959 119.371 2.12988C119.488 1.96387 119.649 1.82227 119.854 1.70508C120.294 1.43164 120.797 1.29492 121.363 1.29492C121.939 1.29492 122.477 1.45117 122.975 1.76367C123.414 1.45117 123.941 1.29492 124.557 1.29492C125.182 1.29492 125.733 1.45117 126.212 1.76367C126.671 1.45117 127.184 1.29492 127.75 1.29492C128.58 1.29492 129.171 1.57324 129.522 2.12988C129.64 2.30566 129.698 2.49121 129.698 2.68652C129.698 2.88184 129.64 3.04297 129.522 3.16992C129.308 3.00391 129.039 2.9209 128.717 2.9209C127.965 2.9209 127.462 3.28711 127.208 4.01953V11.7539H134.137V4.01953C133.883 3.28711 133.38 2.9209 132.628 2.9209C132.306 2.9209 132.037 3.00391 131.822 3.16992C131.705 3.04297 131.646 2.88184 131.646 2.68652C131.646 2.49121 131.7 2.30566 131.808 2.12988C131.925 1.9541 132.071 1.80273 132.247 1.67578C132.618 1.42188 133.067 1.29492 133.595 1.29492C134.161 1.29492 134.674 1.45117 135.133 1.76367C135.631 1.45117 136.183 1.29492 136.788 1.29492C137.403 1.29492 137.931 1.45117 138.37 1.76367C138.849 1.45117 139.303 1.29492 139.732 1.29492C140.162 1.29492 140.514 1.33398 140.787 1.41211C141.061 1.48047 141.3 1.57812 141.505 1.70508C141.925 1.95898 142.135 2.27637 142.135 2.65723C142.135 2.85254 142.081 3.02344 141.974 3.16992C141.759 3.00391 141.485 2.9209 141.153 2.9209C140.284 2.9209 139.684 3.29688 139.352 4.04883V10.2305C139.352 10.9922 139.728 11.583 140.479 12.0029C140.694 12.1201 140.914 12.2275 141.139 12.3252C140.553 12.6084 140.157 12.8379 139.952 13.0137C139.552 13.3848 139.352 13.8438 139.352 14.3906V21.5537C139.684 22.2959 140.284 22.667 141.153 22.667C141.485 22.667 141.759 22.584 141.974 22.418C142.081 22.5645 142.135 22.7354 142.135 22.9307C142.135 23.1162 142.076 23.292 141.959 23.458C141.852 23.624 141.7 23.7656 141.505 23.8828C141.056 24.1562 140.538 24.293 139.952 24.293C139.376 24.293 138.849 24.1367 138.37 23.8242C137.931 24.1367 137.403 24.293 136.788 24.293C136.183 24.293 135.631 24.1367 135.133 23.8242C134.674 24.1367 134.161 24.293 133.595 24.293C132.765 24.293 132.169 24.0146 131.808 23.458C131.7 23.2822 131.646 23.0967 131.646 22.9014C131.646 22.7061 131.705 22.5449 131.822 22.418C132.037 22.584 132.306 22.667 132.628 22.667C133.38 22.667 133.883 22.3008 134.137 21.5684V13.8486H127.208V21.5684C127.462 22.3008 127.965 22.667 128.717 22.667C129.039 22.667 129.308 22.584 129.522 22.418C129.64 22.5449 129.698 22.7061 129.698 22.9014C129.698 23.0967 129.64 23.2822 129.522 23.458C129.415 23.6338 129.269 23.7852 129.083 23.9121C128.731 24.166 128.287 24.293 127.75 24.293C127.193 24.293 126.681 24.1416 126.212 23.8389ZM135.353 9.19043C135.343 10.2354 135.338 11.9688 135.338 14.3906C135.338 16.8125 135.372 18.2383 135.44 18.668C135.567 19.4883 135.821 19.9717 136.202 20.1182V18.2139C136.202 15.6162 136.222 14.1514 136.261 13.8193C136.3 13.4775 136.339 13.2383 136.378 13.1016C136.466 12.7598 136.764 12.501 137.271 12.3252C136.822 12.1885 136.524 11.9102 136.378 11.4902C136.261 11.0215 136.202 9.08789 136.202 5.68945C135.821 5.86523 135.587 6.2168 135.499 6.74414C135.411 7.32031 135.362 8.13574 135.353 9.19043ZM123.399 20.1182C123.868 19.9326 124.132 19.293 124.19 18.1992C124.239 17.1055 124.264 15.5918 124.264 13.6582C124.264 11.7246 124.259 10.4404 124.249 9.80566C124.249 9.16113 124.244 8.64355 124.234 8.25293C124.205 7.11035 124.098 6.41699 123.912 6.17285C123.736 5.92871 123.565 5.76758 123.399 5.68945C123.399 9.08789 123.341 11.0215 123.224 11.4902C123.087 11.8809 122.755 12.1592 122.228 12.3252C122.813 12.5303 123.146 12.7793 123.224 13.0723C123.341 13.541 123.399 15.2549 123.399 18.2139V20.1182Z" fill="#C1D15D"/>
</svg>
