<svg width="66" height="24" viewBox="0 0 66 24" fill={'none'} xmlns="http://www.w3.org/2000/svg">
<path d="M10.6641 22.8477C10.2578 23.1055 9.80469 23.2344 9.30469 23.2344C8.8125 23.2344 8.35547 23.1055 7.93359 22.8477C7.50391 23.1055 7.10938 23.2344 6.75 23.2344C6.39062 23.2344 6.10156 23.2031 5.88281 23.1406C5.66406 23.0859 5.47266 23.0078 5.30859 22.9062C4.97266 22.7031 4.80469 22.4492 4.80469 22.1445C4.80469 21.9883 4.84766 21.8516 4.93359 21.7344C5.10547 21.8672 5.33203 21.9336 5.61328 21.9336C5.90234 21.9336 6.19141 21.8594 6.48047 21.7109C6.77734 21.5625 7 21.332 7.14844 21.0195V15.3125C7.14844 14.9531 7.07422 14.6875 6.92578 14.5156C6.69141 14.2266 6.28906 13.9414 5.71875 13.6602C6.25 13.418 6.59375 13.2031 6.75 13.0156C7.01562 12.7109 7.14844 12.3672 7.14844 11.9844V6.54688C6.89062 6.45312 6.58203 6.40625 6.22266 6.40625C5.87109 6.40625 5.5 6.5 5.10938 6.6875C4.71875 6.875 4.36719 7.14844 4.05469 7.50781C3.35938 8.32031 3.01172 9.38281 3.01172 10.6953C3.01172 11.4531 3.13672 12.0117 3.38672 12.3711C3.29297 12.5664 3.11719 12.6641 2.85938 12.6641C2.60156 12.6641 2.37109 12.6055 2.16797 12.4883C1.96484 12.3711 1.78906 12.2109 1.64062 12.0078C1.33594 11.6016 1.18359 11.1641 1.18359 10.6953C1.18359 10.2266 1.26953 9.82812 1.44141 9.5C1.15234 9.15625 1.00781 8.76953 1.00781 8.33984C1.00781 7.90234 1.125 7.54297 1.35938 7.26172C1.03125 6.91016 0.867188 6.4375 0.867188 5.84375C0.867188 5.15625 1.18359 4.69531 1.81641 4.46094C2.00391 4.39062 2.16797 4.35547 2.30859 4.35547C2.57422 4.35547 2.77344 4.41406 2.90625 4.53125C2.85156 4.71875 2.82422 4.85156 2.82422 4.92969C2.82422 5.24219 2.93359 5.39844 3.15234 5.39844C3.26953 5.39844 3.39062 5.38281 3.51562 5.35156L4.04297 5.19922C4.95703 4.95703 5.71875 4.83594 6.32812 4.83594C6.9375 4.83594 7.47266 4.96875 7.93359 5.23438C8.33203 4.96875 8.78516 4.83594 9.29297 4.83594C9.80078 4.83594 10.2617 4.96875 10.6758 5.23438C11.1211 4.96875 11.582 4.83594 12.0586 4.83594C12.8164 4.83594 13.4805 4.91406 14.0508 5.07031L15.0938 5.35156C15.2188 5.38281 15.3398 5.39844 15.457 5.39844C15.6758 5.39844 15.7852 5.24219 15.7852 4.92969C15.7852 4.85156 15.7578 4.71875 15.7031 4.53125C15.8359 4.41406 16.0039 4.35547 16.207 4.35547C16.4102 4.35547 16.6055 4.39062 16.793 4.46094C16.9805 4.53125 17.1445 4.63281 17.2852 4.76562C17.5898 5.03906 17.7422 5.43359 17.7422 5.94922C17.7422 6.45703 17.5781 6.89453 17.25 7.26172C17.4844 7.54297 17.6016 7.89844 17.6016 8.32812C17.6016 8.75781 17.4531 9.14844 17.1562 9.5C17.3359 9.82031 17.4258 10.1406 17.4258 10.4609C17.4258 10.7812 17.3867 11.0703 17.3086 11.3281C17.2305 11.5859 17.1172 11.8125 16.9688 12.0078C16.6484 12.4453 16.2461 12.6641 15.7617 12.6641C15.4961 12.6641 15.3164 12.5664 15.2227 12.3711C15.4727 12.0117 15.5977 11.4727 15.5977 10.7539C15.5977 10.0273 15.5 9.39844 15.3047 8.86719C15.1172 8.32812 14.8672 7.875 14.5547 7.50781C13.9219 6.77344 13.1758 6.40625 12.3164 6.40625C11.9883 6.40625 11.7031 6.45312 11.4609 6.54688V11.9844C11.4609 12.3672 11.543 12.6523 11.707 12.8398C11.9648 13.1445 12.3594 13.418 12.8906 13.6602C12.3203 13.9414 11.957 14.1719 11.8008 14.3516C11.5742 14.6328 11.4609 14.9531 11.4609 15.3125V21.0195C11.6016 21.332 11.8164 21.5625 12.1055 21.7109C12.4023 21.8594 12.6953 21.9336 12.9844 21.9336C13.2734 21.9336 13.5039 21.8672 13.6758 21.7344C13.7617 21.8516 13.8047 21.9883 13.8047 22.1445C13.8047 22.293 13.7578 22.4336 13.6641 22.5664C13.5781 22.6992 13.457 22.8125 13.3008 22.9062C12.9414 23.125 12.5195 23.2344 12.0352 23.2344C11.5586 23.2344 11.1016 23.1055 10.6641 22.8477ZM8.27344 19.8945C8.66406 19.7461 8.87891 19.2344 8.91797 18.3594C8.96484 17.4844 8.98828 16.2734 8.98828 14.7266C8.98828 13.1797 8.98438 12.1523 8.97656 11.6445C8.97656 11.1289 8.97266 10.7148 8.96484 10.4023C8.94141 9.48047 8.85156 8.92578 8.69531 8.73828C8.54688 8.54297 8.40625 8.41406 8.27344 8.35156C8.27344 11.0703 8.22656 12.6172 8.13281 12.9922C8.02344 13.3047 7.75781 13.5273 7.33594 13.6602C7.80469 13.8242 8.07031 14.0234 8.13281 14.2578C8.22656 14.6328 8.27344 16.0039 8.27344 18.3711V19.8945ZM21.8789 21.6875C21.3867 21.1875 20.9961 20.5938 20.707 19.9062C20.4258 19.2188 20.2539 18.6289 20.1914 18.1367C20.1289 17.6445 20.0742 17.3281 20.0273 17.1875C19.9883 17.0469 19.918 16.9141 19.8164 16.7891C19.6133 16.5312 19.2422 16.2695 18.7031 16.0039C19.3828 15.6992 19.8164 15.2109 20.0039 14.5391C20.0586 14.3516 20.1016 14.1641 20.1328 13.9766C20.3359 12.5781 21.0117 11.4102 22.1602 10.4727C23.3086 9.52734 24.6484 9.05469 26.1797 9.05469C27.7734 9.05469 29.1445 9.53125 30.293 10.4844C31.4102 11.4141 32.0703 12.5781 32.2734 13.9766C32.3438 14.4688 32.4492 14.8281 32.5898 15.0547C32.8555 15.4688 33.2266 15.7852 33.7031 16.0039C33.1719 16.2617 32.8281 16.4883 32.6719 16.6836C32.4609 16.957 32.3281 17.2812 32.2734 17.6562C32.0234 19.5 31.3828 20.9023 30.3516 21.8633C29.3203 22.8164 27.9453 23.293 26.2266 23.293C24.3828 23.293 22.9336 22.7578 21.8789 21.6875ZM28.1953 13.6367C28.1953 11.6836 27.5312 10.707 26.2031 10.707C24.875 10.707 24.2109 11.6836 24.2109 13.6367V18.8281C24.2109 20.7031 24.8711 21.6406 26.1914 21.6406C27.5273 21.6406 28.1953 20.7031 28.1953 18.8281V13.6367ZM29.3203 19.8945C29.7109 19.7461 29.9258 19.2344 29.9648 18.3594C30.0117 17.4844 30.0352 16.8359 30.0352 16.4141C30.0352 15.9844 30.0312 15.6289 30.0234 15.3477C30.0234 15.0586 30.0195 14.7617 30.0117 14.457C29.9805 13.3164 29.8906 12.6523 29.7422 12.4648C29.5938 12.2773 29.4531 12.1523 29.3203 12.0898V19.8945ZM22.3008 19.8945C22.4102 19.8086 22.4648 19.7109 22.4648 19.6016C22.4648 19.4297 22.4297 19.2109 22.3594 18.9453C22.0391 17.7188 21.8789 16.8672 21.8789 16.3906C21.8789 15.9062 21.8945 15.5312 21.9258 15.2656C21.957 14.9922 21.9961 14.7188 22.043 14.4453C22.1445 13.9141 22.25 13.4453 22.3594 13.0391C22.4297 12.7734 22.4648 12.5938 22.4648 12.5C22.4648 12.3125 22.4102 12.1758 22.3008 12.0898C21.9727 12.4805 21.7227 13.0039 21.5508 13.6602C21.3789 14.3164 21.2383 14.8945 21.1289 15.3945C21.0898 15.6055 20.8594 15.8086 20.4375 16.0039C20.8594 16.1992 21.0898 16.3945 21.1289 16.5898C21.418 17.9102 21.6562 18.75 21.8438 19.1094C22.0312 19.4688 22.1836 19.7305 22.3008 19.8945ZM43.5117 21.8867C42.8008 22.8242 41.7344 23.293 40.3125 23.293C38.5781 23.293 37.2773 22.7734 36.4102 21.7344C36.0352 21.2891 35.7773 20.793 35.6367 20.2461C35.5586 19.918 35.4219 19.668 35.2266 19.4961C35.0312 19.3164 34.7891 19.1562 34.5 19.0156C35.0625 18.7578 35.4648 18.2734 35.707 17.5625C35.9648 16.8125 36.3945 16.2695 36.9961 15.9336C37.6445 15.582 38.3594 15.3984 39.1406 15.3828C39.9219 15.3594 40.5 15.332 40.875 15.3008C41.25 15.2695 41.582 15.2188 41.8711 15.1484C42.4102 15.0234 42.832 14.793 43.1367 14.457V12.6992C43.1367 11.9258 42.9766 11.3594 42.6562 11C42.3438 10.6406 41.8633 10.4609 41.2148 10.4609C40.5742 10.4609 40.0977 10.582 39.7852 10.8242C39.4805 11.0586 39.3281 11.375 39.3281 11.7734C39.3281 12.3828 39.6406 12.6797 40.2656 12.6641C40.1406 13.2734 39.8125 13.5781 39.2812 13.5781C39.125 13.5781 38.9727 13.5508 38.8242 13.4961V13.5312C38.8242 13.7344 38.918 13.8633 39.1055 13.918C38.9102 14.2148 38.582 14.3594 38.1211 14.3516C37.6602 14.3438 37.3008 14.0977 37.043 13.6133C36.9258 13.6445 36.7891 13.6602 36.6328 13.6602C36.4844 13.6602 36.3164 13.6094 36.1289 13.5078C35.9492 13.4062 35.8047 13.2656 35.6953 13.0859C36.0859 12.8516 36.3242 12.4883 36.4102 11.9961C36.5039 11.3945 36.9844 10.7852 37.8516 10.168C38.8984 9.42578 40.2344 9.05469 41.8594 9.05469C44.5547 9.05469 46.1992 9.88281 46.793 11.5391C46.9883 12.0938 47.0859 12.75 47.0859 13.5078V14.457C47.0859 14.8398 47.1797 15.1523 47.3672 15.3945C47.5625 15.6367 47.8906 15.8359 48.3516 15.9922C47.8594 16.2188 47.543 16.4219 47.4023 16.6016C47.1914 16.875 47.0859 17.1875 47.0859 17.5391V21.0547C47.3125 21.6406 47.6367 21.9336 48.0586 21.9336C48.3242 21.9336 48.543 21.8672 48.7148 21.7344C48.8242 21.8828 48.8789 22.0703 48.8789 22.2969C48.8789 22.5156 48.7656 22.7266 48.5391 22.9297C48.3203 23.1328 47.9883 23.2344 47.543 23.2344C47.0977 23.2344 46.6836 23.1094 46.3008 22.8594C45.9648 23.1094 45.6641 23.2344 45.3984 23.2344C45.1406 23.2344 44.9141 23.207 44.7188 23.1523C44.5312 23.1055 44.3555 23.0273 44.1914 22.918C43.8242 22.6758 43.5977 22.332 43.5117 21.8867ZM44.25 19.8945C44.7031 19.7148 44.9414 18.8516 44.9648 17.3047C44.9648 16.9766 44.9648 16.6016 44.9648 16.1797C44.9648 15.7578 44.9609 15.3984 44.9531 15.1016C44.9531 14.7969 44.9492 14.5078 44.9414 14.2344C44.9102 13.25 44.8203 12.6641 44.6719 12.4766C44.5234 12.2812 44.3828 12.1523 44.25 12.0898V19.8945ZM39.9258 19.0625C39.9258 19.3906 39.9609 19.7109 40.0312 20.0234C40.1016 20.3359 40.207 20.6094 40.3477 20.8438C40.6602 21.3359 41.1016 21.582 41.6719 21.582C42.1016 21.582 42.457 21.4062 42.7383 21.0547C43.0039 20.7109 43.1367 20.2695 43.1367 19.7305V15.9102C42.6367 16.1992 41.9961 16.3984 41.2148 16.5078C40.3555 16.6406 39.9258 17.4922 39.9258 19.0625ZM38.168 21.6992C38.2461 21.6445 38.2852 21.5742 38.2852 21.4883C38.2852 21.3711 38.2305 21.207 38.1211 20.9961C37.7305 20.2773 37.5352 19.6875 37.5352 19.2266C37.5352 18.7656 37.5508 18.4336 37.582 18.2305C37.6211 18.0273 37.668 17.8555 37.7227 17.7148C37.7852 17.5664 37.8516 17.4375 37.9219 17.3281C38 17.2188 38.0664 17.1211 38.1211 17.0352C38.2227 16.8555 38.2734 16.7344 38.2734 16.6719C38.2734 16.6016 38.2383 16.543 38.168 16.4961C37.8477 16.6445 37.6133 16.8203 37.4648 17.0234C37.1992 17.3828 37.0039 17.8477 36.8789 18.418C36.8477 18.582 36.5742 18.7812 36.0586 19.0156C36.5586 19.2422 36.832 19.4414 36.8789 19.6133C37.1445 20.543 37.5742 21.2383 38.168 21.6992ZM40.4766 1.39062C40.7578 1.07812 41.2422 0.921875 41.9297 0.921875C42.75 0.921875 43.3008 1.28906 43.582 2.02344C43.668 2.25 43.7109 2.54688 43.7109 2.91406C43.7109 3.27344 43.6211 3.67578 43.4414 4.12109C43.2695 4.56641 43.0312 4.97656 42.7266 5.35156C42.0625 6.15625 41.2344 6.68359 40.2422 6.93359C40.0156 6.99609 39.7812 7.02734 39.5391 7.02734C39.3047 7.02734 39.1875 6.92188 39.1875 6.71094C39.1875 6.55469 39.3008 6.33203 39.5273 6.04297C39.7617 5.75391 39.9961 5.28516 40.2305 4.63672C40.4727 3.98047 40.5938 3.33203 40.5938 2.69141C40.5938 2.04297 40.5547 1.60938 40.4766 1.39062ZM41.3555 1.66016C41.4414 1.84766 41.4844 2.09766 41.4844 2.41016C41.4844 3.75391 41.1641 4.86328 40.5234 5.73828C40.8984 5.82422 41.2656 5.46094 41.625 4.64844C41.9688 3.89062 42.1406 3.26172 42.1406 2.76172C42.1406 1.97266 41.957 1.57812 41.5898 1.57812C41.4883 1.57812 41.4102 1.60547 41.3555 1.66016ZM52.5586 22.8594C52.1992 23.1094 51.7891 23.2344 51.3281 23.2344C50.8672 23.2344 50.5312 23.1289 50.3203 22.918C50.1172 22.6992 50.0156 22.4922 50.0156 22.2969C50.0156 22.0391 50.0586 21.8516 50.1445 21.7344C50.3164 21.8672 50.5352 21.9336 50.8008 21.9336C51.3008 21.9336 51.625 21.6914 51.7734 21.207V17.5625C51.7734 17.2188 51.6992 16.9688 51.5508 16.8125C51.3242 16.5547 50.9219 16.2852 50.3438 16.0039C50.8906 15.7539 51.2383 15.5547 51.3867 15.4062C51.6445 15.1484 51.7734 14.832 51.7734 14.457V12.7461C51.7734 12.082 51.5469 11.7227 51.0938 11.668C50.9609 11.6523 50.793 11.6445 50.5898 11.6445C50.3867 11.6445 50.1992 11.7109 50.0273 11.8438C49.918 11.6953 49.8633 11.543 49.8633 11.3867C49.8633 11.2227 49.9023 11.043 49.9805 10.8477C50.0664 10.6445 50.1914 10.4531 50.3555 10.2734C50.7695 9.85156 51.2461 9.64062 51.7852 9.64062C52.332 9.64062 52.7852 9.72656 53.1445 9.89844C53.5742 9.41406 54.0117 9.17188 54.457 9.17188C54.9023 9.17188 55.2109 9.27734 55.3828 9.48828C55.5547 9.69141 55.6406 10.0078 55.6406 10.4375V11.5391C56.0469 10.8125 56.6016 10.2383 57.3047 9.81641C58.0078 9.38672 58.7539 9.17188 59.543 9.17188C60.332 9.17188 60.9648 9.27734 61.4414 9.48828C61.9258 9.69141 62.3242 9.98438 62.6367 10.3672C63.2461 11.125 63.5508 12.2266 63.5508 13.6719V14.4453C63.5508 14.8203 63.6328 15.0898 63.7969 15.2539C64.0391 15.5039 64.4336 15.7539 64.9805 16.0039C64.3945 16.293 64.0273 16.5117 63.8789 16.6602C63.6602 16.9023 63.5508 17.1953 63.5508 17.5391V21.207C63.6992 21.6914 64.0234 21.9336 64.5234 21.9336C64.7891 21.9336 65.0078 21.8672 65.1797 21.7344C65.2656 21.8516 65.3086 22.0234 65.3086 22.25C65.3086 22.4766 65.2031 22.6992 64.9922 22.918C64.7891 23.1289 64.4727 23.2344 64.043 23.2344C63.6133 23.2344 63.2227 23.1133 62.8711 22.8711C62.5586 23.1133 62.1914 23.2344 61.7695 23.2344C61.3555 23.2344 60.9844 23.1172 60.6562 22.8828C60.3125 23.1172 59.9453 23.2344 59.5547 23.2344C59.1641 23.2344 58.8555 23.1367 58.6289 22.9414C58.4023 22.7461 58.2891 22.4648 58.2891 22.0977C58.2891 21.9258 58.3477 21.7891 58.4648 21.6875C58.6445 21.8281 58.8242 21.8984 59.0039 21.8984C59.3477 21.8984 59.5938 21.707 59.7422 21.3242V14.3398C59.7422 12.8242 59.3711 11.9453 58.6289 11.7031C58.3867 11.625 58.125 11.5859 57.8438 11.5859C57.5625 11.5859 57.3008 11.6445 57.0586 11.7617C56.8164 11.8711 56.5977 12.0273 56.4023 12.2305C55.9727 12.6836 55.7188 13.2227 55.6406 13.8477V21.3242C55.7891 21.707 56.0352 21.8984 56.3789 21.8984C56.5586 21.8984 56.7383 21.8281 56.918 21.6875C57.0352 21.7891 57.0938 21.9766 57.0938 22.25C57.0938 22.5156 56.9805 22.7461 56.7539 22.9414C56.5273 23.1367 56.2266 23.2344 55.8516 23.2344C55.4844 23.2344 55.1484 23.1172 54.8438 22.8828C54.5469 23.1172 54.1836 23.2344 53.7539 23.2344C53.3242 23.2344 52.9258 23.1094 52.5586 22.8594ZM60.8672 19.8945C61.2578 19.7461 61.4727 19.2344 61.5117 18.3594C61.5586 17.4844 61.582 16.6602 61.582 15.8867C61.582 15.1133 61.5508 14.4766 61.4883 13.9766C61.4258 13.4688 61.3359 13.0742 61.2188 12.793C61.1016 12.5039 60.9609 12.2969 60.7969 12.1719C60.6406 12.0391 60.4688 11.9258 60.2812 11.832C60.5781 12.5352 60.75 13.1758 60.7969 13.7539C60.8438 14.332 60.8672 14.8906 60.8672 15.4297V19.8945ZM53.5664 17.3047C53.5742 17.0469 53.5781 16.832 53.5781 16.6602C53.5859 16.4805 53.5898 16.3359 53.5898 16.2266C53.5898 16.1172 53.5898 16.0078 53.5898 15.8984C53.5898 15.7812 53.5859 15.6289 53.5781 15.4414C53.5781 15.2539 53.5742 15.0469 53.5664 14.8203C53.5664 14.5938 53.5586 14.3711 53.543 14.1523C53.5195 13.6133 53.4844 13.2422 53.4375 13.0391C53.3438 12.5859 53.1641 12.2734 52.8984 12.1016V12.8633C52.8984 14.1758 52.8672 14.9492 52.8047 15.1836C52.75 15.4102 52.6562 15.582 52.5234 15.6992C52.3984 15.8164 52.2109 15.918 51.9609 16.0039C52.4297 16.168 52.6953 16.3633 52.7578 16.5898C52.8516 16.9648 52.8984 17.8086 52.8984 19.1211V19.8828C53.2578 19.6484 53.4648 19.1719 53.5195 18.4531C53.5508 17.9453 53.5664 17.5625 53.5664 17.3047Z" fill="#994040"/>
</svg>
