<svg width="232" height="25" viewBox="0 0 232 25" fill="none" xmlns="http://www.w3.org/2000/svg">
<path d="M5.94629 24.293C5.30176 24.293 4.73047 24.1367 4.23242 23.8242C3.73438 24.1367 3.27051 24.293 2.84082 24.293C2.4209 24.293 2.07422 24.2539 1.80078 24.1758C1.52734 24.1074 1.28809 24.0098 1.08301 23.8828C0.663086 23.6289 0.453125 23.3115 0.453125 22.9307C0.453125 22.7354 0.506836 22.5645 0.614258 22.418C0.829102 22.584 1.10254 22.667 1.43457 22.667C2.30371 22.667 2.9043 22.2959 3.23633 21.5537V14.3906C3.23633 13.9414 3.14355 13.6094 2.95801 13.3945C2.66504 13.0332 2.16211 12.6768 1.44922 12.3252C2.11328 12.0225 2.54297 11.7539 2.73828 11.5195C3.07031 11.1387 3.23633 10.709 3.23633 10.2305V4.04883C2.9043 3.29688 2.30371 2.9209 1.43457 2.9209C1.10254 2.9209 0.829102 3.00391 0.614258 3.16992C0.506836 3.02344 0.453125 2.85742 0.453125 2.67188C0.453125 2.47656 0.506836 2.2959 0.614258 2.12988C0.731445 1.96387 0.887695 1.82227 1.08301 1.70508C1.53223 1.43164 2.04492 1.29492 2.62109 1.29492C3.20703 1.29492 3.74414 1.45605 4.23242 1.77832C4.74023 1.45605 5.30664 1.29492 5.93164 1.29492C6.55664 1.29492 7.12305 1.45605 7.63086 1.77832C8.17773 1.45605 8.67578 1.29492 9.125 1.29492C9.57422 1.29492 9.93555 1.33398 10.209 1.41211C10.4824 1.48047 10.7217 1.57812 10.9268 1.70508C11.3467 1.95898 11.5566 2.27637 11.5566 2.65723C11.5566 2.85254 11.5029 3.02344 11.3955 3.16992C11.1807 3.00391 10.8926 2.9209 10.5312 2.9209C10.1699 2.9209 9.80371 3.01855 9.43262 3.21387C9.07129 3.39941 8.80273 3.68262 8.62695 4.06348V10.2305C8.62695 10.709 8.72949 11.0654 8.93457 11.2998C9.25684 11.6807 9.75 12.0225 10.4141 12.3252C9.70117 12.6768 9.24707 12.9648 9.05176 13.1895C8.76855 13.541 8.62695 13.9414 8.62695 14.3906V20.792C9.27148 21.8174 10.0771 22.3301 11.0439 22.3301C13.4365 22.3301 14.9746 21.3145 15.6582 19.2832C15.9609 18.3848 16.1123 17.5645 16.1123 16.8223C16.1123 16.0703 16.0098 15.5674 15.8047 15.3135C16.0293 15.1279 16.2588 15.0352 16.4932 15.0352C16.7373 15.0352 16.9619 15.084 17.167 15.1816C17.3721 15.2793 17.5576 15.4258 17.7236 15.6211C18.0654 16.0215 18.2363 16.4951 18.2363 17.042C18.2363 17.5889 18.1924 18.0088 18.1045 18.3018C18.5537 18.6729 18.7783 19.1953 18.7783 19.8691C18.7783 20.543 18.5879 21.0898 18.207 21.5098C18.5293 21.9199 18.6904 22.291 18.6904 22.623C18.6904 22.9551 18.6416 23.2432 18.5439 23.4873C18.4561 23.7217 18.3291 23.9316 18.1631 24.1172C17.792 24.498 17.3477 24.6885 16.8301 24.6885C16.5762 24.6885 16.3418 24.6348 16.127 24.5273C16.166 24.3125 16.1855 24.0977 16.1855 23.8828C16.1855 23.4336 15.9805 23.209 15.5703 23.209C15.2676 23.209 14.8477 23.3311 14.3105 23.5752C13.2754 24.0537 12.0938 24.293 10.7656 24.293C9.44727 24.293 8.41699 24.1221 7.6748 23.7803C7.16699 24.1221 6.59082 24.293 5.94629 24.293ZM4.64258 20.1182C5.13086 19.9326 5.39941 19.293 5.44824 18.1992C5.50684 17.1055 5.53613 15.5918 5.53613 13.6582C5.53613 11.7246 5.53125 10.4404 5.52148 9.80566C5.52148 9.16113 5.5166 8.64355 5.50684 8.25293C5.47754 7.10059 5.36523 6.40723 5.16992 6.17285C4.98438 5.92871 4.80859 5.76758 4.64258 5.68945C4.64258 9.08789 4.58398 11.0215 4.4668 11.4902C4.33008 11.8809 3.99805 12.1592 3.4707 12.3252C4.05664 12.5303 4.38867 12.7793 4.4668 13.0723C4.58398 13.541 4.64258 15.2549 4.64258 18.2139V20.1182ZM27.4355 23.8242C26.9375 24.1367 26.3711 24.293 25.7363 24.293C25.1016 24.293 24.5352 24.1367 24.0371 23.8242C23.5391 24.1367 23.0752 24.293 22.6455 24.293C22.2256 24.293 21.8789 24.2539 21.6055 24.1758C21.332 24.1074 21.0928 24.0098 20.8877 23.8828C20.4678 23.6289 20.2578 23.3115 20.2578 22.9307C20.2578 22.7354 20.3115 22.5645 20.4189 22.418C20.6338 22.584 20.9072 22.667 21.2393 22.667C22.1084 22.667 22.709 22.2959 23.041 21.5537V14.3906C23.041 13.9414 22.9482 13.6094 22.7627 13.3945C22.4697 13.0332 21.9668 12.6768 21.2539 12.3252C21.918 12.0225 22.3477 11.7539 22.543 11.5195C22.875 11.1387 23.041 10.709 23.041 10.2305V4.04883C22.709 3.29688 22.1084 2.9209 21.2393 2.9209C20.9072 2.9209 20.6338 3.00391 20.4189 3.16992C20.3115 3.02344 20.2578 2.85742 20.2578 2.67188C20.2578 2.47656 20.3115 2.2959 20.4189 2.12988C20.5361 1.96387 20.6924 1.82227 20.8877 1.70508C21.3369 1.43164 21.8496 1.29492 22.4258 1.29492C23.0117 1.29492 23.5488 1.45605 24.0371 1.77832C24.5449 1.45605 25.1113 1.29492 25.7363 1.29492C26.3613 1.29492 26.9277 1.45605 27.4355 1.77832C27.9238 1.45605 28.3828 1.29492 28.8125 1.29492C29.2422 1.29492 29.5938 1.33398 29.8672 1.41211C30.1406 1.48047 30.3799 1.57812 30.585 1.70508C31.0049 1.95898 31.2148 2.27637 31.2148 2.65723C31.2148 2.85254 31.1611 3.02344 31.0537 3.16992C30.8389 3.00391 30.5654 2.9209 30.2334 2.9209C29.3643 2.9209 28.7637 3.29688 28.4316 4.04883V10.2305C28.4316 10.709 28.5342 11.0654 28.7393 11.2998C29.0615 11.6807 29.5547 12.0225 30.2188 12.3252C29.5059 12.6768 29.0518 12.9648 28.8564 13.1895C28.5732 13.541 28.4316 13.9414 28.4316 14.3906V21.5537C28.7637 22.2959 29.3643 22.667 30.2334 22.667C30.5654 22.667 30.8389 22.584 31.0537 22.418C31.1611 22.5645 31.2148 22.7354 31.2148 22.9307C31.2148 23.1162 31.1562 23.292 31.0391 23.458C30.9316 23.624 30.7803 23.7656 30.585 23.8828C30.1357 24.1562 29.623 24.293 29.0469 24.293C28.4707 24.293 27.9336 24.1367 27.4355 23.8242ZM24.4473 20.1182C24.9355 19.9326 25.2041 19.293 25.2529 18.1992C25.3115 17.1055 25.3408 15.5918 25.3408 13.6582C25.3408 11.7246 25.3359 10.4404 25.3262 9.80566C25.3262 9.16113 25.3213 8.64355 25.3115 8.25293C25.2822 7.10059 25.1699 6.40723 24.9746 6.17285C24.7891 5.92871 24.6133 5.76758 24.4473 5.68945C24.4473 9.08789 24.3887 11.0215 24.2715 11.4902C24.1348 11.8809 23.8027 12.1592 23.2754 12.3252C23.8613 12.5303 24.1934 12.7793 24.2715 13.0723C24.3887 13.541 24.4473 15.2549 24.4473 18.2139V20.1182ZM45.0723 23.8096C44.5645 24.1318 43.998 24.293 43.373 24.293C42.7578 24.293 42.1865 24.1318 41.6592 23.8096C41.1221 24.1318 40.6289 24.293 40.1797 24.293C39.7305 24.293 39.3691 24.2539 39.0957 24.1758C38.8223 24.1074 38.583 24.0098 38.3779 23.8828C37.958 23.6289 37.748 23.3115 37.748 22.9307C37.748 22.7354 37.8018 22.5645 37.9092 22.418C38.124 22.584 38.4072 22.667 38.7588 22.667C39.1201 22.667 39.4814 22.5742 39.8428 22.3887C40.2139 22.2031 40.4922 21.915 40.6777 21.5244V14.3906C40.6777 13.9414 40.585 13.6094 40.3994 13.3945C40.1064 13.0332 39.6035 12.6768 38.8906 12.3252C39.5547 12.0225 39.9844 11.7539 40.1797 11.5195C40.5117 11.1387 40.6777 10.709 40.6777 10.2305V3.43359C40.3555 3.31641 39.9697 3.25781 39.5205 3.25781C39.0811 3.25781 38.6172 3.375 38.1289 3.60938C37.6406 3.84375 37.2012 4.18555 36.8105 4.63477C35.9414 5.65039 35.5068 6.97852 35.5068 8.61914C35.5068 9.56641 35.6631 10.2646 35.9756 10.7139C35.8584 10.958 35.6387 11.0801 35.3164 11.0801C34.9941 11.0801 34.7061 11.0068 34.4521 10.8604C34.1982 10.7139 33.9785 10.5137 33.793 10.2598C33.4121 9.75195 33.2217 9.20508 33.2217 8.61914C33.2217 8.0332 33.3291 7.53516 33.5439 7.125C33.1826 6.69531 33.002 6.21191 33.002 5.6748C33.002 5.12793 33.1484 4.67871 33.4414 4.32715C33.0312 3.8877 32.8262 3.29688 32.8262 2.55469C32.8262 1.69531 33.2217 1.11914 34.0127 0.826172C34.2471 0.738281 34.4521 0.694336 34.6279 0.694336C34.96 0.694336 35.209 0.767578 35.375 0.914062C35.3066 1.14844 35.2725 1.31445 35.2725 1.41211C35.2725 1.80273 35.4092 1.99805 35.6826 1.99805C35.8291 1.99805 35.9805 1.97852 36.1367 1.93945L36.7959 1.74902C37.9385 1.44629 38.8906 1.29492 39.6523 1.29492C40.4141 1.29492 41.083 1.46094 41.6592 1.79297C42.1572 1.46094 42.7236 1.29492 43.3584 1.29492C43.9932 1.29492 44.5693 1.46094 45.0869 1.79297C45.6436 1.46094 46.2197 1.29492 46.8154 1.29492C47.7627 1.29492 48.5928 1.39258 49.3057 1.58789L50.6094 1.93945C50.7656 1.97852 50.917 1.99805 51.0635 1.99805C51.3369 1.99805 51.4736 1.80273 51.4736 1.41211C51.4736 1.31445 51.4395 1.14844 51.3711 0.914062C51.5371 0.767578 51.7471 0.694336 52.001 0.694336C52.2549 0.694336 52.499 0.738281 52.7334 0.826172C52.9678 0.914062 53.1729 1.04102 53.3486 1.20703C53.7295 1.54883 53.9199 2.04199 53.9199 2.68652C53.9199 3.32129 53.7148 3.86816 53.3047 4.32715C53.5977 4.67871 53.7441 5.12305 53.7441 5.66016C53.7441 6.19727 53.5586 6.68555 53.1875 7.125C53.4121 7.52539 53.5244 7.92578 53.5244 8.32617C53.5244 8.72656 53.4756 9.08789 53.3779 9.41016C53.2803 9.73242 53.1387 10.0156 52.9531 10.2598C52.5527 10.8066 52.0498 11.0801 51.4443 11.0801C51.1123 11.0801 50.8877 10.958 50.7705 10.7139C51.083 10.2646 51.2393 9.59082 51.2393 8.69238C51.2393 7.78418 51.1172 6.99805 50.873 6.33398C50.6387 5.66016 50.3262 5.09375 49.9355 4.63477C49.1445 3.7168 48.2119 3.25781 47.1377 3.25781C46.7275 3.25781 46.3711 3.31641 46.0684 3.43359V10.2305C46.0684 10.709 46.1709 11.0654 46.376 11.2998C46.6982 11.6807 47.1914 12.0225 47.8555 12.3252C47.1426 12.6768 46.6885 12.9648 46.4932 13.1895C46.21 13.541 46.0684 13.9414 46.0684 14.3906V21.5244C46.2441 21.915 46.5127 22.2031 46.874 22.3887C47.2451 22.5742 47.6113 22.667 47.9727 22.667C48.334 22.667 48.6221 22.584 48.8369 22.418C48.9443 22.5645 48.998 22.7354 48.998 22.9307C48.998 23.1162 48.9395 23.292 48.8223 23.458C48.7148 23.624 48.5635 23.7656 48.3682 23.8828C47.9189 24.1562 47.3916 24.293 46.7861 24.293C46.1904 24.293 45.6191 24.1318 45.0723 23.8096ZM42.084 20.1182C42.5723 19.9326 42.8408 19.293 42.8896 18.1992C42.9482 17.1055 42.9775 15.5918 42.9775 13.6582C42.9775 11.7246 42.9727 10.4404 42.9629 9.80566C42.9629 9.16113 42.958 8.64355 42.9482 8.25293C42.9189 7.10059 42.8066 6.40723 42.6113 6.17285C42.4258 5.92871 42.25 5.76758 42.084 5.68945C42.084 9.08789 42.0254 11.0215 41.9082 11.4902C41.7715 11.8809 41.4395 12.1592 40.9121 12.3252C41.498 12.5303 41.8301 12.7793 41.9082 13.0723C42.0254 13.541 42.084 15.2549 42.084 18.2139V20.1182ZM61.0244 24.293C60.3799 24.293 59.8086 24.1367 59.3105 23.8242C58.8125 24.1367 58.3486 24.293 57.9189 24.293C57.499 24.293 57.1523 24.2539 56.8789 24.1758C56.6055 24.1074 56.3662 24.0098 56.1611 23.8828C55.7412 23.6289 55.5312 23.3115 55.5312 22.9307C55.5312 22.7354 55.585 22.5645 55.6924 22.418C55.9072 22.584 56.1807 22.667 56.5127 22.667C57.3818 22.667 57.9824 22.2959 58.3145 21.5537V14.3906C58.3145 13.9414 58.2217 13.6094 58.0361 13.3945C57.7432 13.0332 57.2402 12.6768 56.5273 12.3252C57.1914 12.0225 57.6211 11.7539 57.8164 11.5195C58.1484 11.1387 58.3145 10.709 58.3145 10.2305V4.04883C57.9824 3.29688 57.3818 2.9209 56.5127 2.9209C56.1807 2.9209 55.9072 3.00391 55.6924 3.16992C55.585 3.02344 55.5312 2.85742 55.5312 2.67188C55.5312 2.47656 55.585 2.2959 55.6924 2.12988C55.8096 1.96387 55.9658 1.82227 56.1611 1.70508C56.6104 1.43164 57.123 1.29492 57.6992 1.29492C58.2852 1.29492 58.8223 1.45605 59.3105 1.77832C59.8184 1.45605 60.3994 1.29492 61.0537 1.29492C61.708 1.29492 62.3037 1.48535 62.8408 1.86621C63.876 1.48535 65.0723 1.29492 66.4297 1.29492C67.4355 1.29492 68.2949 1.39258 69.0078 1.58789L70.3115 1.93945C70.4678 1.97852 70.6191 1.99805 70.7656 1.99805C71.0391 1.99805 71.1758 1.80273 71.1758 1.41211C71.1758 1.31445 71.1416 1.14844 71.0732 0.914062C71.3467 0.865234 71.6934 0.84082 72.1133 0.84082C72.5332 0.84082 72.8896 0.982422 73.1826 1.26562C73.4756 1.53906 73.6221 1.93945 73.6221 2.4668C73.6221 2.98438 73.5293 3.36523 73.3438 3.60938C73.6074 4 73.7393 4.47852 73.7393 5.04492C73.7393 5.60156 73.5488 6.07031 73.168 6.45117C73.2852 6.74414 73.3438 7.03223 73.3438 7.31543C73.3438 7.58887 73.2949 7.84277 73.1973 8.07715C73.1094 8.30176 72.9971 8.49219 72.8604 8.64844C72.5869 8.93164 72.3086 9.07324 72.0254 9.07324C71.6152 9.07324 71.2441 8.98535 70.9121 8.80957C71.0293 8.5752 71.0879 8.22852 71.0879 7.76953C71.0879 6.69531 70.8193 5.75293 70.2822 4.94238C69.5498 3.8291 68.4512 3.27246 66.9863 3.27246C66.2441 3.27246 65.5703 3.45312 64.9648 3.81445C64.3691 4.17578 63.9492 4.69336 63.7051 5.36719V11.0361C64.0469 11.251 64.3643 11.3584 64.6572 11.3584C64.96 11.3584 65.1846 11.3535 65.3311 11.3438C65.4873 11.334 65.6436 11.3145 65.7998 11.2852C66.2002 11.2266 66.5078 11.1484 66.7227 11.0508C67.1328 10.8555 67.3379 10.377 67.3379 9.61523C67.3379 9.18555 67.2354 8.85352 67.0303 8.61914C67.2256 8.48242 67.4697 8.41406 67.7627 8.41406C68.417 8.41406 68.8906 8.67773 69.1836 9.20508C69.291 9.39062 69.3447 9.5957 69.3447 9.82031C69.3447 10.0449 69.2861 10.3232 69.1689 10.6553C69.5693 11.1143 69.7695 11.6611 69.7695 12.2959C69.7695 12.9209 69.5693 13.4629 69.1689 13.9219C69.2861 14.2539 69.3447 14.5566 69.3447 14.8301C69.3447 15.0938 69.291 15.3477 69.1836 15.5918C69.0762 15.8359 68.9443 16.0312 68.7881 16.1777C68.4854 16.4512 68.1436 16.5879 67.7627 16.5879C67.4893 16.5879 67.2451 16.5098 67.0303 16.3535C67.2354 16.0117 67.3379 15.6113 67.3379 15.1523C67.3379 14.2441 67.0889 13.6826 66.5908 13.4678C66.1514 13.292 65.6484 13.2041 65.082 13.2041C64.5156 13.2041 64.0566 13.3066 63.7051 13.5117V20.8359C64.2715 21.832 65.3652 22.3301 66.9863 22.3301C68.8223 22.3301 70.0723 21.7637 70.7363 20.6309C71.5078 19.332 71.8936 17.9404 71.8936 16.4561C71.8936 16.0264 71.8545 15.6943 71.7764 15.46C72.0205 15.2158 72.2744 15.0938 72.5381 15.0938C72.8018 15.0938 73.002 15.1328 73.1387 15.2109C73.2754 15.2793 73.3975 15.3672 73.5049 15.4746C73.7393 15.7383 73.8564 16.0068 73.8564 16.2803L73.7686 16.998C73.7686 17.1836 73.8174 17.335 73.915 17.4521C74.1104 17.6572 74.208 17.8525 74.208 18.0381C74.208 18.2139 74.1494 18.4287 74.0322 18.6826C74.2568 18.8096 74.457 19 74.6328 19.2539C74.8184 19.498 74.9111 19.752 74.9111 20.0156C74.9111 20.5723 74.6768 21.0703 74.208 21.5098C74.4131 21.8027 74.5156 22.2275 74.5156 22.7842C74.5156 23.3311 74.3545 23.7949 74.0322 24.1758C73.7197 24.5664 73.3096 24.7617 72.8018 24.7617C72.5283 24.7617 72.2451 24.7324 71.9521 24.6738C71.9912 24.459 72.0107 24.2441 72.0107 24.0293C72.0107 23.5801 71.8057 23.3555 71.3955 23.3555C70.9365 23.3555 70.4775 23.4482 70.0186 23.6338C68.9346 24.0732 67.6992 24.293 66.3125 24.293C64.9355 24.293 63.7637 24.1123 62.7969 23.751C62.2891 24.1123 61.6982 24.293 61.0244 24.293ZM59.7207 20.1182C60.209 19.9326 60.4775 19.293 60.5264 18.1992C60.585 17.1055 60.6143 15.5918 60.6143 13.6582C60.6143 11.7246 60.6094 10.4404 60.5996 9.80566C60.5996 9.16113 60.5947 8.64355 60.585 8.25293C60.5557 7.10059 60.4434 6.40723 60.248 6.17285C60.0625 5.92871 59.8867 5.76758 59.7207 5.68945C59.7207 9.08789 59.6621 11.0215 59.5449 11.4902C59.4082 11.8809 59.0762 12.1592 58.5488 12.3252C59.1348 12.5303 59.4668 12.7793 59.5449 13.0723C59.6621 13.541 59.7207 15.2549 59.7207 18.2139V20.1182ZM63.4121 19.9717C63.4121 20.001 63.417 20.0254 63.4268 20.0449L63.4121 19.9717ZM83.832 23.8242C83.334 24.1367 82.7676 24.293 82.1328 24.293C81.498 24.293 80.9316 24.1367 80.4336 23.8242C79.9355 24.1367 79.4717 24.293 79.042 24.293C78.6221 24.293 78.2754 24.2539 78.002 24.1758C77.7285 24.1074 77.4893 24.0098 77.2842 23.8828C76.8643 23.6289 76.6543 23.3115 76.6543 22.9307C76.6543 22.7354 76.708 22.5645 76.8154 22.418C77.0303 22.584 77.3037 22.667 77.6357 22.667C78.5049 22.667 79.1055 22.2959 79.4375 21.5537V14.3906C79.4375 13.9414 79.3447 13.6094 79.1592 13.3945C78.8662 13.0332 78.3633 12.6768 77.6504 12.3252C78.3145 12.0225 78.7441 11.7539 78.9395 11.5195C79.2715 11.1387 79.4375 10.709 79.4375 10.2305V4.04883C79.1055 3.29688 78.5049 2.9209 77.6357 2.9209C77.3037 2.9209 77.0303 3.00391 76.8154 3.16992C76.708 3.02344 76.6543 2.85742 76.6543 2.67188C76.6543 2.47656 76.708 2.2959 76.8154 2.12988C76.9326 1.96387 77.0889 1.82227 77.2842 1.70508C77.7334 1.43164 78.2461 1.29492 78.8223 1.29492C79.4082 1.29492 79.9453 1.45605 80.4336 1.77832C80.9414 1.45605 81.5078 1.29492 82.1328 1.29492C82.7578 1.29492 83.3242 1.45605 83.832 1.77832C84.9355 1.3584 86.1562 1.14844 87.4941 1.14844C88.8418 1.14844 89.9697 1.27051 90.8779 1.51465C91.7861 1.75879 92.5674 2.10547 93.2217 2.55469C94.54 3.46289 95.3604 4.72754 95.6826 6.34863C95.8096 7.07129 96.2734 7.61816 97.0742 7.98926C96.3125 8.41895 95.8145 9.10254 95.5801 10.04C95.1016 11.9736 93.9053 13.1797 91.9912 13.6582C92.9775 13.9219 93.7832 14.4639 94.4082 15.2842C95.0527 16.1338 95.375 17.1348 95.375 18.2871V19.752C95.375 21.1582 95.8291 22.0664 96.7373 22.4766C97.0107 22.6035 97.3086 22.667 97.6309 22.667C97.9531 22.667 98.2217 22.584 98.4365 22.418C98.5439 22.5645 98.5977 22.7354 98.5977 22.9307C98.5977 23.1162 98.5488 23.292 98.4512 23.458C98.3535 23.624 98.2217 23.7656 98.0557 23.8828C97.7041 24.1562 97.2939 24.293 96.8252 24.293C96.3564 24.293 95.8975 24.166 95.4482 23.9121C94.6279 24.3613 93.8613 24.4053 93.1484 24.0439C92.875 24.21 92.5869 24.293 92.2842 24.293C91.9814 24.293 91.6885 24.2246 91.4053 24.0879C91.1318 23.9512 90.8877 23.7266 90.6729 23.4141C90.2139 22.7402 89.9844 21.7051 89.9844 20.3086V19.2246C89.9844 16.9688 89.3398 15.5039 88.0508 14.8301C87.6211 14.6055 87.1182 14.4932 86.542 14.4932H84.8281V21.627C85.0918 22.3203 85.5947 22.667 86.3369 22.667C86.6689 22.667 86.9424 22.584 87.1572 22.418C87.2646 22.5645 87.3184 22.7793 87.3184 23.0625C87.3184 23.3457 87.1621 23.624 86.8496 23.8975C86.5469 24.1611 86.0879 24.293 85.4727 24.293C84.8574 24.293 84.3105 24.1367 83.832 23.8242ZM87.6406 3.09668C85.7656 3.09668 84.8281 3.82422 84.8281 5.2793V11.2705C84.8281 11.7783 85.0283 12.1201 85.4287 12.2959C85.8096 12.4619 86.3711 12.5449 87.1133 12.5449C87.8652 12.5449 88.3877 12.5059 88.6807 12.4277C88.9834 12.3398 89.2422 12.1934 89.457 11.9883C89.8965 11.5684 90.1162 10.8652 90.1162 9.87891V5.60156C90.1162 4.38086 89.6084 3.59961 88.5928 3.25781C88.29 3.15039 87.9727 3.09668 87.6406 3.09668ZM91.0977 4.03418C91.4004 4.71777 91.5518 5.81152 91.5518 7.31543C91.5518 9.90332 91.4297 11.4512 91.1855 11.959C91.7227 11.8516 92.1084 11.1338 92.3428 9.80566L92.46 9.20508C92.5674 8.57031 92.8799 8.16504 93.3975 7.98926C93.0166 7.8623 92.7725 7.71094 92.665 7.53516C92.5479 7.33008 92.4404 6.9834 92.3428 6.49512C92.2549 5.99707 92.1621 5.59668 92.0645 5.29395C91.9668 4.99121 91.8643 4.75195 91.7568 4.57617C91.5713 4.26367 91.3516 4.08301 91.0977 4.03418ZM80.8438 20.1182C81.332 19.9326 81.6006 19.293 81.6494 18.1992C81.708 17.1055 81.7373 15.5918 81.7373 13.6582C81.7373 11.7246 81.7324 10.4404 81.7227 9.80566C81.7227 9.16113 81.7178 8.64355 81.708 8.25293C81.6787 7.10059 81.5664 6.40723 81.3711 6.17285C81.1855 5.92871 81.0098 5.76758 80.8438 5.68945C80.8438 9.08789 80.7852 11.0215 80.668 11.4902C80.5312 11.8809 80.1992 12.1592 79.6719 12.3252C80.2578 12.5303 80.5898 12.7793 80.668 13.0723C80.7852 13.541 80.8438 15.2549 80.8438 18.2139V20.1182ZM90.9512 16.1045C91.3418 16.5439 91.5371 17.0811 91.5371 17.7158V19.6494C91.5371 21.2705 91.8594 22.1348 92.5039 22.2422C92.6797 22.2715 92.8506 22.2666 93.0166 22.2275C92.665 21.6807 92.4893 21.1045 92.4893 20.499V18.4482C92.4893 17.6768 92.3818 17.1299 92.167 16.8076C91.7959 16.2607 91.3906 16.0264 90.9512 16.1045ZM102.04 23.8975C101.679 24.1611 101.264 24.293 100.795 24.293C100.336 24.293 99.9648 24.1758 99.6816 23.9414C99.4082 23.6973 99.2715 23.4189 99.2715 23.1064C99.2715 22.7939 99.3203 22.5645 99.418 22.418C99.7012 22.584 100.146 22.667 100.751 22.667C101.366 22.667 101.874 22.252 102.274 21.4219V14.3906C102.274 13.9316 102.177 13.5898 101.981 13.3652C101.688 13.0137 101.19 12.667 100.487 12.3252C101.2 11.9834 101.649 11.7002 101.835 11.4756C102.128 11.1045 102.274 10.6895 102.274 10.2305V4.04883C101.942 3.29688 101.342 2.9209 100.473 2.9209C100.141 2.9209 99.8672 3.00391 99.6523 3.16992C99.5449 3.02344 99.4912 2.85254 99.4912 2.65723C99.4912 2.46191 99.54 2.28125 99.6377 2.11523C99.7354 1.94922 99.8623 1.80273 100.019 1.67578C100.36 1.42188 100.819 1.29492 101.396 1.29492C101.981 1.29492 102.479 1.45605 102.89 1.77832C103.163 1.45605 103.539 1.29492 104.018 1.29492C104.496 1.29492 104.882 1.46094 105.175 1.79297C105.458 1.46094 105.746 1.29492 106.039 1.29492C106.342 1.29492 106.566 1.32422 106.713 1.38281C106.869 1.44141 107.001 1.51953 107.108 1.61719C107.265 1.74414 107.44 1.99316 107.636 2.36426L116.718 18.7266V14.2588C116.718 13.8291 116.625 13.5117 116.439 13.3066C116.156 13.0039 115.653 12.6768 114.931 12.3252C115.604 11.9932 116.039 11.7246 116.234 11.5195C116.557 11.1777 116.718 10.7969 116.718 10.377V4.23926C116.493 3.8291 116.215 3.50684 115.883 3.27246C115.561 3.03809 115.189 2.9209 114.77 2.9209C114.359 2.9209 114.013 3.00391 113.729 3.16992C113.622 2.99414 113.568 2.75488 113.568 2.45215C113.568 2.13965 113.72 1.87109 114.022 1.64648C114.325 1.41211 114.721 1.29492 115.209 1.29492C115.697 1.29492 116.132 1.42188 116.513 1.67578C116.854 1.42188 117.245 1.29492 117.685 1.29492C118.134 1.29492 118.529 1.42676 118.871 1.69043C119.252 1.42676 119.672 1.29492 120.131 1.29492C120.59 1.29492 120.956 1.41699 121.229 1.66113C121.513 1.89551 121.654 2.16895 121.654 2.48145C121.654 2.79395 121.605 3.02344 121.508 3.16992C121.225 3.00391 120.771 2.9209 120.146 2.9209C119.521 2.9209 119.022 3.34082 118.651 4.18066V10.377C118.651 10.7969 118.739 11.1045 118.915 11.2998C119.208 11.6221 119.716 11.9639 120.438 12.3252C119.647 12.7549 119.174 13.0527 119.018 13.2188C118.773 13.4824 118.651 13.8291 118.651 14.2588L118.915 21.7002C119.267 22.3447 119.818 22.667 120.57 22.667C120.902 22.667 121.176 22.584 121.391 22.418C121.498 22.5645 121.552 22.7354 121.552 22.9307C121.552 23.126 121.503 23.3066 121.405 23.4727C121.308 23.6387 121.181 23.7852 121.024 23.9121C120.683 24.166 120.268 24.293 119.779 24.293C119.291 24.293 118.852 24.1953 118.461 24C117.689 24.4395 116.903 24.4053 116.103 23.8975C115.79 24.1611 115.492 24.293 115.209 24.293C114.926 24.293 114.716 24.2686 114.579 24.2197C114.442 24.1709 114.315 24.083 114.198 23.9561C114.013 23.7705 113.725 23.3066 113.334 22.5645L104.325 7.03711V21.4219C104.726 22.252 105.233 22.667 105.849 22.667C106.464 22.667 106.913 22.584 107.196 22.418C107.304 22.5938 107.357 22.8379 107.357 23.1504C107.357 23.4531 107.206 23.7217 106.903 23.9561C106.601 24.1807 106.21 24.293 105.731 24.293C105.253 24.293 104.813 24.1709 104.413 23.9268C104.062 24.1709 103.656 24.293 103.197 24.293C102.748 24.293 102.362 24.1611 102.04 23.8975ZM113.495 20.1182C113.563 20.0303 113.598 19.8936 113.598 19.708C113.598 19.5127 113.568 19.2979 113.51 19.0635C113.461 18.8193 113.388 18.5605 113.29 18.2871C113.085 17.7402 112.816 17.1543 112.484 16.5293L106.273 5.68945C106.205 5.79688 106.171 5.99219 106.171 6.27539C106.171 6.88086 106.586 7.94043 107.416 9.4541L113.495 20.1182ZM124.35 23.8975C123.988 24.1611 123.573 24.293 123.104 24.293C122.646 24.293 122.279 24.1758 122.006 23.9414C121.723 23.6973 121.581 23.4189 121.581 23.1064C121.581 22.7939 121.63 22.5645 121.728 22.418C122.011 22.584 122.357 22.667 122.768 22.667C123.188 22.667 123.5 22.6133 123.705 22.5059C123.92 22.3887 124.125 22.2324 124.32 22.0371L126.4 15.8701L126.693 14.8594C126.781 14.5566 126.825 14.2783 126.825 14.0244C126.825 13.1357 126.405 12.5693 125.565 12.3252C126.337 12.0322 126.879 11.7148 127.191 11.373C127.68 10.8359 128.065 10.1279 128.349 9.24902L129.96 3.84375C129.647 3.42383 129.276 3.21387 128.847 3.21387C128.417 3.21387 128.017 3.30664 127.646 3.49219C127.548 3.31641 127.499 3.12109 127.499 2.90625C127.499 2.68164 127.543 2.47168 127.631 2.27637C127.729 2.08105 127.86 1.91016 128.026 1.76367C128.397 1.45117 128.925 1.29492 129.608 1.29492C130.292 1.29492 130.873 1.5 131.352 1.91016C131.84 1.5 132.445 1.29492 133.168 1.29492C133.9 1.29492 134.481 1.49023 134.911 1.88086C135.536 1.49023 136.171 1.29492 136.815 1.29492C137.46 1.29492 137.958 1.41699 138.31 1.66113C138.671 1.90527 138.852 2.2373 138.852 2.65723C138.852 2.85254 138.793 3.02344 138.676 3.16992C138.451 3.00391 138.188 2.9209 137.885 2.9209C137.23 2.9209 136.806 3.36523 136.61 4.25391L138.485 10.2451C138.72 10.9971 139.306 11.583 140.243 12.0029C140.507 12.1201 140.775 12.2275 141.049 12.3252C140.072 12.6475 139.584 13.1309 139.584 13.7754C139.584 14.0195 139.623 14.2344 139.701 14.4199L142.499 21.9199C142.929 22.3691 143.363 22.5938 143.803 22.5938C144.242 22.5938 144.584 22.5107 144.828 22.3447C144.936 22.4229 144.989 22.5693 144.989 22.7842C144.989 22.999 144.955 23.1992 144.887 23.3848C144.818 23.5605 144.711 23.7168 144.564 23.8535C144.252 24.1465 143.793 24.293 143.188 24.293C142.582 24.293 142.055 24.127 141.605 23.7949C141.098 24.127 140.521 24.293 139.877 24.293C139.242 24.293 138.695 24.1318 138.236 23.8096C137.797 24.1318 137.279 24.293 136.684 24.293C136.088 24.293 135.595 24.1709 135.204 23.9268C134.813 23.6729 134.608 23.3164 134.589 22.8574C134.589 22.584 134.643 22.4131 134.75 22.3447C135.014 22.5107 135.282 22.5938 135.556 22.5938C136.132 22.5938 136.537 22.4766 136.771 22.2422L135.658 18.5068H127.733L126.767 21.7441C127.167 22.3594 127.65 22.667 128.217 22.667C128.793 22.667 129.223 22.584 129.506 22.418C129.613 22.5938 129.667 22.8379 129.667 23.1504C129.667 23.4531 129.516 23.7217 129.213 23.9561C128.91 24.1807 128.52 24.293 128.041 24.293C127.562 24.293 127.123 24.1709 126.723 23.9268C126.371 24.1709 125.966 24.293 125.507 24.293C125.058 24.293 124.672 24.1611 124.35 23.8975ZM135.058 16.5293L131.659 5.23535L128.319 16.5293H135.058ZM137.855 20.1182C138.031 20.1182 138.119 19.9229 138.119 19.5322C138.119 18.8486 138.017 18.1846 137.812 17.54L137.255 15.8262C136.864 14.5371 136.669 13.7266 136.669 13.3945C136.659 12.8477 136.898 12.4863 137.387 12.3105C136.713 12.1738 136.303 11.9639 136.156 11.6807C136.088 11.5635 136.029 11.4707 135.98 11.4023C135.941 11.334 135.897 11.2559 135.849 11.168C135.81 11.0703 135.761 10.9482 135.702 10.8018C135.644 10.6553 135.565 10.4453 135.468 10.1719L134.56 7.43262C134.345 6.74902 134.027 6.23145 133.607 5.87988C133.48 5.77246 133.363 5.70898 133.256 5.68945C133.91 8.05273 134.34 9.56641 134.545 10.2305C135.961 14.5859 136.811 17.1689 137.094 17.9795L137.855 20.1182ZM142.177 21.4365L142.206 21.5244L142.177 21.4365ZM156.723 23.8096C156.215 24.1318 155.648 24.293 155.023 24.293C154.408 24.293 153.837 24.1318 153.31 23.8096C152.772 24.1318 152.279 24.293 151.83 24.293C151.381 24.293 151.02 24.2539 150.746 24.1758C150.473 24.1074 150.233 24.0098 150.028 23.8828C149.608 23.6289 149.398 23.3115 149.398 22.9307C149.398 22.7354 149.452 22.5645 149.56 22.418C149.774 22.584 150.058 22.667 150.409 22.667C150.771 22.667 151.132 22.5742 151.493 22.3887C151.864 22.2031 152.143 21.915 152.328 21.5244V14.3906C152.328 13.9414 152.235 13.6094 152.05 13.3945C151.757 13.0332 151.254 12.6768 150.541 12.3252C151.205 12.0225 151.635 11.7539 151.83 11.5195C152.162 11.1387 152.328 10.709 152.328 10.2305V3.43359C152.006 3.31641 151.62 3.25781 151.171 3.25781C150.731 3.25781 150.268 3.375 149.779 3.60938C149.291 3.84375 148.852 4.18555 148.461 4.63477C147.592 5.65039 147.157 6.97852 147.157 8.61914C147.157 9.56641 147.313 10.2646 147.626 10.7139C147.509 10.958 147.289 11.0801 146.967 11.0801C146.645 11.0801 146.356 11.0068 146.103 10.8604C145.849 10.7139 145.629 10.5137 145.443 10.2598C145.062 9.75195 144.872 9.20508 144.872 8.61914C144.872 8.0332 144.979 7.53516 145.194 7.125C144.833 6.69531 144.652 6.21191 144.652 5.6748C144.652 5.12793 144.799 4.67871 145.092 4.32715C144.682 3.8877 144.477 3.29688 144.477 2.55469C144.477 1.69531 144.872 1.11914 145.663 0.826172C145.897 0.738281 146.103 0.694336 146.278 0.694336C146.61 0.694336 146.859 0.767578 147.025 0.914062C146.957 1.14844 146.923 1.31445 146.923 1.41211C146.923 1.80273 147.06 1.99805 147.333 1.99805C147.479 1.99805 147.631 1.97852 147.787 1.93945L148.446 1.74902C149.589 1.44629 150.541 1.29492 151.303 1.29492C152.064 1.29492 152.733 1.46094 153.31 1.79297C153.808 1.46094 154.374 1.29492 155.009 1.29492C155.644 1.29492 156.22 1.46094 156.737 1.79297C157.294 1.46094 157.87 1.29492 158.466 1.29492C159.413 1.29492 160.243 1.39258 160.956 1.58789L162.26 1.93945C162.416 1.97852 162.567 1.99805 162.714 1.99805C162.987 1.99805 163.124 1.80273 163.124 1.41211C163.124 1.31445 163.09 1.14844 163.021 0.914062C163.188 0.767578 163.397 0.694336 163.651 0.694336C163.905 0.694336 164.149 0.738281 164.384 0.826172C164.618 0.914062 164.823 1.04102 164.999 1.20703C165.38 1.54883 165.57 2.04199 165.57 2.68652C165.57 3.32129 165.365 3.86816 164.955 4.32715C165.248 4.67871 165.395 5.12305 165.395 5.66016C165.395 6.19727 165.209 6.68555 164.838 7.125C165.062 7.52539 165.175 7.92578 165.175 8.32617C165.175 8.72656 165.126 9.08789 165.028 9.41016C164.931 9.73242 164.789 10.0156 164.604 10.2598C164.203 10.8066 163.7 11.0801 163.095 11.0801C162.763 11.0801 162.538 10.958 162.421 10.7139C162.733 10.2646 162.89 9.59082 162.89 8.69238C162.89 7.78418 162.768 6.99805 162.523 6.33398C162.289 5.66016 161.977 5.09375 161.586 4.63477C160.795 3.7168 159.862 3.25781 158.788 3.25781C158.378 3.25781 158.021 3.31641 157.719 3.43359V10.2305C157.719 10.709 157.821 11.0654 158.026 11.2998C158.349 11.6807 158.842 12.0225 159.506 12.3252C158.793 12.6768 158.339 12.9648 158.144 13.1895C157.86 13.541 157.719 13.9414 157.719 14.3906V21.5244C157.895 21.915 158.163 22.2031 158.524 22.3887C158.896 22.5742 159.262 22.667 159.623 22.667C159.984 22.667 160.272 22.584 160.487 22.418C160.595 22.5645 160.648 22.7354 160.648 22.9307C160.648 23.1162 160.59 23.292 160.473 23.458C160.365 23.624 160.214 23.7656 160.019 23.8828C159.569 24.1562 159.042 24.293 158.437 24.293C157.841 24.293 157.27 24.1318 156.723 23.8096ZM153.734 20.1182C154.223 19.9326 154.491 19.293 154.54 18.1992C154.599 17.1055 154.628 15.5918 154.628 13.6582C154.628 11.7246 154.623 10.4404 154.613 9.80566C154.613 9.16113 154.608 8.64355 154.599 8.25293C154.569 7.10059 154.457 6.40723 154.262 6.17285C154.076 5.92871 153.9 5.76758 153.734 5.68945C153.734 9.08789 153.676 11.0215 153.559 11.4902C153.422 11.8809 153.09 12.1592 152.562 12.3252C153.148 12.5303 153.48 12.7793 153.559 13.0723C153.676 13.541 153.734 15.2549 153.734 18.2139V20.1182ZM185.463 19.2393C185.639 19.6689 185.995 20.0791 186.532 20.4697C186.19 20.6064 185.761 20.9287 185.243 21.4365C184.735 21.9443 184.164 22.3984 183.529 22.7988C182.895 23.1992 182.265 23.5215 181.64 23.7656C180.507 24.2148 179.281 24.4395 177.963 24.4395C176.654 24.4395 175.463 24.2832 174.389 23.9707C173.324 23.6582 172.44 23.2334 171.737 22.6963C170.36 21.6318 169.672 20.2158 169.672 18.4482V14.3906C169.672 13.9414 169.579 13.6094 169.394 13.3945C169.101 13.0332 168.598 12.6768 167.885 12.3252C168.549 12.0225 168.979 11.7539 169.174 11.5195C169.506 11.1387 169.672 10.709 169.672 10.2305V4.04883C169.34 3.29688 168.739 2.9209 167.87 2.9209C167.538 2.9209 167.265 3.00391 167.05 3.16992C166.942 3.02344 166.889 2.85742 166.889 2.67188C166.889 2.47656 166.942 2.2959 167.05 2.12988C167.167 1.96387 167.323 1.82227 167.519 1.70508C167.968 1.43164 168.48 1.29492 169.057 1.29492C169.643 1.29492 170.18 1.45605 170.668 1.77832C171.176 1.45605 171.742 1.29492 172.367 1.29492C172.992 1.29492 173.559 1.45605 174.066 1.77832C174.555 1.45605 175.014 1.29492 175.443 1.29492C175.873 1.29492 176.225 1.33398 176.498 1.41211C176.771 1.48047 177.011 1.57812 177.216 1.70508C177.636 1.95898 177.846 2.27637 177.846 2.65723C177.846 2.85254 177.792 3.02344 177.685 3.16992C177.47 3.00391 177.196 2.9209 176.864 2.9209C175.995 2.9209 175.395 3.29688 175.062 4.04883V10.2305C175.062 10.709 175.165 11.0654 175.37 11.2998C175.692 11.6807 176.186 12.0225 176.85 12.3252C176.137 12.6768 175.683 12.9648 175.487 13.1895C175.204 13.541 175.062 13.9414 175.062 14.3906V18.4775C175.062 19.6592 175.507 20.6309 176.396 21.3926C177.216 22.0859 178.148 22.4326 179.193 22.4326C180.287 22.4326 181.259 22.0957 182.108 21.4219C182.978 20.7383 183.412 19.9082 183.412 18.9316V14.2588C183.412 13.8291 183.319 13.5117 183.134 13.3066C182.851 13.0039 182.348 12.6768 181.625 12.3252C182.299 11.9932 182.733 11.7246 182.929 11.5195C183.251 11.1777 183.412 10.7969 183.412 10.377V3.8584C182.992 3.2334 182.479 2.9209 181.874 2.9209C181.269 2.9209 180.824 3.00391 180.541 3.16992C180.434 2.99414 180.38 2.75488 180.38 2.45215C180.38 2.13965 180.531 1.87109 180.834 1.64648C181.137 1.41211 181.532 1.29492 182.021 1.29492C182.509 1.29492 182.943 1.42188 183.324 1.67578C183.666 1.42188 184.057 1.29492 184.496 1.29492C184.945 1.29492 185.341 1.42676 185.683 1.69043C186.063 1.42676 186.483 1.29492 186.942 1.29492C187.401 1.29492 187.768 1.41699 188.041 1.66113C188.324 1.89551 188.466 2.16895 188.466 2.48145C188.466 2.79395 188.417 3.02344 188.319 3.16992C188.036 3.00391 187.582 2.9209 186.957 2.9209C186.342 2.9209 185.844 3.2334 185.463 3.8584V10.377C185.463 10.8066 185.556 11.1191 185.741 11.3145C186.034 11.6172 186.586 11.9541 187.396 12.3252C186.537 12.7451 186.024 13.0381 185.858 13.2041C185.595 13.4678 185.463 13.8193 185.463 14.2588V19.2393ZM171.84 20.1182C171.928 19.5908 171.972 17.9014 171.972 15.0498C171.972 12.1885 171.967 10.4404 171.957 9.80566C171.957 9.16113 171.952 8.64355 171.942 8.25293C171.913 7.10059 171.801 6.40723 171.605 6.17285C171.42 5.92871 171.244 5.76758 171.078 5.68945C171.078 9.08789 171.02 11.0215 170.902 11.4902C170.766 11.8809 170.434 12.1592 169.906 12.3252C170.492 12.5303 170.824 12.7793 170.902 13.0723C171.02 13.541 171.078 14.5518 171.078 16.1045C171.078 17.6572 171.098 18.5752 171.137 18.8584C171.186 19.1416 171.249 19.3711 171.327 19.5469C171.454 19.8594 171.625 20.0498 171.84 20.1182ZM197.035 23.8242C196.537 24.1367 195.971 24.293 195.336 24.293C194.701 24.293 194.135 24.1367 193.637 23.8242C193.139 24.1367 192.675 24.293 192.245 24.293C191.825 24.293 191.479 24.2539 191.205 24.1758C190.932 24.1074 190.692 24.0098 190.487 23.8828C190.067 23.6289 189.857 23.3115 189.857 22.9307C189.857 22.7354 189.911 22.5645 190.019 22.418C190.233 22.584 190.507 22.667 190.839 22.667C191.708 22.667 192.309 22.2959 192.641 21.5537V14.3906C192.641 13.9414 192.548 13.6094 192.362 13.3945C192.069 13.0332 191.566 12.6768 190.854 12.3252C191.518 12.0225 191.947 11.7539 192.143 11.5195C192.475 11.1387 192.641 10.709 192.641 10.2305V4.04883C192.309 3.29688 191.708 2.9209 190.839 2.9209C190.507 2.9209 190.233 3.00391 190.019 3.16992C189.911 3.02344 189.857 2.85742 189.857 2.67188C189.857 2.47656 189.911 2.2959 190.019 2.12988C190.136 1.96387 190.292 1.82227 190.487 1.70508C190.937 1.43164 191.449 1.29492 192.025 1.29492C192.611 1.29492 193.148 1.45605 193.637 1.77832C194.145 1.45605 194.711 1.29492 195.336 1.29492C195.961 1.29492 196.527 1.45605 197.035 1.77832C198.139 1.3584 199.359 1.14844 200.697 1.14844C202.045 1.14844 203.173 1.27051 204.081 1.51465C204.989 1.75879 205.771 2.10547 206.425 2.55469C207.743 3.46289 208.563 4.72754 208.886 6.34863C209.013 7.07129 209.477 7.61816 210.277 7.98926C209.516 8.41895 209.018 9.10254 208.783 10.04C208.305 11.9736 207.108 13.1797 205.194 13.6582C206.181 13.9219 206.986 14.4639 207.611 15.2842C208.256 16.1338 208.578 17.1348 208.578 18.2871V19.752C208.578 21.1582 209.032 22.0664 209.94 22.4766C210.214 22.6035 210.512 22.667 210.834 22.667C211.156 22.667 211.425 22.584 211.64 22.418C211.747 22.5645 211.801 22.7354 211.801 22.9307C211.801 23.1162 211.752 23.292 211.654 23.458C211.557 23.624 211.425 23.7656 211.259 23.8828C210.907 24.1562 210.497 24.293 210.028 24.293C209.56 24.293 209.101 24.166 208.651 23.9121C207.831 24.3613 207.064 24.4053 206.352 24.0439C206.078 24.21 205.79 24.293 205.487 24.293C205.185 24.293 204.892 24.2246 204.608 24.0879C204.335 23.9512 204.091 23.7266 203.876 23.4141C203.417 22.7402 203.188 21.7051 203.188 20.3086V19.2246C203.188 16.9688 202.543 15.5039 201.254 14.8301C200.824 14.6055 200.321 14.4932 199.745 14.4932H198.031V21.627C198.295 22.3203 198.798 22.667 199.54 22.667C199.872 22.667 200.146 22.584 200.36 22.418C200.468 22.5645 200.521 22.7793 200.521 23.0625C200.521 23.3457 200.365 23.624 200.053 23.8975C199.75 24.1611 199.291 24.293 198.676 24.293C198.061 24.293 197.514 24.1367 197.035 23.8242ZM200.844 3.09668C198.969 3.09668 198.031 3.82422 198.031 5.2793V11.2705C198.031 11.7783 198.231 12.1201 198.632 12.2959C199.013 12.4619 199.574 12.5449 200.316 12.5449C201.068 12.5449 201.591 12.5059 201.884 12.4277C202.187 12.3398 202.445 12.1934 202.66 11.9883C203.1 11.5684 203.319 10.8652 203.319 9.87891V5.60156C203.319 4.38086 202.812 3.59961 201.796 3.25781C201.493 3.15039 201.176 3.09668 200.844 3.09668ZM204.301 4.03418C204.604 4.71777 204.755 5.81152 204.755 7.31543C204.755 9.90332 204.633 11.4512 204.389 11.959C204.926 11.8516 205.312 11.1338 205.546 9.80566L205.663 9.20508C205.771 8.57031 206.083 8.16504 206.601 7.98926C206.22 7.8623 205.976 7.71094 205.868 7.53516C205.751 7.33008 205.644 6.9834 205.546 6.49512C205.458 5.99707 205.365 5.59668 205.268 5.29395C205.17 4.99121 205.067 4.75195 204.96 4.57617C204.774 4.26367 204.555 4.08301 204.301 4.03418ZM194.047 20.1182C194.535 19.9326 194.804 19.293 194.853 18.1992C194.911 17.1055 194.94 15.5918 194.94 13.6582C194.94 11.7246 194.936 10.4404 194.926 9.80566C194.926 9.16113 194.921 8.64355 194.911 8.25293C194.882 7.10059 194.77 6.40723 194.574 6.17285C194.389 5.92871 194.213 5.76758 194.047 5.68945C194.047 9.08789 193.988 11.0215 193.871 11.4902C193.734 11.8809 193.402 12.1592 192.875 12.3252C193.461 12.5303 193.793 12.7793 193.871 13.0723C193.988 13.541 194.047 15.2549 194.047 18.2139V20.1182ZM204.154 16.1045C204.545 16.5439 204.74 17.0811 204.74 17.7158V19.6494C204.74 21.2705 205.062 22.1348 205.707 22.2422C205.883 22.2715 206.054 22.2666 206.22 22.2275C205.868 21.6807 205.692 21.1045 205.692 20.499V18.4482C205.692 17.6768 205.585 17.1299 205.37 16.8076C204.999 16.2607 204.594 16.0264 204.154 16.1045ZM218.114 24.293C217.47 24.293 216.898 24.1367 216.4 23.8242C215.902 24.1367 215.438 24.293 215.009 24.293C214.589 24.293 214.242 24.2539 213.969 24.1758C213.695 24.1074 213.456 24.0098 213.251 23.8828C212.831 23.6289 212.621 23.3115 212.621 22.9307C212.621 22.7354 212.675 22.5645 212.782 22.418C212.997 22.584 213.271 22.667 213.603 22.667C214.472 22.667 215.072 22.2959 215.404 21.5537V14.3906C215.404 13.9414 215.312 13.6094 215.126 13.3945C214.833 13.0332 214.33 12.6768 213.617 12.3252C214.281 12.0225 214.711 11.7539 214.906 11.5195C215.238 11.1387 215.404 10.709 215.404 10.2305V4.04883C215.072 3.29688 214.472 2.9209 213.603 2.9209C213.271 2.9209 212.997 3.00391 212.782 3.16992C212.675 3.02344 212.621 2.85742 212.621 2.67188C212.621 2.47656 212.675 2.2959 212.782 2.12988C212.899 1.96387 213.056 1.82227 213.251 1.70508C213.7 1.43164 214.213 1.29492 214.789 1.29492C215.375 1.29492 215.912 1.45605 216.4 1.77832C216.908 1.45605 217.489 1.29492 218.144 1.29492C218.798 1.29492 219.394 1.48535 219.931 1.86621C220.966 1.48535 222.162 1.29492 223.52 1.29492C224.525 1.29492 225.385 1.39258 226.098 1.58789L227.401 1.93945C227.558 1.97852 227.709 1.99805 227.855 1.99805C228.129 1.99805 228.266 1.80273 228.266 1.41211C228.266 1.31445 228.231 1.14844 228.163 0.914062C228.437 0.865234 228.783 0.84082 229.203 0.84082C229.623 0.84082 229.979 0.982422 230.272 1.26562C230.565 1.53906 230.712 1.93945 230.712 2.4668C230.712 2.98438 230.619 3.36523 230.434 3.60938C230.697 4 230.829 4.47852 230.829 5.04492C230.829 5.60156 230.639 6.07031 230.258 6.45117C230.375 6.74414 230.434 7.03223 230.434 7.31543C230.434 7.58887 230.385 7.84277 230.287 8.07715C230.199 8.30176 230.087 8.49219 229.95 8.64844C229.677 8.93164 229.398 9.07324 229.115 9.07324C228.705 9.07324 228.334 8.98535 228.002 8.80957C228.119 8.5752 228.178 8.22852 228.178 7.76953C228.178 6.69531 227.909 5.75293 227.372 4.94238C226.64 3.8291 225.541 3.27246 224.076 3.27246C223.334 3.27246 222.66 3.45312 222.055 3.81445C221.459 4.17578 221.039 4.69336 220.795 5.36719V11.0361C221.137 11.251 221.454 11.3584 221.747 11.3584C222.05 11.3584 222.274 11.3535 222.421 11.3438C222.577 11.334 222.733 11.3145 222.89 11.2852C223.29 11.2266 223.598 11.1484 223.812 11.0508C224.223 10.8555 224.428 10.377 224.428 9.61523C224.428 9.18555 224.325 8.85352 224.12 8.61914C224.315 8.48242 224.56 8.41406 224.853 8.41406C225.507 8.41406 225.98 8.67773 226.273 9.20508C226.381 9.39062 226.435 9.5957 226.435 9.82031C226.435 10.0449 226.376 10.3232 226.259 10.6553C226.659 11.1143 226.859 11.6611 226.859 12.2959C226.859 12.9209 226.659 13.4629 226.259 13.9219C226.376 14.2539 226.435 14.5566 226.435 14.8301C226.435 15.0938 226.381 15.3477 226.273 15.5918C226.166 15.8359 226.034 16.0312 225.878 16.1777C225.575 16.4512 225.233 16.5879 224.853 16.5879C224.579 16.5879 224.335 16.5098 224.12 16.3535C224.325 16.0117 224.428 15.6113 224.428 15.1523C224.428 14.2441 224.179 13.6826 223.681 13.4678C223.241 13.292 222.738 13.2041 222.172 13.2041C221.605 13.2041 221.146 13.3066 220.795 13.5117V20.8359C221.361 21.832 222.455 22.3301 224.076 22.3301C225.912 22.3301 227.162 21.7637 227.826 20.6309C228.598 19.332 228.983 17.9404 228.983 16.4561C228.983 16.0264 228.944 15.6943 228.866 15.46C229.11 15.2158 229.364 15.0938 229.628 15.0938C229.892 15.0938 230.092 15.1328 230.229 15.2109C230.365 15.2793 230.487 15.3672 230.595 15.4746C230.829 15.7383 230.946 16.0068 230.946 16.2803L230.858 16.998C230.858 17.1836 230.907 17.335 231.005 17.4521C231.2 17.6572 231.298 17.8525 231.298 18.0381C231.298 18.2139 231.239 18.4287 231.122 18.6826C231.347 18.8096 231.547 19 231.723 19.2539C231.908 19.498 232.001 19.752 232.001 20.0156C232.001 20.5723 231.767 21.0703 231.298 21.5098C231.503 21.8027 231.605 22.2275 231.605 22.7842C231.605 23.3311 231.444 23.7949 231.122 24.1758C230.81 24.5664 230.399 24.7617 229.892 24.7617C229.618 24.7617 229.335 24.7324 229.042 24.6738C229.081 24.459 229.101 24.2441 229.101 24.0293C229.101 23.5801 228.896 23.3555 228.485 23.3555C228.026 23.3555 227.567 23.4482 227.108 23.6338C226.024 24.0732 224.789 24.293 223.402 24.293C222.025 24.293 220.854 24.1123 219.887 23.751C219.379 24.1123 218.788 24.293 218.114 24.293ZM216.811 20.1182C217.299 19.9326 217.567 19.293 217.616 18.1992C217.675 17.1055 217.704 15.5918 217.704 13.6582C217.704 11.7246 217.699 10.4404 217.689 9.80566C217.689 9.16113 217.685 8.64355 217.675 8.25293C217.646 7.10059 217.533 6.40723 217.338 6.17285C217.152 5.92871 216.977 5.76758 216.811 5.68945C216.811 9.08789 216.752 11.0215 216.635 11.4902C216.498 11.8809 216.166 12.1592 215.639 12.3252C216.225 12.5303 216.557 12.7793 216.635 13.0723C216.752 13.541 216.811 15.2549 216.811 18.2139V20.1182ZM220.502 19.9717C220.502 20.001 220.507 20.0254 220.517 20.0449L220.502 19.9717Z" fill="#55D0D8"/>
</svg>
