<svg width="99" height="25" viewBox="0 0 99 25" fill="none" xmlns="http://www.w3.org/2000/svg">
<path d="M3.54785 23.8975C3.18652 24.1611 2.77148 24.293 2.30273 24.293C1.84375 24.293 1.47266 24.1758 1.18945 23.9414C0.916016 23.6973 0.779297 23.4189 0.779297 23.1064C0.779297 22.7939 0.828125 22.5645 0.925781 22.418C1.20898 22.584 1.6582 22.667 2.27344 22.667C2.51758 22.667 2.78613 22.5449 3.0791 22.3008C3.37207 22.0469 3.60645 21.7002 3.78223 21.2607V14.3906C3.78223 13.9316 3.68457 13.5898 3.48926 13.3652C3.19629 13.0137 2.69824 12.667 1.99512 12.3252C2.70801 11.9834 3.15723 11.7002 3.34277 11.4756C3.63574 11.1045 3.78223 10.6895 3.78223 10.2305L3.79688 3.84375C3.5625 3.22852 3.04492 2.9209 2.24414 2.9209C1.83398 2.9209 1.53125 3.00391 1.33594 3.16992C1.23828 3.04297 1.18945 2.87695 1.18945 2.67188C1.18945 2.4668 1.2334 2.28125 1.32129 2.11523C1.40918 1.94922 1.53125 1.80273 1.6875 1.67578C2.01953 1.42188 2.46387 1.29492 3.02051 1.29492C3.57715 1.29492 4.03613 1.45605 4.39746 1.77832C4.71973 1.45605 5.0957 1.29492 5.52539 1.29492C5.95508 1.29492 6.32129 1.47559 6.62402 1.83691C7.00488 1.47559 7.3418 1.29492 7.63477 1.29492C7.92773 1.29492 8.15234 1.31934 8.30859 1.36816C8.46484 1.41699 8.62109 1.50977 8.77734 1.64648C9.08984 1.89062 9.41699 2.38379 9.75879 3.12598L15.3691 14.7715L19.998 3.36035L20.4082 2.4082C20.6523 1.87109 20.8818 1.55371 21.0967 1.45605C21.3115 1.34863 21.5605 1.29492 21.8438 1.29492C22.1367 1.29492 22.4346 1.40234 22.7373 1.61719C23.1084 1.40234 23.5918 1.29492 24.1875 1.29492C24.793 1.29492 25.3154 1.45605 25.7549 1.77832C26.1455 1.45605 26.5508 1.29492 26.9707 1.29492C27.4004 1.29492 27.7324 1.3291 27.9668 1.39746C28.2109 1.46582 28.4209 1.55859 28.5967 1.67578C28.9678 1.93945 29.1533 2.2666 29.1533 2.65723C29.1533 2.85254 29.0996 3.02344 28.9922 3.16992C28.7773 3.00391 28.5039 2.9209 28.1719 2.9209C27.4297 2.9209 26.9268 3.26758 26.6631 3.96094V10.2305C26.6631 10.709 26.7656 11.0654 26.9707 11.2998C27.293 11.6807 27.7861 12.0225 28.4502 12.3252C27.7373 12.6768 27.2832 12.9648 27.0879 13.1895C26.8047 13.541 26.6631 13.9414 26.6631 14.3906V21.5537C26.9951 22.2959 27.5957 22.667 28.4648 22.667C28.7969 22.667 29.0703 22.584 29.2852 22.418C29.3926 22.5645 29.4463 22.7354 29.4463 22.9307C29.4463 23.1162 29.3877 23.292 29.2705 23.458C29.1631 23.624 29.0117 23.7656 28.8164 23.8828C28.3672 24.1562 27.8545 24.293 27.2783 24.293C26.7021 24.293 26.165 24.1367 25.667 23.8242C25.208 24.1367 24.6855 24.293 24.0996 24.293C23.4746 24.293 22.9229 24.1367 22.4443 23.8242C21.9463 24.1367 21.4824 24.293 21.0527 24.293C20.6328 24.293 20.2861 24.2539 20.0127 24.1758C19.7393 24.1074 19.5 24.0098 19.2949 23.8828C18.875 23.6289 18.665 23.3115 18.665 22.9307C18.665 22.7354 18.7188 22.5645 18.8262 22.418C19.041 22.584 19.3145 22.667 19.6465 22.667C20.5156 22.667 21.1162 22.2959 21.4482 21.5537V5.54297L15.7354 19.6934L15.1055 21.1289C14.8027 21.8125 14.5879 22.1982 14.4609 22.2861C14.3438 22.374 14.2461 22.418 14.168 22.418C13.9238 22.418 13.7529 22.3936 13.6553 22.3447L5.83301 6.91992V21.2461C6.01855 21.6953 6.27246 22.0469 6.59473 22.3008C6.91699 22.5449 7.27832 22.667 7.67871 22.667C8.0791 22.667 8.4209 22.584 8.7041 22.418C8.81152 22.5938 8.86523 22.8379 8.86523 23.1504C8.86523 23.4531 8.71387 23.7217 8.41113 23.9561C8.1084 24.1807 7.71777 24.293 7.23926 24.293C6.76074 24.293 6.32129 24.1709 5.9209 23.9268C5.56934 24.1709 5.16406 24.293 4.70508 24.293C4.25586 24.293 3.87012 24.1611 3.54785 23.8975ZM7.89844 5.6748C7.80078 5.82129 7.75195 6.03125 7.75195 6.30469C7.75195 7.0957 8.08398 8.14551 8.74805 9.4541L14.0801 20.1035C14.1484 20.0156 14.1826 19.8301 14.1826 19.5469C14.1826 18.6973 13.7773 17.4521 12.9668 15.8115L7.89844 5.6748ZM22.8545 20.1182C23.3428 19.9326 23.6113 19.293 23.6602 18.1992C23.7188 17.1055 23.748 15.5918 23.748 13.6582C23.748 11.7246 23.7432 10.4404 23.7334 9.80566C23.7334 9.16113 23.7285 8.64355 23.7188 8.25293C23.6895 7.10059 23.5771 6.40723 23.3818 6.17285C23.1963 5.92871 23.0205 5.76758 22.8545 5.68945V20.1182ZM5.62793 20.3086C5.62793 20.3867 5.63281 20.4453 5.64258 20.4844L5.62793 20.3086ZM3.9873 20.3086C3.97754 20.3477 3.97266 20.4062 3.97266 20.4844L3.9873 20.3086ZM32.2295 23.8975C31.8682 24.1611 31.4531 24.293 30.9844 24.293C30.5254 24.293 30.1592 24.1758 29.8857 23.9414C29.6025 23.6973 29.4609 23.4189 29.4609 23.1064C29.4609 22.7939 29.5098 22.5645 29.6074 22.418C29.8906 22.584 30.2373 22.667 30.6475 22.667C31.0674 22.667 31.3799 22.6133 31.585 22.5059C31.7998 22.3887 32.0049 22.2324 32.2002 22.0371L34.2803 15.8701L34.5732 14.8594C34.6611 14.5566 34.7051 14.2783 34.7051 14.0244C34.7051 13.1357 34.2852 12.5693 33.4453 12.3252C34.2168 12.0322 34.7588 11.7148 35.0713 11.373C35.5596 10.8359 35.9453 10.1279 36.2285 9.24902L37.8398 3.84375C37.5273 3.42383 37.1562 3.21387 36.7266 3.21387C36.2969 3.21387 35.8965 3.30664 35.5254 3.49219C35.4277 3.31641 35.3789 3.12109 35.3789 2.90625C35.3789 2.68164 35.4229 2.47168 35.5107 2.27637C35.6084 2.08105 35.7402 1.91016 35.9062 1.76367C36.2773 1.45117 36.8047 1.29492 37.4883 1.29492C38.1719 1.29492 38.7529 1.5 39.2314 1.91016C39.7197 1.5 40.3252 1.29492 41.0479 1.29492C41.7803 1.29492 42.3613 1.49023 42.791 1.88086C43.416 1.49023 44.0508 1.29492 44.6953 1.29492C45.3398 1.29492 45.8379 1.41699 46.1895 1.66113C46.5508 1.90527 46.7314 2.2373 46.7314 2.65723C46.7314 2.85254 46.6729 3.02344 46.5557 3.16992C46.3311 3.00391 46.0674 2.9209 45.7646 2.9209C45.1104 2.9209 44.6855 3.36523 44.4902 4.25391L46.3652 10.2451C46.5996 10.9971 47.1855 11.583 48.123 12.0029C48.3867 12.1201 48.6553 12.2275 48.9287 12.3252C47.9521 12.6475 47.4639 13.1309 47.4639 13.7754C47.4639 14.0195 47.5029 14.2344 47.5811 14.4199L50.3789 21.9199C50.8086 22.3691 51.2432 22.5938 51.6826 22.5938C52.1221 22.5938 52.4639 22.5107 52.708 22.3447C52.8154 22.4229 52.8691 22.5693 52.8691 22.7842C52.8691 22.999 52.835 23.1992 52.7666 23.3848C52.6982 23.5605 52.5908 23.7168 52.4443 23.8535C52.1318 24.1465 51.6729 24.293 51.0674 24.293C50.4619 24.293 49.9346 24.127 49.4854 23.7949C48.9775 24.127 48.4014 24.293 47.7568 24.293C47.1221 24.293 46.5752 24.1318 46.1162 23.8096C45.6768 24.1318 45.1592 24.293 44.5635 24.293C43.9678 24.293 43.4746 24.1709 43.084 23.9268C42.6934 23.6729 42.4883 23.3164 42.4688 22.8574C42.4688 22.584 42.5225 22.4131 42.6299 22.3447C42.8936 22.5107 43.1621 22.5938 43.4355 22.5938C44.0117 22.5938 44.417 22.4766 44.6514 22.2422L43.5381 18.5068H35.6133L34.6465 21.7441C35.0469 22.3594 35.5303 22.667 36.0967 22.667C36.6729 22.667 37.1025 22.584 37.3857 22.418C37.4932 22.5938 37.5469 22.8379 37.5469 23.1504C37.5469 23.4531 37.3955 23.7217 37.0928 23.9561C36.79 24.1807 36.3994 24.293 35.9209 24.293C35.4424 24.293 35.0029 24.1709 34.6025 23.9268C34.251 24.1709 33.8457 24.293 33.3867 24.293C32.9375 24.293 32.5518 24.1611 32.2295 23.8975ZM42.9375 16.5293L39.5391 5.23535L36.1992 16.5293H42.9375ZM45.7354 20.1182C45.9111 20.1182 45.999 19.9229 45.999 19.5322C45.999 18.8486 45.8965 18.1846 45.6914 17.54L45.1348 15.8262C44.7441 14.5371 44.5488 13.7266 44.5488 13.3945C44.5391 12.8477 44.7783 12.4863 45.2666 12.3105C44.5928 12.1738 44.1826 11.9639 44.0361 11.6807C43.9678 11.5635 43.9092 11.4707 43.8604 11.4023C43.8213 11.334 43.7773 11.2559 43.7285 11.168C43.6895 11.0703 43.6406 10.9482 43.582 10.8018C43.5234 10.6553 43.4453 10.4453 43.3477 10.1719L42.4395 7.43262C42.2246 6.74902 41.9072 6.23145 41.4873 5.87988C41.3604 5.77246 41.2432 5.70898 41.1357 5.68945C41.79 8.05273 42.2197 9.56641 42.4248 10.2305C43.8408 14.5859 44.6904 17.1689 44.9736 17.9795L45.7354 20.1182ZM50.0566 21.4365L50.0859 21.5244L50.0566 21.4365ZM64.6025 23.8096C64.0947 24.1318 63.5283 24.293 62.9033 24.293C62.2881 24.293 61.7168 24.1318 61.1895 23.8096C60.6523 24.1318 60.1592 24.293 59.71 24.293C59.2607 24.293 58.8994 24.2539 58.626 24.1758C58.3525 24.1074 58.1133 24.0098 57.9082 23.8828C57.4883 23.6289 57.2783 23.3115 57.2783 22.9307C57.2783 22.7354 57.332 22.5645 57.4395 22.418C57.6543 22.584 57.9375 22.667 58.2891 22.667C58.6504 22.667 59.0117 22.5742 59.373 22.3887C59.7441 22.2031 60.0225 21.915 60.208 21.5244V14.3906C60.208 13.9414 60.1152 13.6094 59.9297 13.3945C59.6367 13.0332 59.1338 12.6768 58.4209 12.3252C59.085 12.0225 59.5146 11.7539 59.71 11.5195C60.042 11.1387 60.208 10.709 60.208 10.2305V3.43359C59.8857 3.31641 59.5 3.25781 59.0508 3.25781C58.6113 3.25781 58.1475 3.375 57.6592 3.60938C57.1709 3.84375 56.7314 4.18555 56.3408 4.63477C55.4717 5.65039 55.0371 6.97852 55.0371 8.61914C55.0371 9.56641 55.1934 10.2646 55.5059 10.7139C55.3887 10.958 55.1689 11.0801 54.8467 11.0801C54.5244 11.0801 54.2363 11.0068 53.9824 10.8604C53.7285 10.7139 53.5088 10.5137 53.3232 10.2598C52.9424 9.75195 52.752 9.20508 52.752 8.61914C52.752 8.0332 52.8594 7.53516 53.0742 7.125C52.7129 6.69531 52.5322 6.21191 52.5322 5.6748C52.5322 5.12793 52.6787 4.67871 52.9717 4.32715C52.5615 3.8877 52.3564 3.29688 52.3564 2.55469C52.3564 1.69531 52.752 1.11914 53.543 0.826172C53.7773 0.738281 53.9824 0.694336 54.1582 0.694336C54.4902 0.694336 54.7393 0.767578 54.9053 0.914062C54.8369 1.14844 54.8027 1.31445 54.8027 1.41211C54.8027 1.80273 54.9395 1.99805 55.2129 1.99805C55.3594 1.99805 55.5107 1.97852 55.667 1.93945L56.3262 1.74902C57.4688 1.44629 58.4209 1.29492 59.1826 1.29492C59.9443 1.29492 60.6133 1.46094 61.1895 1.79297C61.6875 1.46094 62.2539 1.29492 62.8887 1.29492C63.5234 1.29492 64.0996 1.46094 64.6172 1.79297C65.1738 1.46094 65.75 1.29492 66.3457 1.29492C67.293 1.29492 68.123 1.39258 68.8359 1.58789L70.1396 1.93945C70.2959 1.97852 70.4473 1.99805 70.5938 1.99805C70.8672 1.99805 71.0039 1.80273 71.0039 1.41211C71.0039 1.31445 70.9697 1.14844 70.9014 0.914062C71.0674 0.767578 71.2773 0.694336 71.5312 0.694336C71.7852 0.694336 72.0293 0.738281 72.2637 0.826172C72.498 0.914062 72.7031 1.04102 72.8789 1.20703C73.2598 1.54883 73.4502 2.04199 73.4502 2.68652C73.4502 3.32129 73.2451 3.86816 72.835 4.32715C73.1279 4.67871 73.2744 5.12305 73.2744 5.66016C73.2744 6.19727 73.0889 6.68555 72.7178 7.125C72.9424 7.52539 73.0547 7.92578 73.0547 8.32617C73.0547 8.72656 73.0059 9.08789 72.9082 9.41016C72.8105 9.73242 72.6689 10.0156 72.4834 10.2598C72.083 10.8066 71.5801 11.0801 70.9746 11.0801C70.6426 11.0801 70.418 10.958 70.3008 10.7139C70.6133 10.2646 70.7695 9.59082 70.7695 8.69238C70.7695 7.78418 70.6475 6.99805 70.4033 6.33398C70.1689 5.66016 69.8564 5.09375 69.4658 4.63477C68.6748 3.7168 67.7422 3.25781 66.668 3.25781C66.2578 3.25781 65.9014 3.31641 65.5986 3.43359V10.2305C65.5986 10.709 65.7012 11.0654 65.9062 11.2998C66.2285 11.6807 66.7217 12.0225 67.3857 12.3252C66.6729 12.6768 66.2188 12.9648 66.0234 13.1895C65.7402 13.541 65.5986 13.9414 65.5986 14.3906V21.5244C65.7744 21.915 66.043 22.2031 66.4043 22.3887C66.7754 22.5742 67.1416 22.667 67.5029 22.667C67.8643 22.667 68.1523 22.584 68.3672 22.418C68.4746 22.5645 68.5283 22.7354 68.5283 22.9307C68.5283 23.1162 68.4697 23.292 68.3525 23.458C68.2451 23.624 68.0938 23.7656 67.8984 23.8828C67.4492 24.1562 66.9219 24.293 66.3164 24.293C65.7207 24.293 65.1494 24.1318 64.6025 23.8096ZM61.6143 20.1182C62.1025 19.9326 62.3711 19.293 62.4199 18.1992C62.4785 17.1055 62.5078 15.5918 62.5078 13.6582C62.5078 11.7246 62.5029 10.4404 62.4932 9.80566C62.4932 9.16113 62.4883 8.64355 62.4785 8.25293C62.4492 7.10059 62.3369 6.40723 62.1416 6.17285C61.9561 5.92871 61.7803 5.76758 61.6143 5.68945C61.6143 9.08789 61.5557 11.0215 61.4385 11.4902C61.3018 11.8809 60.9697 12.1592 60.4424 12.3252C61.0283 12.5303 61.3604 12.7793 61.4385 13.0723C61.5557 13.541 61.6143 15.2549 61.6143 18.2139V20.1182ZM82.1074 23.8389C81.6191 24.1416 81.0674 24.293 80.4521 24.293C79.8369 24.293 79.3096 24.1367 78.8701 23.8242C78.3721 24.1367 77.9131 24.293 77.4932 24.293C77.0732 24.293 76.7266 24.2539 76.4531 24.1758C76.1797 24.1074 75.9453 24.0098 75.75 23.8828C75.3203 23.6289 75.1055 23.3115 75.1055 22.9307C75.1055 22.7354 75.1592 22.5645 75.2666 22.418C75.4814 22.584 75.7549 22.667 76.0869 22.667C76.9561 22.667 77.5566 22.2959 77.8887 21.5537V14.3906C77.8887 13.6289 77.5078 13.0527 76.7461 12.6621L76.1016 12.3252C76.9707 11.9248 77.5176 11.4902 77.7422 11.0215C77.8398 10.8066 77.8887 10.543 77.8887 10.2305V4.04883C77.5566 3.29688 76.9561 2.9209 76.0869 2.9209C75.7549 2.9209 75.4814 3.00391 75.2666 3.16992C75.1592 3.02344 75.1055 2.85742 75.1055 2.67188C75.1055 2.47656 75.1592 2.2959 75.2666 2.12988C75.3838 1.96387 75.5449 1.82227 75.75 1.70508C76.1895 1.43164 76.6924 1.29492 77.2588 1.29492C77.835 1.29492 78.3721 1.45117 78.8701 1.76367C79.3096 1.45117 79.8369 1.29492 80.4521 1.29492C81.0771 1.29492 81.6289 1.45117 82.1074 1.76367C82.5664 1.45117 83.0791 1.29492 83.6455 1.29492C84.4756 1.29492 85.0664 1.57324 85.418 2.12988C85.5352 2.30566 85.5938 2.49121 85.5938 2.68652C85.5938 2.88184 85.5352 3.04297 85.418 3.16992C85.2031 3.00391 84.9346 2.9209 84.6123 2.9209C83.8604 2.9209 83.3574 3.28711 83.1035 4.01953V11.7539H90.0322V4.01953C89.7783 3.28711 89.2754 2.9209 88.5234 2.9209C88.2012 2.9209 87.9326 3.00391 87.7178 3.16992C87.6006 3.04297 87.542 2.88184 87.542 2.68652C87.542 2.49121 87.5957 2.30566 87.7031 2.12988C87.8203 1.9541 87.9668 1.80273 88.1426 1.67578C88.5137 1.42188 88.9629 1.29492 89.4902 1.29492C90.0566 1.29492 90.5693 1.45117 91.0283 1.76367C91.5264 1.45117 92.0781 1.29492 92.6836 1.29492C93.2988 1.29492 93.8262 1.45117 94.2656 1.76367C94.7441 1.45117 95.1982 1.29492 95.6279 1.29492C96.0576 1.29492 96.4092 1.33398 96.6826 1.41211C96.9561 1.48047 97.1953 1.57812 97.4004 1.70508C97.8203 1.95898 98.0303 2.27637 98.0303 2.65723C98.0303 2.85254 97.9766 3.02344 97.8691 3.16992C97.6543 3.00391 97.3809 2.9209 97.0488 2.9209C96.1797 2.9209 95.5791 3.29688 95.2471 4.04883V10.2305C95.2471 10.9922 95.623 11.583 96.375 12.0029C96.5898 12.1201 96.8096 12.2275 97.0342 12.3252C96.4482 12.6084 96.0527 12.8379 95.8477 13.0137C95.4473 13.3848 95.2471 13.8438 95.2471 14.3906V21.5537C95.5791 22.2959 96.1797 22.667 97.0488 22.667C97.3809 22.667 97.6543 22.584 97.8691 22.418C97.9766 22.5645 98.0303 22.7354 98.0303 22.9307C98.0303 23.1162 97.9717 23.292 97.8545 23.458C97.7471 23.624 97.5957 23.7656 97.4004 23.8828C96.9512 24.1562 96.4336 24.293 95.8477 24.293C95.2715 24.293 94.7441 24.1367 94.2656 23.8242C93.8262 24.1367 93.2988 24.293 92.6836 24.293C92.0781 24.293 91.5264 24.1367 91.0283 23.8242C90.5693 24.1367 90.0566 24.293 89.4902 24.293C88.6602 24.293 88.0645 24.0146 87.7031 23.458C87.5957 23.2822 87.542 23.0967 87.542 22.9014C87.542 22.7061 87.6006 22.5449 87.7178 22.418C87.9326 22.584 88.2012 22.667 88.5234 22.667C89.2754 22.667 89.7783 22.3008 90.0322 21.5684V13.8486H83.1035V21.5684C83.3574 22.3008 83.8604 22.667 84.6123 22.667C84.9346 22.667 85.2031 22.584 85.418 22.418C85.5352 22.5449 85.5938 22.7061 85.5938 22.9014C85.5938 23.0967 85.5352 23.2822 85.418 23.458C85.3105 23.6338 85.1641 23.7852 84.9785 23.9121C84.627 24.166 84.1826 24.293 83.6455 24.293C83.0889 24.293 82.5762 24.1416 82.1074 23.8389ZM91.248 9.19043C91.2383 10.2354 91.2334 11.9688 91.2334 14.3906C91.2334 16.8125 91.2676 18.2383 91.3359 18.668C91.4629 19.4883 91.7168 19.9717 92.0977 20.1182V18.2139C92.0977 15.6162 92.1172 14.1514 92.1562 13.8193C92.1953 13.4775 92.2344 13.2383 92.2734 13.1016C92.3613 12.7598 92.6592 12.501 93.167 12.3252C92.7178 12.1885 92.4199 11.9102 92.2734 11.4902C92.1562 11.0215 92.0977 9.08789 92.0977 5.68945C91.7168 5.86523 91.4824 6.2168 91.3945 6.74414C91.3066 7.32031 91.2578 8.13574 91.248 9.19043ZM79.2949 20.1182C79.7637 19.9326 80.0273 19.293 80.0859 18.1992C80.1348 17.1055 80.1592 15.5918 80.1592 13.6582C80.1592 11.7246 80.1543 10.4404 80.1445 9.80566C80.1445 9.16113 80.1396 8.64355 80.1299 8.25293C80.1006 7.11035 79.9932 6.41699 79.8076 6.17285C79.6318 5.92871 79.4609 5.76758 79.2949 5.68945C79.2949 9.08789 79.2363 11.0215 79.1191 11.4902C78.9824 11.8809 78.6504 12.1592 78.123 12.3252C78.709 12.5303 79.041 12.7793 79.1191 13.0723C79.2363 13.541 79.2949 15.2549 79.2949 18.2139V20.1182Z" fill="#2A6456"/>
</svg>
