<svg width="157" height="25" viewBox="0 0 157 25" fill="none" xmlns="http://www.w3.org/2000/svg">
<path d="M7.2627 23.8096C6.75488 24.1318 6.18359 24.293 5.54883 24.293C4.92383 24.293 4.3623 24.1367 3.86426 23.8242C3.36621 24.1367 2.90234 24.293 2.47266 24.293C2.05273 24.293 1.70605 24.2539 1.43262 24.1758C1.15918 24.1074 0.919922 24.0098 0.714844 23.8828C0.294922 23.6289 0.0849609 23.3115 0.0849609 22.9307C0.0849609 22.7354 0.138672 22.5645 0.246094 22.418C0.460938 22.584 0.734375 22.667 1.06641 22.667C1.93555 22.667 2.53613 22.2959 2.86816 21.5537V14.3906C2.86816 13.9414 2.77539 13.6094 2.58984 13.3945C2.29688 13.0332 1.79395 12.6768 1.08105 12.3252C1.74512 12.0225 2.1748 11.7539 2.37012 11.5195C2.70215 11.1387 2.86816 10.709 2.86816 10.2305V4.04883C2.53613 3.29688 1.93555 2.9209 1.06641 2.9209C0.734375 2.9209 0.460938 3.00391 0.246094 3.16992C0.138672 3.02344 0.0849609 2.85742 0.0849609 2.67188C0.0849609 2.47656 0.138672 2.2959 0.246094 2.12988C0.363281 1.96387 0.519531 1.82227 0.714844 1.70508C1.16406 1.43164 1.67676 1.29492 2.25293 1.29492C2.83887 1.29492 3.37598 1.45605 3.86426 1.77832C4.37207 1.45605 4.93359 1.29492 5.54883 1.29492C6.17383 1.29492 6.73535 1.45117 7.2334 1.76367C8.2002 1.35352 9.28906 1.14844 10.5 1.14844C11.7207 1.14844 12.7754 1.29004 13.6641 1.57324C14.5527 1.85645 15.3535 2.25195 16.0664 2.75977C17.5508 3.81445 18.5322 5.20605 19.0107 6.93457C19.2061 7.6084 19.6699 8.16016 20.4023 8.58984C19.6504 9.00977 19.1475 9.64453 18.8936 10.4941C18.6396 11.3438 18.2148 12.1348 17.6191 12.8672C17.0332 13.5898 16.3594 14.1953 15.5977 14.6836C14.0449 15.6797 12.3945 16.1777 10.6465 16.1777C9.88477 16.1777 9.08887 16.0801 8.25879 15.8848V21.4805C8.52246 22.0469 9.06445 22.418 9.88477 22.5938C10.0996 22.6426 10.3389 22.667 10.6025 22.667C10.8662 22.667 11.1055 22.584 11.3203 22.418C11.4277 22.5645 11.4814 22.7354 11.4814 22.9307C11.4814 23.1162 11.4082 23.292 11.2617 23.458C11.125 23.624 10.9395 23.7656 10.7051 23.8828C10.1875 24.1562 9.62109 24.293 9.00586 24.293C8.39062 24.293 7.80957 24.1318 7.2627 23.8096ZM8.25879 12.0615C8.25879 12.7256 8.50293 13.2578 8.99121 13.6582C9.44043 14.0293 10.0166 14.2148 10.7197 14.2148C11.7939 14.2148 12.5703 13.8047 13.0488 12.9844C13.2148 12.7012 13.2979 12.3545 13.2979 11.9443V5.32324C13.2979 4.62012 13.0293 4.06836 12.4922 3.66797C12.0039 3.29688 11.5156 3.11133 11.0273 3.11133C10.5488 3.11133 10.1533 3.16016 9.84082 3.25781C9.53809 3.3457 9.26953 3.48242 9.03516 3.66797C8.51758 4.07812 8.25879 4.64941 8.25879 5.38184V12.0615ZM14.25 13.5703C14.4746 13.5312 14.7041 13.2578 14.9385 12.75C15.1826 12.2422 15.3633 11.6465 15.4805 10.9629C15.6074 10.2695 15.7637 9.76172 15.9492 9.43945C16.1348 9.10742 16.4326 8.87305 16.8428 8.73633C16.1689 8.51172 15.7441 7.91602 15.5684 6.94922C15.3926 5.97266 15.1826 5.25488 14.9385 4.7959C14.7041 4.33691 14.4746 4.08789 14.25 4.04883C14.6113 4.85938 14.792 6.42188 14.792 8.73633C14.792 10.2793 14.7139 11.4414 14.5576 12.2227C14.4014 13.0039 14.2988 13.4531 14.25 13.5703ZM4.27441 20.1182C4.7627 19.9326 5.03125 19.293 5.08008 18.1992C5.13867 17.1055 5.16797 15.5918 5.16797 13.6582C5.16797 11.7246 5.16309 10.4404 5.15332 9.80566C5.15332 9.16113 5.14844 8.64355 5.13867 8.25293C5.10938 7.10059 4.99707 6.40723 4.80176 6.17285C4.61621 5.92871 4.44043 5.76758 4.27441 5.68945C4.27441 9.08789 4.21582 11.0215 4.09863 11.4902C3.96191 11.8809 3.62988 12.1592 3.10254 12.3252C3.68848 12.5303 4.02051 12.7793 4.09863 13.0723C4.21582 13.541 4.27441 15.2549 4.27441 18.2139V20.1182ZM27.9902 23.8389C27.502 24.1416 26.9502 24.293 26.335 24.293C25.7197 24.293 25.1924 24.1367 24.7529 23.8242C24.2549 24.1367 23.7959 24.293 23.376 24.293C22.9561 24.293 22.6094 24.2539 22.3359 24.1758C22.0625 24.1074 21.8281 24.0098 21.6328 23.8828C21.2031 23.6289 20.9883 23.3115 20.9883 22.9307C20.9883 22.7354 21.042 22.5645 21.1494 22.418C21.3643 22.584 21.6377 22.667 21.9697 22.667C22.8389 22.667 23.4395 22.2959 23.7715 21.5537V14.3906C23.7715 13.6289 23.3906 13.0527 22.6289 12.6621L21.9844 12.3252C22.8535 11.9248 23.4004 11.4902 23.625 11.0215C23.7227 10.8066 23.7715 10.543 23.7715 10.2305V4.04883C23.4395 3.29688 22.8389 2.9209 21.9697 2.9209C21.6377 2.9209 21.3643 3.00391 21.1494 3.16992C21.042 3.02344 20.9883 2.85742 20.9883 2.67188C20.9883 2.47656 21.042 2.2959 21.1494 2.12988C21.2666 1.96387 21.4277 1.82227 21.6328 1.70508C22.0723 1.43164 22.5752 1.29492 23.1416 1.29492C23.7178 1.29492 24.2549 1.45117 24.7529 1.76367C25.1924 1.45117 25.7197 1.29492 26.335 1.29492C26.96 1.29492 27.5117 1.45117 27.9902 1.76367C28.4492 1.45117 28.9619 1.29492 29.5283 1.29492C30.3584 1.29492 30.9492 1.57324 31.3008 2.12988C31.418 2.30566 31.4766 2.49121 31.4766 2.68652C31.4766 2.88184 31.418 3.04297 31.3008 3.16992C31.0859 3.00391 30.8174 2.9209 30.4951 2.9209C29.7432 2.9209 29.2402 3.28711 28.9863 4.01953V11.7539H35.915V4.01953C35.6611 3.28711 35.1582 2.9209 34.4062 2.9209C34.084 2.9209 33.8154 3.00391 33.6006 3.16992C33.4834 3.04297 33.4248 2.88184 33.4248 2.68652C33.4248 2.49121 33.4785 2.30566 33.5859 2.12988C33.7031 1.9541 33.8496 1.80273 34.0254 1.67578C34.3965 1.42188 34.8457 1.29492 35.373 1.29492C35.9395 1.29492 36.4521 1.45117 36.9111 1.76367C37.4092 1.45117 37.9609 1.29492 38.5664 1.29492C39.1816 1.29492 39.709 1.45117 40.1484 1.76367C40.627 1.45117 41.0811 1.29492 41.5107 1.29492C41.9404 1.29492 42.292 1.33398 42.5654 1.41211C42.8389 1.48047 43.0781 1.57812 43.2832 1.70508C43.7031 1.95898 43.9131 2.27637 43.9131 2.65723C43.9131 2.85254 43.8594 3.02344 43.752 3.16992C43.5371 3.00391 43.2637 2.9209 42.9316 2.9209C42.0625 2.9209 41.4619 3.29688 41.1299 4.04883V10.2305C41.1299 10.9922 41.5059 11.583 42.2578 12.0029C42.4727 12.1201 42.6924 12.2275 42.917 12.3252C42.3311 12.6084 41.9355 12.8379 41.7305 13.0137C41.3301 13.3848 41.1299 13.8438 41.1299 14.3906V21.5537C41.4619 22.2959 42.0625 22.667 42.9316 22.667C43.2637 22.667 43.5371 22.584 43.752 22.418C43.8594 22.5645 43.9131 22.7354 43.9131 22.9307C43.9131 23.1162 43.8545 23.292 43.7373 23.458C43.6299 23.624 43.4785 23.7656 43.2832 23.8828C42.834 24.1562 42.3164 24.293 41.7305 24.293C41.1543 24.293 40.627 24.1367 40.1484 23.8242C39.709 24.1367 39.1816 24.293 38.5664 24.293C37.9609 24.293 37.4092 24.1367 36.9111 23.8242C36.4521 24.1367 35.9395 24.293 35.373 24.293C34.543 24.293 33.9473 24.0146 33.5859 23.458C33.4785 23.2822 33.4248 23.0967 33.4248 22.9014C33.4248 22.7061 33.4834 22.5449 33.6006 22.418C33.8154 22.584 34.084 22.667 34.4062 22.667C35.1582 22.667 35.6611 22.3008 35.915 21.5684V13.8486H28.9863V21.5684C29.2402 22.3008 29.7432 22.667 30.4951 22.667C30.8174 22.667 31.0859 22.584 31.3008 22.418C31.418 22.5449 31.4766 22.7061 31.4766 22.9014C31.4766 23.0967 31.418 23.2822 31.3008 23.458C31.1934 23.6338 31.0469 23.7852 30.8613 23.9121C30.5098 24.166 30.0654 24.293 29.5283 24.293C28.9717 24.293 28.459 24.1416 27.9902 23.8389ZM37.1309 9.19043C37.1211 10.2354 37.1162 11.9688 37.1162 14.3906C37.1162 16.8125 37.1504 18.2383 37.2188 18.668C37.3457 19.4883 37.5996 19.9717 37.9805 20.1182V18.2139C37.9805 15.6162 38 14.1514 38.0391 13.8193C38.0781 13.4775 38.1172 13.2383 38.1562 13.1016C38.2441 12.7598 38.542 12.501 39.0498 12.3252C38.6006 12.1885 38.3027 11.9102 38.1562 11.4902C38.0391 11.0215 37.9805 9.08789 37.9805 5.68945C37.5996 5.86523 37.3652 6.2168 37.2773 6.74414C37.1895 7.32031 37.1406 8.13574 37.1309 9.19043ZM25.1777 20.1182C25.6465 19.9326 25.9102 19.293 25.9688 18.1992C26.0176 17.1055 26.042 15.5918 26.042 13.6582C26.042 11.7246 26.0371 10.4404 26.0273 9.80566C26.0273 9.16113 26.0225 8.64355 26.0127 8.25293C25.9834 7.11035 25.876 6.41699 25.6904 6.17285C25.5146 5.92871 25.3438 5.76758 25.1777 5.68945C25.1777 9.08789 25.1191 11.0215 25.002 11.4902C24.8652 11.8809 24.5332 12.1592 24.0059 12.3252C24.5918 12.5303 24.9238 12.7793 25.002 13.0723C25.1191 13.541 25.1777 15.2549 25.1777 18.2139V20.1182ZM57.082 23.8242C56.584 24.1367 56.0176 24.293 55.3828 24.293C54.748 24.293 54.1816 24.1367 53.6836 23.8242C53.1855 24.1367 52.7217 24.293 52.292 24.293C51.8721 24.293 51.5156 24.2539 51.2227 24.1758C50.9395 24.1074 50.6855 24.0098 50.4609 23.8828C49.9922 23.6289 49.7578 23.3115 49.7578 22.9307C49.7578 22.7354 49.8115 22.5645 49.9189 22.418C50.1338 22.584 50.417 22.667 50.7686 22.667C51.1299 22.667 51.4912 22.5742 51.8525 22.3887C52.2236 22.2031 52.502 21.915 52.6875 21.5244V18.6387C52.6875 18.1895 52.5996 17.8574 52.4238 17.6426C52.1113 17.2617 51.6035 16.9004 50.9004 16.5586C51.5547 16.2559 51.9844 15.9922 52.1895 15.7676C52.5215 15.3867 52.6875 14.957 52.6875 14.4785V13.9512L46.7988 3.75586C46.2324 3.24805 45.7295 2.99414 45.29 2.99414C44.8506 2.99414 44.5039 3.07715 44.25 3.24316C44.1426 3.16504 44.0889 3.01855 44.0889 2.80371C44.0889 2.58887 44.123 2.39355 44.1914 2.21777C44.2598 2.03223 44.3672 1.87109 44.5137 1.73438C44.8262 1.44141 45.2803 1.29492 45.876 1.29492C46.4717 1.29492 46.999 1.46582 47.458 1.80762C47.9463 1.46582 48.5225 1.29492 49.1865 1.29492C49.8604 1.29492 50.4121 1.46094 50.8418 1.79297C51.3594 1.46094 51.8428 1.29492 52.292 1.29492C52.7412 1.29492 53.1025 1.3291 53.376 1.39746C53.6494 1.45605 53.8887 1.54883 54.0938 1.67578C54.5332 1.92969 54.7627 2.28125 54.7822 2.73047C54.7822 3.00391 54.7285 3.1748 54.6211 3.24316C54.3574 3.07715 54.0938 2.99414 53.8301 2.99414C53.2637 2.99414 52.8047 3.09668 52.4531 3.30176L56.833 11.71L60.9932 3.28711C60.5928 3.04297 60.1289 2.9209 59.6016 2.9209C59.084 2.9209 58.6836 3.00391 58.4004 3.16992C58.3027 3.02344 58.2539 2.79395 58.2539 2.48145C58.2539 2.16895 58.3857 1.89551 58.6494 1.66113C58.9131 1.41699 59.2891 1.29492 59.7773 1.29492C60.2656 1.29492 60.6855 1.42188 61.0371 1.67578C61.3496 1.42188 61.7305 1.29492 62.1797 1.29492C62.6289 1.29492 63.0049 1.40234 63.3076 1.61719C63.7373 1.40234 64.167 1.29492 64.5967 1.29492C65.0264 1.29492 65.3682 1.43652 65.6221 1.71973C65.8857 1.99316 66.0176 2.34961 66.0176 2.78906C66.0176 3.01367 65.9639 3.16504 65.8564 3.24316C65.6025 3.07715 65.29 2.99414 64.9189 2.99414C64.2744 2.99414 63.7031 3.16992 63.2051 3.52148L58.0781 13.6729V14.4785C58.0781 14.957 58.1807 15.3135 58.3857 15.5479C58.7178 15.9189 59.2109 16.2559 59.8652 16.5586C59.1621 16.9004 58.7129 17.1885 58.5176 17.4229C58.2246 17.7842 58.0781 18.1895 58.0781 18.6387V21.5244C58.2539 21.915 58.5225 22.2031 58.8838 22.3887C59.2549 22.5742 59.6211 22.667 59.9824 22.667C60.3438 22.667 60.6318 22.584 60.8467 22.418C60.9541 22.5645 61.0078 22.7354 61.0078 22.9307C61.0078 23.1162 60.9443 23.292 60.8174 23.458C60.6904 23.624 60.5195 23.7656 60.3047 23.8828C59.8164 24.1562 59.2793 24.293 58.6934 24.293C58.1172 24.293 57.5801 24.1367 57.082 23.8242ZM54.0938 20.1182C54.6113 19.9229 54.8945 19.1562 54.9434 17.8184C54.9531 17.4082 54.958 16.9883 54.958 16.5586V14.1123C54.958 13.6436 54.8701 13.2578 54.6943 12.9551L51.6914 7.52051C51.2715 6.78809 50.9688 6.33398 50.7832 6.1582C50.4902 5.88477 50.1387 5.72852 49.7285 5.68945L54.123 13.834V14.5518C54.123 15.1279 54.084 15.5234 54.0059 15.7383C53.8887 16.1094 53.5273 16.3877 52.9219 16.5732C53.5762 16.8174 53.9473 17.1152 54.0352 17.4668C54.1035 17.7402 54.1377 18.0625 54.1377 18.4336C54.1377 18.7949 54.1279 19.1123 54.1084 19.3857C54.0986 19.6592 54.0938 19.9033 54.0938 20.1182ZM70.1191 23.4287C69.3379 24.21 68.5957 24.6006 67.8926 24.6006C67.4434 24.6006 67.1406 24.4346 66.9844 24.1025C67.209 23.8291 67.3213 23.4189 67.3213 22.8721V22.6523C67.3213 22.5938 67.3164 22.54 67.3066 22.4912C66.8184 22.0518 66.5742 21.5342 66.5742 20.9385C66.5742 20.333 66.8574 19.7178 67.4238 19.0928C67.2578 18.7607 67.1748 18.4092 67.1748 18.0381C67.1748 17.6572 67.2285 17.3057 67.3359 16.9834C67.4531 16.6514 67.6094 16.3633 67.8047 16.1191C68.2148 15.582 68.6152 15.3135 69.0059 15.3135C69.4062 15.3135 69.6895 15.4697 69.8555 15.7822C69.5039 16.1533 69.3281 16.7344 69.3281 17.5254C69.3281 18.3164 69.4404 19.0049 69.665 19.5908C69.8994 20.1768 70.2266 20.6797 70.6465 21.0996C71.5449 22.0176 72.6924 22.4766 74.0889 22.4766C75.0264 22.4766 75.8223 22.208 76.4766 21.6709C77.1797 21.0947 77.5312 20.3086 77.5312 19.3125C77.5312 18.6094 77.3652 18.0381 77.0332 17.5986C76.5156 16.915 75.7051 16.1924 74.6016 15.4307C73.752 14.835 73.0732 14.5371 72.5654 14.5371C72.0479 14.5371 71.4766 14.7471 70.8516 15.167C71.0176 14.6689 71.1006 14.2051 71.1006 13.7754C71.1006 13.6777 71.0078 13.5508 70.8223 13.3945L70.2803 12.9111C68.5713 11.3389 67.5605 9.87891 67.248 8.53125C67.1406 8.0625 67.0869 7.47656 67.0869 6.77344C67.0869 6.06055 67.2578 5.34277 67.5996 4.62012C67.9512 3.8877 68.4297 3.26758 69.0352 2.75977C70.2949 1.68555 71.8965 1.14844 73.8398 1.14844C75.0215 1.14844 76.1055 1.33887 77.0918 1.71973C77.5117 1.88574 77.9902 1.96875 78.5273 1.96875C78.752 1.96875 78.9521 1.95898 79.1279 1.93945C79.3135 1.91016 79.4746 1.80762 79.6113 1.63184C79.7383 1.44629 79.8018 1.28027 79.8018 1.13379C79.8018 0.987305 79.7822 0.865234 79.7432 0.767578C79.8115 0.738281 79.9043 0.723633 80.0215 0.723633C80.1484 0.723633 80.2852 0.767578 80.4316 0.855469C80.5781 0.933594 80.71 1.0459 80.8271 1.19238C81.0908 1.52441 81.2227 1.90039 81.2227 2.32031C81.2227 2.73047 81.1055 3.04297 80.8711 3.25781C81.2031 3.55078 81.3691 4.00488 81.3691 4.62012C81.3691 5.22559 81.1641 5.7334 80.7539 6.14355C80.832 6.40723 80.8711 6.64648 80.8711 6.86133C80.8711 7.06641 80.832 7.2666 80.7539 7.46191C80.6855 7.64746 80.5879 7.80859 80.4609 7.94531C80.1777 8.24805 79.9092 8.39941 79.6553 8.39941C79.2549 8.39941 78.918 8.33105 78.6445 8.19434C78.8105 7.80371 78.8936 7.38379 78.8936 6.93457C78.8936 6.48535 78.791 6.02637 78.5859 5.55762C78.3906 5.0791 78.1123 4.66406 77.751 4.3125C76.9893 3.58984 75.9932 3.22852 74.7627 3.22852C73.9814 3.22852 73.3418 3.46777 72.8438 3.94629C72.375 4.39551 72.1406 4.9375 72.1406 5.57227C72.1406 6.05078 72.2578 6.45117 72.4922 6.77344C72.9023 7.33008 73.5518 7.90625 74.4404 8.50195L75.1436 8.9707C75.5342 9.21484 75.7979 9.33691 75.9346 9.33691C76.0713 9.33691 76.208 9.32227 76.3447 9.29297C76.4814 9.26367 76.6328 9.22461 76.7988 9.17578C77.1504 9.05859 77.4922 8.89258 77.8242 8.67773L77.6338 9.49805C77.5752 9.77148 77.5459 9.97168 77.5459 10.0986C77.5459 10.3037 77.6484 10.4893 77.8535 10.6553C79.6797 12.2373 80.9004 13.5605 81.5156 14.625C82.0527 15.5527 82.3213 16.5537 82.3213 17.6279C82.3213 18.7021 82.1455 19.625 81.7939 20.3965C81.4424 21.168 80.9297 21.8516 80.2559 22.4473C78.7715 23.7754 76.8428 24.4395 74.4697 24.4395C72.7998 24.4395 71.3496 24.1025 70.1191 23.4287ZM69.123 5.68945C68.752 5.8457 68.5664 6.25098 68.5664 6.90527C68.5664 8.24316 69.46 9.71289 71.2471 11.3145L72.126 12.1055C72.4287 12.3789 72.5605 12.5889 72.5215 12.7354C72.4922 12.8818 72.4629 12.999 72.4336 13.0869C72.4141 13.1748 72.3896 13.2578 72.3604 13.3359C72.3311 13.4141 72.3115 13.4727 72.3018 13.5117C72.6436 13.3066 72.9219 13.2041 73.1367 13.2041C73.5664 13.2041 73.9717 13.3213 74.3525 13.5557C76.2373 14.7275 77.5166 15.7725 78.1904 16.6904C78.6787 17.3643 78.9326 18.2041 78.9521 19.21C78.9521 19.5713 78.9277 19.874 78.8789 20.1182C79.3965 19.7861 79.6553 19.2588 79.6553 18.5361C79.6553 17.833 79.5576 17.291 79.3623 16.9102C79.1768 16.5293 78.957 16.1924 78.7031 15.8994C78.4492 15.5967 78.1172 15.2695 77.707 14.918C77.3066 14.5664 76.8086 14.1855 76.2129 13.7754L74.1328 12.3545C72.4238 11.2314 71.125 10.0449 70.2363 8.79492C69.4551 7.69141 69.084 6.65625 69.123 5.68945ZM91.6377 23.8242C91.1396 24.1367 90.5732 24.293 89.9385 24.293C89.3037 24.293 88.7373 24.1367 88.2393 23.8242C87.7412 24.1367 87.2773 24.293 86.8477 24.293C86.4277 24.293 86.0811 24.2539 85.8076 24.1758C85.5342 24.1074 85.2949 24.0098 85.0898 23.8828C84.6699 23.6289 84.46 23.3115 84.46 22.9307C84.46 22.7354 84.5137 22.5645 84.6211 22.418C84.8359 22.584 85.1094 22.667 85.4414 22.667C86.3105 22.667 86.9111 22.2959 87.2432 21.5537V14.3906C87.2432 13.9414 87.1504 13.6094 86.9648 13.3945C86.6719 13.0332 86.1689 12.6768 85.4561 12.3252C86.1201 12.0225 86.5498 11.7539 86.7451 11.5195C87.0771 11.1387 87.2432 10.709 87.2432 10.2305V4.04883C86.9111 3.29688 86.3105 2.9209 85.4414 2.9209C85.1094 2.9209 84.8359 3.00391 84.6211 3.16992C84.5137 3.02344 84.46 2.85742 84.46 2.67188C84.46 2.47656 84.5137 2.2959 84.6211 2.12988C84.7383 1.96387 84.8945 1.82227 85.0898 1.70508C85.5391 1.43164 86.0518 1.29492 86.6279 1.29492C87.2139 1.29492 87.751 1.45605 88.2393 1.77832C88.7471 1.45605 89.3135 1.29492 89.9385 1.29492C90.5635 1.29492 91.1299 1.45605 91.6377 1.77832C92.126 1.45605 92.585 1.29492 93.0146 1.29492C93.4443 1.29492 93.7959 1.33398 94.0693 1.41211C94.3428 1.48047 94.582 1.57812 94.7871 1.70508C95.207 1.95898 95.417 2.27637 95.417 2.65723C95.417 2.85254 95.3633 3.02344 95.2559 3.16992C95.041 3.00391 94.7676 2.9209 94.4355 2.9209C93.5664 2.9209 92.9658 3.29688 92.6338 4.04883V10.2305C92.6338 10.709 92.7363 11.0654 92.9414 11.2998C93.2637 11.6807 93.7568 12.0225 94.4209 12.3252C93.708 12.6768 93.2539 12.9648 93.0586 13.1895C92.7754 13.541 92.6338 13.9414 92.6338 14.3906V21.5537C92.9658 22.2959 93.5664 22.667 94.4355 22.667C94.7676 22.667 95.041 22.584 95.2559 22.418C95.3633 22.5645 95.417 22.7354 95.417 22.9307C95.417 23.1162 95.3584 23.292 95.2412 23.458C95.1338 23.624 94.9824 23.7656 94.7871 23.8828C94.3379 24.1562 93.8252 24.293 93.249 24.293C92.6729 24.293 92.1357 24.1367 91.6377 23.8242ZM88.6494 20.1182C89.1377 19.9326 89.4062 19.293 89.4551 18.1992C89.5137 17.1055 89.543 15.5918 89.543 13.6582C89.543 11.7246 89.5381 10.4404 89.5283 9.80566C89.5283 9.16113 89.5234 8.64355 89.5137 8.25293C89.4844 7.10059 89.3721 6.40723 89.1768 6.17285C88.9912 5.92871 88.8154 5.76758 88.6494 5.68945C88.6494 9.08789 88.5908 11.0215 88.4736 11.4902C88.3369 11.8809 88.0049 12.1592 87.4775 12.3252C88.0635 12.5303 88.3955 12.7793 88.4736 13.0723C88.5908 13.541 88.6494 15.2549 88.6494 18.2139V20.1182ZM111.662 21.4658C112.053 21.1338 112.36 20.7041 112.585 20.1768C112.819 19.6494 112.937 19.0977 112.937 18.5215C112.937 17.9355 112.824 17.4814 112.6 17.1592C112.756 16.8857 113.083 16.749 113.581 16.749C114.079 16.749 114.46 16.9102 114.724 17.2324C114.997 17.5547 115.134 18.0527 115.134 18.7266C115.134 19.3906 114.953 20.084 114.592 20.8066C114.24 21.5195 113.742 22.1445 113.098 22.6816C111.672 23.8535 109.89 24.4395 107.751 24.4395C105.202 24.4395 103.107 23.6387 101.467 22.0371C99.7969 20.3965 98.791 18.0576 98.4492 15.0205C98.2832 13.6338 97.7852 12.7354 96.9551 12.3252C97.4141 12.1104 97.7314 11.8857 97.9072 11.6514C98.1904 11.251 98.3711 10.709 98.4492 10.0254C98.5371 9.33203 98.6982 8.61426 98.9326 7.87207C99.167 7.12988 99.4746 6.42676 99.8555 5.7627C100.246 5.08887 100.71 4.47363 101.247 3.91699C101.784 3.35059 102.399 2.8623 103.093 2.45215C104.558 1.58301 106.267 1.14844 108.22 1.14844C110.124 1.14844 111.701 1.62695 112.951 2.58398C114.074 3.45312 114.802 4.63477 115.134 6.12891C115.29 6.87109 115.49 7.33008 115.734 7.50586C115.832 7.58398 115.954 7.65723 116.101 7.72559C115.808 8.21387 115.363 8.48242 114.768 8.53125C114.504 8.57031 114.221 8.5166 113.918 8.37012C113.381 9.28809 112.624 9.77637 111.647 9.83496C111.442 9.85449 111.286 9.81543 111.179 9.71777C111.442 9.36621 111.564 8.95605 111.545 8.4873C111.545 8.39941 111.53 8.31152 111.501 8.22363C111.052 8.31152 110.671 8.27246 110.358 8.10645C109.851 7.81348 109.587 7.49609 109.567 7.1543C109.567 7.07617 109.582 6.99805 109.611 6.91992C110.217 7.0957 110.793 6.95898 111.34 6.50977C111.711 6.20703 111.887 5.86523 111.867 5.48438C111.848 5.10352 111.76 4.77148 111.604 4.48828C111.447 4.20508 111.223 3.95117 110.93 3.72656C110.266 3.19922 109.436 2.93555 108.439 2.93555C106.74 2.93555 105.637 3.69727 105.129 5.2207C104.963 5.72852 104.88 6.32422 104.88 7.00781V9.9668C104.88 11.0703 105.417 11.8564 106.491 12.3252C105.417 12.8428 104.88 13.6875 104.88 14.8594V18.4775C104.88 20.333 105.617 21.5586 107.092 22.1543C107.57 22.3398 108.098 22.4326 108.674 22.4326C109.25 22.4326 109.792 22.3545 110.3 22.1982C110.817 22.042 111.271 21.7979 111.662 21.4658ZM101.774 20.1182C101.921 20.0596 101.994 19.957 101.994 19.8105C101.994 19.5957 101.892 19.2588 101.687 18.7998C101.169 17.6182 100.91 15.46 100.91 12.3252C100.91 10.04 101.184 8.09668 101.73 6.49512C101.799 6.25098 101.833 6.06543 101.833 5.93848C101.833 5.81152 101.77 5.72852 101.643 5.68945C101.184 6.26562 100.856 6.83691 100.661 7.40332C100.3 8.43848 100.012 9.83984 99.7969 11.6074C99.7676 11.8613 99.4795 12.1006 98.9326 12.3252C99.4795 12.5693 99.7676 12.8184 99.7969 13.0723C100.148 16.0996 100.598 18.1211 101.145 19.1367C101.33 19.498 101.54 19.8252 101.774 20.1182ZM117.595 23.8975C117.233 24.1611 116.818 24.293 116.35 24.293C115.891 24.293 115.524 24.1758 115.251 23.9414C114.968 23.6973 114.826 23.4189 114.826 23.1064C114.826 22.7939 114.875 22.5645 114.973 22.418C115.256 22.584 115.603 22.667 116.013 22.667C116.433 22.667 116.745 22.6133 116.95 22.5059C117.165 22.3887 117.37 22.2324 117.565 22.0371L119.646 15.8701L119.938 14.8594C120.026 14.5566 120.07 14.2783 120.07 14.0244C120.07 13.1357 119.65 12.5693 118.811 12.3252C119.582 12.0322 120.124 11.7148 120.437 11.373C120.925 10.8359 121.311 10.1279 121.594 9.24902L123.205 3.84375C122.893 3.42383 122.521 3.21387 122.092 3.21387C121.662 3.21387 121.262 3.30664 120.891 3.49219C120.793 3.31641 120.744 3.12109 120.744 2.90625C120.744 2.68164 120.788 2.47168 120.876 2.27637C120.974 2.08105 121.105 1.91016 121.271 1.76367C121.643 1.45117 122.17 1.29492 122.854 1.29492C123.537 1.29492 124.118 1.5 124.597 1.91016C125.085 1.5 125.69 1.29492 126.413 1.29492C127.146 1.29492 127.727 1.49023 128.156 1.88086C128.781 1.49023 129.416 1.29492 130.061 1.29492C130.705 1.29492 131.203 1.41699 131.555 1.66113C131.916 1.90527 132.097 2.2373 132.097 2.65723C132.097 2.85254 132.038 3.02344 131.921 3.16992C131.696 3.00391 131.433 2.9209 131.13 2.9209C130.476 2.9209 130.051 3.36523 129.855 4.25391L131.73 10.2451C131.965 10.9971 132.551 11.583 133.488 12.0029C133.752 12.1201 134.021 12.2275 134.294 12.3252C133.317 12.6475 132.829 13.1309 132.829 13.7754C132.829 14.0195 132.868 14.2344 132.946 14.4199L135.744 21.9199C136.174 22.3691 136.608 22.5938 137.048 22.5938C137.487 22.5938 137.829 22.5107 138.073 22.3447C138.181 22.4229 138.234 22.5693 138.234 22.7842C138.234 22.999 138.2 23.1992 138.132 23.3848C138.063 23.5605 137.956 23.7168 137.81 23.8535C137.497 24.1465 137.038 24.293 136.433 24.293C135.827 24.293 135.3 24.127 134.851 23.7949C134.343 24.127 133.767 24.293 133.122 24.293C132.487 24.293 131.94 24.1318 131.481 23.8096C131.042 24.1318 130.524 24.293 129.929 24.293C129.333 24.293 128.84 24.1709 128.449 23.9268C128.059 23.6729 127.854 23.3164 127.834 22.8574C127.834 22.584 127.888 22.4131 127.995 22.3447C128.259 22.5107 128.527 22.5938 128.801 22.5938C129.377 22.5938 129.782 22.4766 130.017 22.2422L128.903 18.5068H120.979L120.012 21.7441C120.412 22.3594 120.896 22.667 121.462 22.667C122.038 22.667 122.468 22.584 122.751 22.418C122.858 22.5938 122.912 22.8379 122.912 23.1504C122.912 23.4531 122.761 23.7217 122.458 23.9561C122.155 24.1807 121.765 24.293 121.286 24.293C120.808 24.293 120.368 24.1709 119.968 23.9268C119.616 24.1709 119.211 24.293 118.752 24.293C118.303 24.293 117.917 24.1611 117.595 23.8975ZM128.303 16.5293L124.904 5.23535L121.564 16.5293H128.303ZM131.101 20.1182C131.276 20.1182 131.364 19.9229 131.364 19.5322C131.364 18.8486 131.262 18.1846 131.057 17.54L130.5 15.8262C130.109 14.5371 129.914 13.7266 129.914 13.3945C129.904 12.8477 130.144 12.4863 130.632 12.3105C129.958 12.1738 129.548 11.9639 129.401 11.6807C129.333 11.5635 129.274 11.4707 129.226 11.4023C129.187 11.334 129.143 11.2559 129.094 11.168C129.055 11.0703 129.006 10.9482 128.947 10.8018C128.889 10.6553 128.811 10.4453 128.713 10.1719L127.805 7.43262C127.59 6.74902 127.272 6.23145 126.853 5.87988C126.726 5.77246 126.608 5.70898 126.501 5.68945C127.155 8.05273 127.585 9.56641 127.79 10.2305C129.206 14.5859 130.056 17.1689 130.339 17.9795L131.101 20.1182ZM135.422 21.4365L135.451 21.5244L135.422 21.4365ZM143.801 24.293C143.156 24.293 142.585 24.1367 142.087 23.8242C141.589 24.1367 141.125 24.293 140.695 24.293C140.275 24.293 139.929 24.2539 139.655 24.1758C139.382 24.1074 139.143 24.0098 138.938 23.8828C138.518 23.6289 138.308 23.3115 138.308 22.9307C138.308 22.7354 138.361 22.5645 138.469 22.418C138.684 22.584 138.957 22.667 139.289 22.667C140.158 22.667 140.759 22.2959 141.091 21.5537V14.3906C141.091 13.9414 140.998 13.6094 140.812 13.3945C140.52 13.0332 140.017 12.6768 139.304 12.3252C139.968 12.0225 140.397 11.7539 140.593 11.5195C140.925 11.1387 141.091 10.709 141.091 10.2305V4.04883C140.759 3.29688 140.158 2.9209 139.289 2.9209C138.957 2.9209 138.684 3.00391 138.469 3.16992C138.361 3.02344 138.308 2.85742 138.308 2.67188C138.308 2.47656 138.361 2.2959 138.469 2.12988C138.586 1.96387 138.742 1.82227 138.938 1.70508C139.387 1.43164 139.899 1.29492 140.476 1.29492C141.062 1.29492 141.599 1.45605 142.087 1.77832C142.595 1.45605 143.161 1.29492 143.786 1.29492C144.411 1.29492 144.978 1.45605 145.485 1.77832C146.032 1.45605 146.53 1.29492 146.979 1.29492C147.429 1.29492 147.79 1.33398 148.063 1.41211C148.337 1.48047 148.576 1.57812 148.781 1.70508C149.201 1.95898 149.411 2.27637 149.411 2.65723C149.411 2.85254 149.357 3.02344 149.25 3.16992C149.035 3.00391 148.747 2.9209 148.386 2.9209C148.024 2.9209 147.658 3.01855 147.287 3.21387C146.926 3.39941 146.657 3.68262 146.481 4.06348V10.2305C146.481 10.709 146.584 11.0654 146.789 11.2998C147.111 11.6807 147.604 12.0225 148.269 12.3252C147.556 12.6768 147.102 12.9648 146.906 13.1895C146.623 13.541 146.481 13.9414 146.481 14.3906V20.792C147.126 21.8174 147.932 22.3301 148.898 22.3301C151.291 22.3301 152.829 21.3145 153.513 19.2832C153.815 18.3848 153.967 17.5645 153.967 16.8223C153.967 16.0703 153.864 15.5674 153.659 15.3135C153.884 15.1279 154.113 15.0352 154.348 15.0352C154.592 15.0352 154.816 15.084 155.021 15.1816C155.227 15.2793 155.412 15.4258 155.578 15.6211C155.92 16.0215 156.091 16.4951 156.091 17.042C156.091 17.5889 156.047 18.0088 155.959 18.3018C156.408 18.6729 156.633 19.1953 156.633 19.8691C156.633 20.543 156.442 21.0898 156.062 21.5098C156.384 21.9199 156.545 22.291 156.545 22.623C156.545 22.9551 156.496 23.2432 156.398 23.4873C156.311 23.7217 156.184 23.9316 156.018 24.1172C155.646 24.498 155.202 24.6885 154.685 24.6885C154.431 24.6885 154.196 24.6348 153.981 24.5273C154.021 24.3125 154.04 24.0977 154.04 23.8828C154.04 23.4336 153.835 23.209 153.425 23.209C153.122 23.209 152.702 23.3311 152.165 23.5752C151.13 24.0537 149.948 24.293 148.62 24.293C147.302 24.293 146.271 24.1221 145.529 23.7803C145.021 24.1221 144.445 24.293 143.801 24.293ZM142.497 20.1182C142.985 19.9326 143.254 19.293 143.303 18.1992C143.361 17.1055 143.391 15.5918 143.391 13.6582C143.391 11.7246 143.386 10.4404 143.376 9.80566C143.376 9.16113 143.371 8.64355 143.361 8.25293C143.332 7.10059 143.22 6.40723 143.024 6.17285C142.839 5.92871 142.663 5.76758 142.497 5.68945C142.497 9.08789 142.438 11.0215 142.321 11.4902C142.185 11.8809 141.853 12.1592 141.325 12.3252C141.911 12.5303 142.243 12.7793 142.321 13.0723C142.438 13.541 142.497 15.2549 142.497 18.2139V20.1182Z" fill="#591010"/>
</svg>
